<svg xmlns="http://www.w3.org/2000/svg" width="33.973" height="33.748" viewBox="0 0 33.973 33.748"><defs><style>.a{fill:#4f4d4e;stroke:#fff;}</style></defs><path class="a" d="M20.641,5.681,22.45,3.872l3.2,3.2,5.309-5.309L32.766,3.57l-7.118,7.118ZM30.806,9.147A16.383,16.383,0,0,1,4.8,28.474,16.4,16.4,0,0,1,16.374.5a16.434,16.434,0,0,1,5.025.8L19.308,3.4A13.809,13.809,0,0,0,5.993,26a10.679,10.679,0,0,1,6.1-7.417,6.354,6.354,0,1,1,8.555,0A10.678,10.678,0,0,1,26.755,26,13.791,13.791,0,0,0,28.894,11.06ZM16.374,17.686a3.8,3.8,0,1,0-3.8-3.8,3.8,3.8,0,0,0,3.8,3.8Zm0,13.026A13.74,13.74,0,0,0,24.449,28.1a8.078,8.078,0,0,0-16.15,0A13.739,13.739,0,0,0,16.374,30.711Zm0,0" transform="translate(0.5 0)"/></svg>