<svg xmlns="http://www.w3.org/2000/svg" width="22.473" height="22.509" viewBox="0 0 22.473 22.509"><defs><style>.a{fill:#1e9cda;}</style></defs><g transform="translate(-0.378 0.001)"><g transform="translate(2.754 3.197)"><g transform="translate(0)"><path class="a" d="M66.048,82.854a8.843,8.843,0,1,0-12.769,0l-2.3,3.063a.8.8,0,1,0,1.286.965l2.227-2.97a8.778,8.778,0,0,0,10.338,0l2.227,2.97a.8.8,0,1,0,1.286-.965Zm-5.581-6.1a.8.8,0,0,1-.161.482L57.9,80.451a.8.8,0,0,1-1.286-.965l2.251-3V71.929a.8.8,0,0,1,1.608,0v4.823Z" transform="translate(-50.821 -67.893)"/></g></g><g transform="translate(0.378 0.034)"><g transform="translate(0)"><path class="a" d="M7.2,1.888A4.02,4.02,0,0,0,1.519,7.572a.8.8,0,0,0,1.137,0L7.2,3.025A.8.8,0,0,0,7.2,1.888Z" transform="translate(-0.378 -0.746)"/></g></g><g transform="translate(15.755 -0.001)"><g transform="translate(0 0)"><path class="a" d="M332.747,1.176a4.019,4.019,0,0,0-5.684,0,.8.8,0,0,0,0,1.137L331.61,6.86a.8.8,0,0,0,1.137,0A4.019,4.019,0,0,0,332.747,1.176Z" transform="translate(-326.828 0.001)"/></g></g></g></svg>