<svg xmlns="http://www.w3.org/2000/svg" width="17.226" height="16.509" viewBox="0 0 17.226 16.509"><defs><style>.a{fill:#fff;}</style></defs><g transform="translate(0 -1)"><path class="a" d="M15.1,7.639a.716.716,0,0,1-.507-.21L11.785,4.623,5.668,5.3A.716.716,0,0,1,5.081,5.1L2.21,2.225A.718.718,0,0,1,3.225,1.21L5.852,3.837l6.117-.68a.7.7,0,0,1,.586.206l3.051,3.051A.718.718,0,0,1,15.1,7.639Z" transform="translate(-0.564 0)"/><path class="a" d="M20.051,9.589H17.538a.538.538,0,0,1-.38-.919L19.67,6.158a.538.538,0,0,1,.919.38V9.051a.539.539,0,0,1-.538.538Z" transform="translate(-4.798 -1.411)"/><path class="a" d="M21.307,17.9v1.974H17V17.9a.9.9,0,0,1,.9-.9h2.512A.9.9,0,0,1,21.307,17.9Z" transform="translate(-4.798 -4.516)"/><path class="a" d="M13.307,11.9v6.28H9V11.9a.9.9,0,0,1,.9-.9h2.512A.9.9,0,0,1,13.307,11.9Z" transform="translate(-2.54 -2.822)"/><path class="a" d="M5.307,13.9v4.845H1V13.9a.9.9,0,0,1,.9-.9H4.409A.9.9,0,0,1,5.307,13.9Z" transform="translate(-0.282 -3.387)"/><path class="a" d="M16.688,23.577H.538a.538.538,0,0,1,0-1.077h16.15a.538.538,0,0,1,0,1.077Z" transform="translate(0 -6.068)"/></g></svg>