<svg xmlns="http://www.w3.org/2000/svg" width="24" height="24" viewBox="0 0 24 24"><defs><style>.a{fill:#2b3a67;}.b{fill:#fff;}</style></defs><g transform="translate(-590.5 -525)"><path class="a" d="M24,6.955v10.09a6.758,6.758,0,0,1-2.315,5.033A6.519,6.519,0,0,1,17.045,24H6.955a6.519,6.519,0,0,1-4.64-1.922A6.758,6.758,0,0,1,0,17.045V6.955A6.758,6.758,0,0,1,2.315,1.922,6.519,6.519,0,0,1,6.955,0h10.09a6.519,6.519,0,0,1,4.64,1.922A6.758,6.758,0,0,1,24,6.955Z" transform="translate(590.5 525)"/><path class="b" d="M17.265,12.655l-3.7,3.7a.938.938,0,0,1-1.326-1.326l2.087-2.087H7.375a.938.938,0,0,1,0-1.875H14.33L12.243,8.975A.938.938,0,0,1,13.569,7.65l3.695,3.695A.937.937,0,0,1,17.265,12.655Z" transform="translate(590.516 525)"/></g></svg>