<svg xmlns="http://www.w3.org/2000/svg" width="30.459" height="30.46" viewBox="0 0 30.459 30.46"><defs><style>.a{fill:#4f4d4e;stroke:#fff;stroke-width:0.8px;}</style></defs><g transform="translate(1.397 1.4)"><g transform="translate(-0.997 -1)"><path class="a" d="M11.307,189.29l-3.495,3.495a3.707,3.707,0,0,1-5.243-5.242l6.991-6.991a3.706,3.706,0,0,1,5.242,0A1.236,1.236,0,1,0,16.55,178.8a6.178,6.178,0,0,0-8.737,0L.821,185.8a6.179,6.179,0,0,0,8.739,8.737l3.495-3.495a1.236,1.236,0,1,0-1.748-1.748Z" transform="translate(0.989 -166.684)"/><path class="a" d="M206.729,9.556A6.179,6.179,0,0,0,197.991.818L193.8,5.011a1.236,1.236,0,0,0,1.748,1.748l4.193-4.193a3.707,3.707,0,0,1,5.243,5.242L197.292,15.5a3.706,3.706,0,0,1-5.242,0,1.236,1.236,0,0,0-1.748,1.748,6.178,6.178,0,0,0,8.737,0Z" transform="translate(-178.88 0.992)"/><path class="a" d="M363.79,362.04a1.236,1.236,0,0,0-1.748,1.748l3.706,3.706a1.236,1.236,0,0,0,1.748-1.748Z" transform="translate(-340.671 -340.668)"/><path class="a" d="M45.727,47.471a1.236,1.236,0,0,0,1.748-1.748l-3.71-3.71a1.236,1.236,0,0,0-1.748,1.748Z" transform="translate(-39.184 -39.181)"/><path class="a" d="M409.28,319h-3.707a1.236,1.236,0,1,0,0,2.472h3.707a1.236,1.236,0,1,0,0-2.472Z" transform="translate(-380.857 -300.463)"/><path class="a" d="M149.573,5.179a1.236,1.236,0,0,0,1.236-1.236V.236a1.236,1.236,0,1,0-2.472,0V3.943A1.236,1.236,0,0,0,149.573,5.179Z" transform="translate(-139.686 1)"/><path class="a" d="M.239,150.806H3.946a1.236,1.236,0,0,0,0-2.472H.239a1.236,1.236,0,0,0,0,2.472Z" transform="translate(0.997 -139.683)"/><path class="a" d="M320.239,404.333A1.236,1.236,0,0,0,319,405.569v3.707a1.236,1.236,0,1,0,2.472,0v-3.707A1.236,1.236,0,0,0,320.239,404.333Z" transform="translate(-300.466 -380.853)"/></g></g></svg>