<svg xmlns="http://www.w3.org/2000/svg" width="33.943" height="40.858" viewBox="0 0 33.943 40.858"><defs><style>.a{fill:#4f4d4e;stroke:#fff;}</style></defs><g transform="translate(-43.912 0.5)"><g transform="translate(49.096 11.562)"><path class="a" d="M120.566,148.522H105.756a1.17,1.17,0,1,0,0,2.341h14.809a1.17,1.17,0,1,0,0-2.341Z" transform="translate(-104.586 -148.522)"/></g><g transform="translate(49.096 16.077)"><path class="a" d="M120.566,206.515H105.756a1.17,1.17,0,1,0,0,2.341h14.809a1.17,1.17,0,1,0,0-2.341Z" transform="translate(-104.586 -206.515)"/></g><g transform="translate(49.096 20.772)"><path class="a" d="M120.566,266.824H105.756a1.17,1.17,0,0,0,0,2.341h14.809a1.17,1.17,0,1,0,0-2.341Z" transform="translate(-104.586 -266.824)"/></g><g transform="translate(49.097 25.431)"><path class="a" d="M111.712,326.673h-5.955a1.17,1.17,0,0,0,0,2.341h5.955a1.17,1.17,0,0,0,0-2.341Z" transform="translate(-104.587 -326.673)"/></g><g transform="translate(44.412)"><path class="a" d="M70.931,24.758V3.3a3.3,3.3,0,0,0-3.3-3.3H52.164a1.188,1.188,0,0,0-.842.349L44.761,6.907a1.184,1.184,0,0,0-.349.843V31.195a3.3,3.3,0,0,0,3.3,3.3H62.5a7.6,7.6,0,1,0,8.431-9.736ZM50.994,3.986V6.58H48.4ZM62.166,32.154H47.712a.96.96,0,0,1-.959-.959V8.92h5.411a1.17,1.17,0,0,0,1.17-1.17c0-.009,0-.018,0-.027s0-.018,0-.027V2.341h14.3a.96.96,0,0,1,.959.959V24.758A7.607,7.607,0,0,0,62.166,32.154Zm7.594,5.364a5.254,5.254,0,1,1,5.255-5.255A5.26,5.26,0,0,1,69.76,37.518Z" transform="translate(-44.412)"/></g><g transform="translate(68.59 28.129)"><path class="a" d="M356.159,361.329a1.17,1.17,0,0,0-1.17,1.17v2.964a1.17,1.17,0,1,0,2.341,0V362.5A1.17,1.17,0,0,0,356.159,361.329Z" transform="translate(-354.989 -361.329)"/></g><g transform="translate(68.59 34.19)"><path class="a" d="M357.327,440.243a1.09,1.09,0,0,0-.017-.113.927.927,0,0,0-.028-.112c-.011-.036-.024-.073-.038-.108s-.031-.07-.049-.1-.037-.066-.059-.1a1.129,1.129,0,0,0-.324-.323,1.119,1.119,0,0,0-.1-.059,1.024,1.024,0,0,0-.1-.048,1.044,1.044,0,0,0-.108-.039c-.037-.011-.073-.02-.111-.028s-.076-.013-.114-.017a1.133,1.133,0,0,0-.23,0c-.037,0-.076.01-.113.017s-.075.017-.112.028a1.3,1.3,0,0,0-.211.087c-.034.018-.066.038-.1.059a1,1,0,0,0-.092.068c-.03.024-.059.051-.086.077a1.14,1.14,0,0,0-.077.086c-.024.03-.047.06-.069.092s-.041.065-.059.1a1.019,1.019,0,0,0-.048.1,1.108,1.108,0,0,0-.039.108c-.011.037-.02.074-.028.112a1.117,1.117,0,0,0-.023.229,1.145,1.145,0,0,0,.005.115,1.114,1.114,0,0,0,.017.114c.008.037.017.075.028.111a1.038,1.038,0,0,0,.039.108.967.967,0,0,0,.048.1,1.087,1.087,0,0,0,.059.1c.022.032.044.063.069.093a.982.982,0,0,0,.077.085,1,1,0,0,0,.086.077,1.031,1.031,0,0,0,.092.069q.048.032.1.059c.034.018.069.034.1.049s.071.027.108.038a.936.936,0,0,0,.112.028c.037.008.076.013.113.017a1.142,1.142,0,0,0,.115.006,1.13,1.13,0,0,0,.115-.006,1.1,1.1,0,0,0,.114-.017.926.926,0,0,0,.111-.028c.037-.011.073-.024.108-.038s.07-.031.1-.049.067-.037.1-.059a1.15,1.15,0,0,0,.093-.069,1.189,1.189,0,0,0,.162-.162,1.147,1.147,0,0,0,.069-.093,1.131,1.131,0,0,0,.059-.1c.018-.034.034-.068.049-.1s.027-.071.038-.108a.868.868,0,0,0,.028-.111,1.114,1.114,0,0,0,.017-.344Z" transform="translate(-354.993 -439.188)"/></g></g></svg>