<svg xmlns="http://www.w3.org/2000/svg" width="17.578" height="20" viewBox="0 0 17.578 20"><defs><style>.a{fill:#da1e37;}</style></defs><g transform="translate(-1185 -290)"><path class="a" d="M46.82,2.344h-2.93V1.758A1.76,1.76,0,0,0,42.133,0H37.445a1.76,1.76,0,0,0-1.758,1.758v.586h-2.93a1.758,1.758,0,0,0-.547,3.428l1.045,12.616A1.768,1.768,0,0,0,35.008,20H44.57a1.768,1.768,0,0,0,1.752-1.612L47.367,5.772a1.758,1.758,0,0,0-.547-3.428Zm-9.961-.586a.587.587,0,0,1,.586-.586h4.688a.587.587,0,0,1,.586.586v.586H36.859Zm8.295,16.533a.589.589,0,0,1-.584.537H35.008a.589.589,0,0,1-.584-.537L33.394,5.859h12.79Zm1.666-13.6H32.758a.586.586,0,1,1,0-1.172H46.82a.586.586,0,1,1,0,1.172Z" transform="translate(1154 290)"/><path class="a" d="M152.756,190l-.586-9.453a.586.586,0,0,0-1.17.072l.586,9.453a.586.586,0,1,0,1.17-.073Z" transform="translate(1038.688 117.033)"/><path class="a" d="M241.586,180a.586.586,0,0,0-.586.586v9.453a.586.586,0,1,0,1.172,0v-9.453A.586.586,0,0,0,241.586,180Z" transform="translate(952.203 117.031)"/><path class="a" d="M317.207,180a.586.586,0,0,0-.621.549L316,190a.586.586,0,0,0,1.17.072l.586-9.453A.586.586,0,0,0,317.207,180Z" transform="translate(880.134 117.032)"/></g></svg>