<svg xmlns="http://www.w3.org/2000/svg" width="17.227" height="17.227" viewBox="0 0 17.227 17.227"><defs><style>.a{fill:#fff;}</style></defs><g transform="translate(0 0.001)"><path class="a" d="M60.081.555a.556.556,0,0,0-.652-.547,8.634,8.634,0,0,0-3.682,1.6.555.555,0,0,0-.058.837l2.865,2.865a.555.555,0,0,0,.662.093,3.572,3.572,0,0,1,.5-.23.555.555,0,0,0,.363-.521Z" transform="translate(-52.282 0)"/><path class="a" d="M163.493,4.657a.555.555,0,0,0,.364.521,3.6,3.6,0,0,1,2.133,2.133.555.555,0,0,0,.521.363h4.1a.555.555,0,0,0,.546-.653A8.684,8.684,0,0,0,164.146.009a.556.556,0,0,0-.653.546Z" transform="translate(-153.94 -0.001)"/><path class="a" d="M12.57,67.423a.555.555,0,0,0-.521.364,3.594,3.594,0,1,1-6.739-2.5.556.556,0,0,0-.127-.588L2.241,61.757a.556.556,0,0,0-.859.091,8.677,8.677,0,1,0,15.837,6.227.556.556,0,0,0-.546-.653h-4.1Z" transform="translate(0 -57.997)"/></g></svg>