<svg xmlns="http://www.w3.org/2000/svg" width="24.943" height="24.943" viewBox="0 0 24.943 24.943"><defs><style>.a{fill:#2b3a67;}</style></defs><g transform="translate(0 0)"><path class="a" d="M12.472,24.943A12.472,12.472,0,0,1,3.653,3.653,12.472,12.472,0,0,1,21.291,21.291a12.39,12.39,0,0,1-8.819,3.653Zm0-23.384A10.913,10.913,0,1,0,23.384,12.472,10.925,10.925,0,0,0,12.472,1.559Z"/><path class="a" d="M187.508,103.015a1.949,1.949,0,1,1,1.949-1.949.779.779,0,0,0,1.559,0,3.513,3.513,0,0,0-2.728-3.419v-.868a.779.779,0,1,0-1.559,0v.868a3.507,3.507,0,0,0,.779,6.927,1.949,1.949,0,1,1-1.949,1.949.779.779,0,1,0-1.559,0,3.513,3.513,0,0,0,2.728,3.419v.868a.779.779,0,1,0,1.559,0v-.868a3.507,3.507,0,0,0-.779-6.927Z" transform="translate(-175.036 -91.323)"/></g></svg>