<svg xmlns="http://www.w3.org/2000/svg" width="22.473" height="28.091" viewBox="0 0 22.473 28.091"><defs><style>.a{fill:#20ac86;}</style></defs><g transform="translate(-48)"><g transform="translate(50.896)"><g transform="translate(0)"><path class="a" d="M113.929,12.564l-1.234-1.4a.938.938,0,0,0-1.32-.086l-3.68,3.225V.936A.937.937,0,0,0,106.758,0h-1.873a.937.937,0,0,0-.936.936V14.3l-3.68-3.225a.938.938,0,0,0-1.32.086l-1.234,1.4a.937.937,0,0,0,.086,1.324l7.4,6.481a.937.937,0,0,0,1.234,0l7.4-6.481A.935.935,0,0,0,113.929,12.564Z" transform="translate(-97.482)"/></g></g><g transform="translate(48 24.345)"><path class="a" d="M69.536,416h-20.6a.937.937,0,0,0-.936.936v1.873a.937.937,0,0,0,.936.936h20.6a.937.937,0,0,0,.936-.936v-1.873A.937.937,0,0,0,69.536,416Z" transform="translate(-48 -416)"/></g></g></svg>