<svg xmlns="http://www.w3.org/2000/svg" width="15" height="20" viewBox="0 0 15 20"><defs><style>.a{fill:#2b3a67;}</style></defs><g transform="translate(-68.891)"><path class="a" d="M83.266,172.228H81.391v1.25h1.25v11.25h-12.5v-11.25h1.25v-1.25H69.516a.625.625,0,0,0-.625.625v12.5a.625.625,0,0,0,.625.625h13.75a.625.625,0,0,0,.625-.625v-12.5a.625.625,0,0,0-.625-.625Z" transform="translate(0 -165.978)"/><path class="a" d="M163.618,2.393V11.25h1.25V2.393l2.683,2.683.884-.884L164.243,0l-4.192,4.192.884.884Z" transform="translate(-87.852)"/></g></svg>