<svg xmlns="http://www.w3.org/2000/svg" width="38" height="38" viewBox="0 0 38 38"><defs><style>.a{fill:#e277a6;}.b{fill:#fff;}</style></defs><g transform="translate(-853 -689)"><rect class="a" width="38" height="38" rx="10" transform="translate(853 689)"/><g transform="translate(809.541 697)"><path class="b" d="M135.268,0l.667,2-.667,2a8.19,8.19,0,0,0-3.427.691L129.93,2.752l-.212-1.373A12.419,12.419,0,0,1,135.268,0Z" transform="translate(-72.866)"/><path class="b" d="M254.326,0V4.005a8.191,8.191,0,0,1,3.427.691l1.918-1.359.205-1.957A12.427,12.427,0,0,0,254.326,0Z" transform="translate(-191.93)"/><path class="b" d="M259.876,31.009l-5.55,8.671L255,42.339l1.7,1.055,6.566-10.258C260.789,31.56,260.59,31.39,259.876,31.009Z" transform="translate(-191.93 -29.629)"/><path class="b" d="M104.449,316.082l4.3-6.714,1.4.488.979,3.226-3.3,5.159Z" transform="translate(-48.721 -295.604)"/><path class="b" d="M56.852,31.009,62.4,39.68l.667,3.3-.667,4.13L53.459,33.135C55.939,31.56,56.139,31.39,56.852,31.009Z" transform="translate(0 -29.629)"/><path class="b" d="M261,236.326,254.326,225.9v7.427l3.3,5.159Z" transform="translate(-191.93 -215.848)"/></g></g></svg>