<svg xmlns="http://www.w3.org/2000/svg" width="26.023" height="33.343" viewBox="0 0 26.023 33.343"><defs><style>.a{fill:#4f4d4e;stroke:#fff;stroke-width:0.4px;}</style></defs><g transform="translate(-340.8 -370.857)"><path class="a" d="M20.575,144.943H37.047a4.581,4.581,0,0,0,4.575-4.575V120.236a.915.915,0,0,0-.268-.647l-7.321-7.321a.915.915,0,0,0-.647-.268H20.575A4.581,4.581,0,0,0,16,116.575v23.792A4.581,4.581,0,0,0,20.575,144.943ZM34.3,115.124l4.2,4.2H37.047a2.748,2.748,0,0,1-2.745-2.745ZM17.83,116.575a2.748,2.748,0,0,1,2.745-2.745h11.9v2.745a4.581,4.581,0,0,0,4.575,4.575h2.745v19.217a2.748,2.748,0,0,1-2.745,2.745H20.575a2.748,2.748,0,0,1-2.745-2.745Z" transform="translate(325 259.057)"/><path class="a" d="M112.915,225.83h7.321a.915.915,0,1,0,0-1.83h-7.321a.915.915,0,1,0,0,1.83Z" transform="translate(239.981 159.868)"/><path class="a" d="M64.915,273.83h7.321a.915.915,0,1,0,0-1.83H64.915a.915.915,0,0,0,0,1.83Z" transform="translate(282.49 117.358)"/><path class="a" d="M134.406,320h-5.491a.915.915,0,1,0,0,1.83h5.491a.915.915,0,0,0,0-1.83Z" transform="translate(225.812 74.849)"/><path class="a" d="M64.915,225.83h1.83a.915.915,0,0,0,0-1.83h-1.83a.915.915,0,0,0,0,1.83Z" transform="translate(282.49 159.868)"/><path class="a" d="M162.745,272h-1.83a.915.915,0,0,0,0,1.83h1.83a.915.915,0,0,0,0-1.83Z" transform="translate(197.472 117.358)"/><path class="a" d="M64.915,321.83h3.66a.915.915,0,1,0,0-1.83h-3.66a.915.915,0,1,0,0,1.83Z" transform="translate(282.49 74.849)"/><path class="a" d="M64.915,177.83h3.66a.915.915,0,0,0,0-1.83h-3.66a.915.915,0,0,0,0,1.83Z" transform="translate(282.49 202.377)"/></g></svg>