<svg xmlns="http://www.w3.org/2000/svg" width="37.5" height="36.25" viewBox="0 0 37.5 36.25"><defs><style>.a{fill:#4f4d4e;}</style></defs><g transform="translate(-16 -24)"><path class="a" d="M19.125,134.5h11.25a3.129,3.129,0,0,0,3.125-3.125v-13.75a.625.625,0,0,0-.183-.442l-5-5a.625.625,0,0,0-.442-.183h-8.75A3.129,3.129,0,0,0,16,115.125v16.25A3.129,3.129,0,0,0,19.125,134.5ZM28.5,114.134,31.366,117h-.991a1.877,1.877,0,0,1-1.875-1.875Zm-11.25.991a1.877,1.877,0,0,1,1.875-1.875H27.25v1.875a3.129,3.129,0,0,0,3.125,3.125H32.25v13.125a1.877,1.877,0,0,1-1.875,1.875H19.125a1.877,1.877,0,0,1-1.875-1.875Z" transform="translate(0 -81.125)"/><path class="a" d="M284.317,112.183a.625.625,0,0,0-.442-.183h-8.75A3.128,3.128,0,0,0,272,115.125v16.25a3.129,3.129,0,0,0,3.125,3.125h11.25a3.129,3.129,0,0,0,3.125-3.125v-13.75a.625.625,0,0,0-.183-.442Zm.183,1.951L287.366,117h-.991a1.877,1.877,0,0,1-1.875-1.875Zm3.75,17.241a1.877,1.877,0,0,1-1.875,1.875h-11.25a1.877,1.877,0,0,1-1.875-1.875v-16.25a1.877,1.877,0,0,1,1.875-1.875h8.125v1.875a3.128,3.128,0,0,0,3.125,3.125h1.875Z" transform="translate(-236 -81.125)"/><path class="a" d="M143.625,27.75a.625.625,0,0,0,.625.625h3.125A.625.625,0,0,0,148,27.75V24.625a.625.625,0,0,0-1.25,0v1.217a7.974,7.974,0,0,0-1.923-.894,25.071,25.071,0,0,0-13.654,0c-2.623.874-3.173,2.007-3.173,2.8a.625.625,0,0,0,1.25,0c0-1.019,3.409-2.5,8.75-2.5,4.315,0,7.368.966,8.382,1.875H144.25A.625.625,0,0,0,143.625,27.75Z" transform="translate(-103.25)"/><path class="a" d="M147.375,432a.625.625,0,0,0-.625.625c0,1.019-3.409,2.5-8.75,2.5-4.315,0-7.368-.966-8.382-1.875h2.132a.625.625,0,0,0,0-1.25h-3.125a.625.625,0,0,0-.625.625v3.125a.625.625,0,0,0,1.25,0v-1.217a7.974,7.974,0,0,0,1.923.894,25.071,25.071,0,0,0,13.654,0c2.623-.874,3.173-2.007,3.173-2.8A.625.625,0,0,0,147.375,432Z" transform="translate(-103.25 -376.125)"/><path class="a" d="M112.625,225.25h5a.625.625,0,0,0,0-1.25h-5a.625.625,0,0,0,0,1.25Z" transform="translate(-88.5 -184.375)"/><path class="a" d="M64.625,273.25h5a.625.625,0,0,0,0-1.25h-5a.625.625,0,0,0,0,1.25Z" transform="translate(-44.25 -228.625)"/><path class="a" d="M132.375,320h-3.75a.625.625,0,0,0,0,1.25h3.75a.625.625,0,0,0,0-1.25Z" transform="translate(-103.25 -272.875)"/><path class="a" d="M64.625,225.25h1.25a.625.625,0,0,0,0-1.25h-1.25a.625.625,0,0,0,0,1.25Z" transform="translate(-44.25 -184.375)"/><path class="a" d="M161.875,272h-1.25a.625.625,0,0,0,0,1.25h1.25a.625.625,0,0,0,0-1.25Z" transform="translate(-132.75 -228.625)"/><path class="a" d="M64.625,321.25h2.5a.625.625,0,0,0,0-1.25h-2.5a.625.625,0,0,0,0,1.25Z" transform="translate(-44.25 -272.875)"/><path class="a" d="M64.625,177.25h2.5a.625.625,0,0,0,0-1.25h-2.5a.625.625,0,0,0,0,1.25Z" transform="translate(-44.25 -140.125)"/></g></svg>