<svg xmlns="http://www.w3.org/2000/svg" xmlns:xlink="http://www.w3.org/1999/xlink" width="233.59" height="174" viewBox="0 0 233.59 174"><defs><style>.a{fill:#f3f3f3;}.b,.g{fill:#fff;}.b{opacity:0.9;}.c{fill:#ffc4bd;}.d{fill:#28264a;}.e{fill:#a4b7fc;}.f{fill:#4ba2e6;}.h{fill:url(#a);}.i{fill:#4166f8;}.j{fill:#8ba2fc;}.k{fill:#d89e9a;}.l{fill:url(#b);}.m{fill:url(#c);}</style><linearGradient id="a" x1="0.534" y1="0.008" x2="0.463" y2="1.217" gradientUnits="objectBoundingBox"><stop offset="0" stop-color="#4166f8"/><stop offset="1" stop-color="#8ba2fc"/></linearGradient><linearGradient id="b" x1="0.537" y1="0.067" x2="0.453" y2="1.209" xlink:href="#a"/><linearGradient id="c" x1="54.946" y1="0.5" x2="55.946" y2="0.5" xlink:href="#a"/></defs><g transform="translate(-1676.037 -1097.667)"><g transform="translate(1676.037 1145.229)"><path class="a" d="M1676.385,1277.84a17.082,17.082,0,0,1,1.883-4.85,15.65,15.65,0,0,1,12.935-6.823,3.964,3.964,0,0,0,3.964-3.964v-8.685a3.964,3.964,0,0,0-3.964-3.965,3.964,3.964,0,0,1-3.964-3.964,18.69,18.69,0,0,1,18.69-18.69h142.721a14.914,14.914,0,0,1,14.914,14.914,3.964,3.964,0,0,0,3.965,3.964h9.062a16.424,16.424,0,0,1,16.424,16.425,3.964,3.964,0,0,0,3.965,3.964h1.887a10.761,10.761,0,0,1,10.761,10.761v1.132a10.752,10.752,0,0,1-10.56,10.758l-.2,0a3.951,3.951,0,0,0-2.8,1.161,3.945,3.945,0,0,0-1.161,2.8v12.46a3.964,3.964,0,0,0,3.963,3.964,10.762,10.762,0,0,1,10.763,10.76h0a11.893,11.893,0,0,1-11.893,11.893h-30.206a3.964,3.964,0,0,0-3.965,3.964,17.179,17.179,0,0,1-17.179,17.179h-99.291v.33h-30.025a21.826,21.826,0,0,1-21.826-21.826V1316.3q-.075-.8-.075-1.618v-.755a3.957,3.957,0,0,0-3.951-3.964,6.23,6.23,0,0,1-6.243-6.229v-10.949a3.964,3.964,0,0,0-3.965-3.965,3.951,3.951,0,0,1-2.806-1.867A10.558,10.558,0,0,1,1676.385,1277.84Z" transform="translate(-1676.037 -1226.9)"/><path class="b" d="M1913.458,1278.06v-1.133a10.761,10.761,0,0,0-10.761-10.76h-1.887a3.964,3.964,0,0,1-3.966-3.965,16.424,16.424,0,0,0-16.424-16.425h-9.062a3.965,3.965,0,0,1-3.964-3.965,14.914,14.914,0,0,0-14.914-14.914H1709.76a18.69,18.69,0,0,0-18.69,18.69,3.964,3.964,0,0,0,3.964,3.964,3.964,3.964,0,0,1,3.964,3.964v8.685a3.964,3.964,0,0,1-3.964,3.965,15.649,15.649,0,0,0-12.934,6.823l20.465,12.414a54.894,54.894,0,0,0,57.94-.623l11.122-7.078a54.893,54.893,0,0,1,66,5.333,54.9,54.9,0,0,0,61.586,7.861q1.873-.962,3.689-2.078.857-.526,1.7-1.088l7.93-5.286A10.727,10.727,0,0,0,1913.458,1278.06Z" transform="translate(-1679.868 -1226.899)"/></g><g transform="translate(1733.469 1097.667)"><g transform="translate(0.453 138.528)"><path class="c" d="M1868.38,1474.923s-1.3,10.591-1.3,13.151-.826,12.794-.826,12.794-2.251,2.631-2.628,0,.24-10.084,0-13.432c-.24-3.383-2.4-13.366-2.4-13.366Z" transform="translate(-1850.951 -1474.07)"/><path class="c" d="M1846.08,1476.12s-.527,9.454-1.053,10.8-5.323,12.321-5.323,12.321-2.037,2.109-2.414.545,3.308-11.585,3.308-13.293-.977-11.658-.977-11.658Z" transform="translate(-1835.811 -1474.556)"/><path class="d" d="M1837.488,1537.919l-2.384-1.486a6.384,6.384,0,0,0-1.754,1.209c-.3.4,1.62,3.06,2.6,4.462.407.58,3.7.316,3.7.316s.1.08.587-.443-2.151-.855-2.444-2.3C1837.6,1538.766,1837.488,1537.919,1837.488,1537.919Z" transform="translate(-1833.319 -1513.481)"/><path class="d" d="M1869.332,1544.194l-2.808.467s-.61,1.317-.36,1.9c.177.418,3.712.942,5.752,1.212a3.979,3.979,0,0,0,1.974-.534s.147-.012-.027-.62-1.814-1.274-3.021-1.422A1.745,1.745,0,0,1,1869.332,1544.194Z" transform="translate(-1854.038 -1518.386)"/></g><g transform="translate(6.515 84.448)"><path class="c" d="M1909.232,1327.125c-2.161.762-2.445,2.2-2.445,2.2s-.61-1.518-1.056-1.457c-.524.074-.313.858.217,2.109.068.164-.677,2.534-.638,2.562.718.5,1.723.108,2.3.841.7-1.168-.164-1.955,2.1-2.929a1.476,1.476,0,0,0,.925-1.933A2.4,2.4,0,0,0,1909.232,1327.125Z" transform="translate(-1884.876 -1327.125)"/><path class="e" d="M1870.223,1340.087s3.224-.958,2.544,1.656-4.1,9.773-4.1,9.773-12.082,9.012-16.354,6.626c-5.54-3.1-.84-6.62,3.309-7.088s9.268-.861,11.18-3.8A40.694,40.694,0,0,0,1870.223,1340.087Z" transform="translate(-1849.789 -1335.208)"/></g><g transform="translate(4.442 0)"><path class="f" d="M1891.935,1097.667c-16.964,19.528-35.884,20.008-36.7,20.025h-8.2a2.722,2.722,0,0,0-2.719,2.718v3.01c-.775,17.925,1.292,33.658,6.32,48.15,4.466,12.865,10.943,22.745,19.816,30.2a54.641,54.641,0,0,0,21.017,10.966,2.138,2.138,0,0,0,.467.076,2.2,2.2,0,0,0,.459-.071,54.7,54.7,0,0,0,21.03-10.968c8.868-7.459,15.347-17.339,19.814-30.2,5.028-14.492,7.095-30.225,6.322-48.089l0-3.071a2.721,2.721,0,0,0-2.718-2.718h-8.182C1927.821,1117.676,1908.9,1117.2,1891.935,1097.667Z" transform="translate(-1844.157 -1097.667)"/><path class="g" d="M1955.529,1195.011c-.015-2.987-1.626-4.794-4.553-5.1-2.633-.266-2.909-2.054-2.888-3.379.044-2.348.044-4.88,0-7.76a12.652,12.652,0,0,0-12.806-12.677c-3.682-.02-7.378-.013-11.058.055a12.361,12.361,0,0,0-12.31,10.627,45.225,45.225,0,0,0-.3,7.167c.008.969.013,1.936,0,2.909a2.765,2.765,0,0,1-2.638,3.1c-3.343.38-4.778,2.023-4.788,5.487q-.029,13.253,0,26.509c.016,3.855,1.847,5.66,5.771,5.66l7.974.005h13.353v.048l10.818.015c2.7,0,5.419-.006,8.13-.023,3.348-.011,5.268-1.955,5.284-5.318C1955.565,1213.168,1955.565,1203.976,1955.529,1195.011Zm-20.03,8.9a5.09,5.09,0,0,1-1.949,3.538,5.485,5.485,0,0,0-2.161,5c.058,1.158.04,2.354.029,3.507-.007.52-.007,1.042-.007,1.569a15.21,15.21,0,0,1-.044,1.536c-.337.052-.982.074-1.612.1-.479.023-.885.037-1.216.037-.135,0-.241,0-.318-.007-.036-.359-.036-.969-.036-1.571l-.016-.971c0-.759,0-1.52.016-2.27.063-2.29.141-5.124-2.743-7.6a4.166,4.166,0,0,1-1.451-3.237,6,6,0,0,1,2.077-4.491,5.6,5.6,0,0,1,7.966.535A5.839,5.839,0,0,1,1935.5,1203.912Zm3.377-16.833c-1.3-.03-2.609-.036-3.921-.036l-5.13.013-1.315.069-3.935-.011c-1.273,0-2.556.005-3.908.039-.1,0-.165,0-.229,0-.007-.092-.016-.219-.016-.386.036-1.291.028-2.565.016-3.841-.007-1.317-.016-2.643.026-3.963a3.806,3.806,0,0,1,3.829-3.937c3.71-.091,7.469-.063,11.2.1a3.678,3.678,0,0,1,3.626,3.724c.056,1.458.042,2.962.035,4.412-.008,1.192-.023,2.379.007,3.567v.246c-.07,0-.155.01-.266.01Z" transform="translate(-1882.089 -1140.907)"/></g><g transform="translate(62.962 79.384)"><g transform="translate(0 15.297)"><path class="c" d="M2027.3,1372.657s-7.839,5.282-10.186,6.705c-3.068,1.858-8.412,2.61-8.9,2.2-1.187-1-1.971-1.5-2.229-.95-.217.466,1.234,1.646,1.234,1.646a8.21,8.21,0,0,0-4.054,2.757,2.744,2.744,0,0,0,1.038,2.006c.533.394,1.305.438,2.424-.354,4.039-2.868,7.4-2.2,11.11-3.526,2.465-.878,11.4-6.585,11.4-6.585Z" transform="translate(-2003.165 -1366.133)"/><path class="h" d="M2061.675,1354.945s-5.313,6.986-6.326,8.733c-.9,1.543.266,4.134,1.783,5.076,1.2.739,6.632-4.03,6.632-4.03s3.416-1.607,1.8-5.695C2063.764,1354.472,2061.675,1354.945,2061.675,1354.945Z" transform="translate(-2035.945 -1354.931)"/></g><g transform="translate(17.442)"><path class="c" d="M2113.8,1531.883c.447.526.89,1.055,1.338,1.583a1.914,1.914,0,0,0,1.357.836,2.219,2.219,0,0,1,.527.024c.37.112.364.5.287.8a6.821,6.821,0,0,1-2.294,4.2,1.264,1.264,0,0,1-.927.305c-.347-.057-.521-.484-.19-.586a.391.391,0,0,0-.391.045c-.36-.168-.33-.569-.22-.875.227-.566.607-1.087.84-1.648a1.706,1.706,0,0,0-.083-1.717,8.171,8.171,0,0,0-1.3-1.031c-.413-.353-.68-.919-.293-1.295a2.194,2.194,0,0,1,1.724-.243" transform="translate(-2089.555 -1451.462)"/><path class="d" d="M2112.547,1538.416l1.3-1.515s2.294.663,2.695,1.233c.283.4-1.564,3.121-2.511,4.551-.391.59-3.572.322-3.572.322s-.1.081-.563-.453,2.071-.871,2.358-2.342C2112.431,1539.28,2112.547,1538.416,2112.547,1538.416Z" transform="translate(-2088.021 -1454.634)"/><path class="c" d="M2063.535,1536.433v1.882a1.274,1.274,0,0,0,.55,1.26,1.673,1.673,0,0,1,.433.232c.23.246-.056.574-.33.795a10.52,10.52,0,0,1-4.912,2.6,1.389,1.389,0,0,1-1-.124.324.324,0,0,1,.263-.57.361.361,0,0,0-.363-.124c-.187-.284.12-.613.44-.825.58-.387,1.277-.669,1.867-1.046a2.145,2.145,0,0,0,1.147-1.481,5.606,5.606,0,0,0-.357-1.4.983.983,0,0,1,.664-1.211,2.045,2.045,0,0,1,1.624.5" transform="translate(-2055.336 -1454.305)"/><path class="d" d="M2068.5,1452.611c.437,1.677.654,3.383,1.09,5.057,1,3.816,3.125,7.39,5.239,10.924a12.216,12.216,0,0,0,3.418,4.124c.614.42,1.595.754,2.194.321a1.045,1.045,0,0,0,.351-1.031c-.2-1.562-1.641-2.829-2.491-4.252-1.164-1.93-1.22-4.131-1.283-6.262-.167-5.8,1.187-11.256.7-17.043-.146-1.766.67-5.171-.373-6.743s-2.231-1.948-4.5-1.738a73.013,73.013,0,0,0-7.3,1.413,8.991,8.991,0,0,1-5.946.166,92.625,92.625,0,0,0-.218,18.315c.144,1.418.294,2.832.437,4.251q.62,6.03,1.24,12.062c.106,1.04.574,2.368,1.917,2.421,1.25.046,1.931-1.113,2.167-2.068,1.011-4.084.273-8.283-.057-12.431s.081-6.038,2.385-12.163Z" transform="translate(-2055.909 -1390.814)"/><path class="d" d="M2060.5,1543.226l2.734-.307s.944,1.123.881,1.764c-.043.455-3.168,1.929-4.979,2.751a3.7,3.7,0,0,1-1.98.013s-.144.03-.154-.613,1.314-1.743,2.388-2.212A1.7,1.7,0,0,0,2060.5,1543.226Z" transform="translate(-2054.631 -1458.437)"/><path class="g" d="M2073.914,1356.939l-1.524-2.1s-5.315-3.456-9.471-.1a9.178,9.178,0,0,0-3.428,8.071l-3.264,24.044s12.9,4.279,16.017-1.3.073-15.8.073-15.8Z" transform="translate(-2054.14 -1338.586)"/><path class="i" d="M2090.283,1354.094s-5.031,19.7-.512,34.81l8.894-2.319-2.317-21.387S2099.24,1353.215,2090.283,1354.094Z" transform="translate(-2074.148 -1339.076)"/><path class="i" d="M2059.854,1355.1s-6.51,26.34-5.931,32.719c0,0-2.077,5.627-3.164,1.135s2.584-21.251,2.584-21.251A14.706,14.706,0,0,1,2059.854,1355.1Z" transform="translate(-2050.557 -1339.742)"/><g transform="translate(3.162)"><path class="j" d="M2078.34,1354.756c0,.908,1.136,1.644,2.539,1.644s2.54-.736,2.54-1.644-1.137-1.644-2.54-1.644S2078.34,1353.848,2078.34,1354.756Z" transform="translate(-2071.277 -1338.484)"/><path class="k" d="M2070.963,1339.841s-1.693,1.693-1.042,1.986.781-.163.781-.163Z" transform="translate(-2065.863 -1330.098)"/><path class="d" d="M2069.7,1326.016s.981,2.926,2.572,1.186,4.689-5.073,2.611-6.91-1.327-2.173-3.731-4.059-1.581-4.3-5.016-1.788-5.358,3.432-5.215,1.741-2.078-.629-1.741,1.836,5.509,5.268,5.509,5.268Z" transform="translate(-2059.149 -1313.367)"/><path class="c" d="M2077.9,1340.691s1.734,3.333-1.457,3.561c-1.194.085-2.238-.59-2.275-2.33-4.14.767-3.163-3.433-3.163-3.433s.442-3.995,3.343-3.343,2.188,1.124,2.1,1.812c-.027.218.437,1.2.87-.109s1.158.037.907,1.558S2077.9,1340.691,2077.9,1340.691Z" transform="translate(-2066.575 -1327.085)"/><path class="k" d="M2079.765,1352.595s2.014-.047,2.47-.633c0,0-1.6,2.181-2.019,2.149C2080.216,1354.111,2079.737,1353.847,2079.765,1352.595Z" transform="translate(-2072.177 -1337.758)"/></g></g><g transform="translate(15.746 14.986)"><path class="c" d="M2063.691,1379.975s-5.285,7.836-6.927,10.036c-2.147,2.873-6.819,5.573-7.427,5.377-1.476-.484-2.39-.65-2.423-.045-.026.514,1.761,1.064,1.761,1.064a8.209,8.209,0,0,0-2.725,4.076,2.743,2.743,0,0,0,1.715,1.471c.643.166,1.374-.083,2.114-1.237,2.668-4.173,6.036-4.818,8.977-7.436,1.956-1.739,8.1-10.378,8.1-10.378Z" transform="translate(-2045.949 -1370.447)"/><path class="l" d="M2092.875,1354.289s-2.307,8.469-2.59,10.468c-.255,1.767,1.8,3.733,3.556,4.037,1.385.237,4.637-6.223,4.637-6.223s2.563-2.771-.467-5.954C2094.634,1353.068,2092.875,1354.289,2092.875,1354.289Z" transform="translate(-2073.955 -1354.086)"/></g></g><path class="d" d="M1848.1,1332.925s-4.285-.581-4.942,6.175-1.513,9.289-1.513,9.289,11.533,4.37,13.025,1.433c1.028-2.024-2.835-5.852-2.758-8.65S1854.35,1332.853,1848.1,1332.925Z" transform="translate(-1838.126 -1246.335)"/><path class="c" d="M1851.878,1370.082s1.891-.872,1.891-1.452v-2.906h3.125s-.3,3.124,1.194,3.923.914,5.957.914,5.957h-7.123Z" transform="translate(-1844.595 -1267.07)"/><path class="m" d="M1840.369,1371.682c.5-.173,4.249.635,4.809.7,1.563.2,5.2,6.485,5.789,9.383.336,1.643-2.852,4.7-1.815,6.808.791,1.6,2.732,3.97,2.628,6.886-.14,3.974-3.142,7.524-.117,11.287,3.792,4.72,2.368,7.013-9,5.969s-11.945-.01-9.194-7.013C1839.371,1390.666,1833.375,1374.086,1840.369,1371.682Z" transform="translate(-1832.088 -1270.821)"/><g transform="translate(6.38 89.461)"><path class="c" d="M1857.923,1346.123c0,.6.487,1.386.344,1.927-.034.116-.631.022-.667.133-.2.6-.11,1.774-.454,2.241-.777,1.05-2.248,1.076-3.471,1.076-2.351,0-4.252-2.409-4.252-5.378s1.9-5.377,4.252-5.377S1857.923,1343.154,1857.923,1346.123Z" transform="translate(-1849.423 -1340.746)"/><path class="k" d="M1862.088,1369.434l-1.954-.13,2.28,1.5Z" transform="translate(-1856.192 -1358.793)"/></g><path class="d" d="M1844.247,1337.911s.154.14.431.356a14.544,14.544,0,0,0-1.788,3.609c-1.159,1.479-1.58,2.9-2.685,6.175-1.483,4.39.706,5.119,1.412,5.589s6.3-1.53,4.883-2.883c-.524-.5-.155-2.438-.159-4.471,1.3-1.839.6-4.433,1.584-5.923.052-.078.09-.145.13-.214a8.015,8.015,0,0,0,4.19.426S1851.932,1332.941,1844.247,1337.911Z" transform="translate(-1836.899 -1248.431)"/><g transform="translate(6.638 92.156)"><path class="c" d="M1917.131,1348.07c-2.267.335-2.82,1.687-2.82,1.687s-.308-1.606-.757-1.632c-.529-.028-.472.782-.191,2.112.035.174-1.149,2.358-1.116,2.393.608.633,1.67.435,2.1,1.266.91-1.013.213-1.95,2.625-2.473a1.476,1.476,0,0,0,1.277-1.721A2.4,2.4,0,0,0,1917.131,1348.07Z" transform="translate(-1889.383 -1348.07)"/><path class="e" d="M1873.089,1359.018s3.347-.323,2.18,2.111-5.89,8.809-5.89,8.809-13.583,6.535-17.321,3.376c-4.845-4.1.441-6.659,4.6-6.325s9.262.927,11.7-1.594A40.7,40.7,0,0,0,1873.089,1359.018Z" transform="translate(-1850.124 -1354.98)"/></g></g></g></svg>