<svg xmlns="http://www.w3.org/2000/svg" width="25.566" height="33.375" viewBox="0 0 25.566 33.375"><defs><style>.a{fill:#4f4d4e;stroke:#fff;stroke-width:0.6px;}</style></defs><g transform="translate(-60.7 0.3)"><path class="a" d="M85.684,6.683l-6.4-6.4A.96.96,0,0,0,78.6,0H64.521A3.525,3.525,0,0,0,61,3.521V29.255a3.525,3.525,0,0,0,3.521,3.521H82.445a3.525,3.525,0,0,0,3.521-3.521V7.362A.96.96,0,0,0,85.684,6.683Zm-6.12-3.4L82.687,6.4H79.564Zm2.881,27.577H64.521a1.6,1.6,0,0,1-1.6-1.6V3.521a1.6,1.6,0,0,1,1.6-1.6H77.644V7.362a.96.96,0,0,0,.96.96h5.441V29.255A1.6,1.6,0,0,1,82.445,30.855Z" transform="translate(0)"/><path class="a" d="M154.763,164.561a3.166,3.166,0,0,1-2.847-1.759l-.135-.27a.96.96,0,0,0-.859-.531H145.8a.96.96,0,0,0-.859.531l-.135.27a3.165,3.165,0,0,1-2.847,1.76.96.96,0,0,0-.96.96V171a9.943,9.943,0,0,0,7.086,9.523.96.96,0,0,0,.552,0A9.943,9.943,0,0,0,155.723,171v-5.479A.96.96,0,0,0,154.763,164.561ZM153.8,171a7.97,7.97,0,0,1-5.441,7.6,7.97,7.97,0,0,1-5.441-7.6v-4.609a5.066,5.066,0,0,0,3.465-2.471h3.953a5.066,5.066,0,0,0,3.465,2.471Z" transform="translate(-74.879 -151.63)"/><path class="a" d="M204.287,264l-2.942,2.942-1.132-1.132a.96.96,0,1,0-1.358,1.358l1.811,1.811a.96.96,0,0,0,1.358,0l3.621-3.621A.96.96,0,1,0,204.287,264Z" transform="translate(-128.767 -246.834)"/></g></svg>