<svg xmlns="http://www.w3.org/2000/svg" width="38" height="38" viewBox="0 0 38 38"><defs><style>.a{fill:#e277a6;}.b{fill:#fff;}</style></defs><g transform="translate(-853 -747)"><rect class="a" width="38" height="38" rx="10" transform="translate(853 747)"/><g transform="translate(861 730.994)"><path class="b" d="M11.126,26.853A6.528,6.528,0,0,0,1.088,35.095h4.8l.854-1.423a.652.652,0,0,1,1.11-.015l1.8,2.83,2.625-5.542a.653.653,0,0,1,1.164-.03l2.25,4.179h5.474c4.055-6.338-3.959-13.558-10.038-8.241Z" transform="translate(0 0)"/><path class="b" d="M61.352,204.649l-1.823-3.386-2.579,5.444a.653.653,0,0,1-1.14.071l-1.868-2.936-.5.834a.652.652,0,0,1-.559.317H48.746c.13.136-.561-.554,8.546,8.507a.652.652,0,0,0,.92,0c8.968-8.921,8.417-8.371,8.546-8.507H61.927A.652.652,0,0,1,61.352,204.649Z" transform="translate(-46.626 -168.593)"/></g></g></svg>