<svg xmlns="http://www.w3.org/2000/svg" width="48" height="48" viewBox="0 0 48 48"><defs><style>.a{fill:#8777e2;}.b{fill:#fff;}</style></defs><g transform="translate(-460 -328)"><rect class="a" width="48" height="48" rx="15" transform="translate(460 328)"/><g transform="translate(469.743 338.121)"><g transform="translate(3.255 3.872)"><g transform="translate(0)"><path class="b" d="M69.261,86.011a10.709,10.709,0,1,0-15.463,0L51.016,89.72a.973.973,0,1,0,1.558,1.168l2.7-3.6a10.63,10.63,0,0,0,12.519,0l2.7,3.6a.973.973,0,1,0,1.558-1.168ZM62.5,78.622a.974.974,0,0,1-.195.584L59.388,83.1a.973.973,0,0,1-1.558-1.168L60.556,78.3V72.781a.974.974,0,0,1,1.947,0v5.841Z" transform="translate(-50.821 -67.893)"/></g></g><g transform="translate(0.378 0.042)"><g transform="translate(0)"><path class="b" d="M8.644,2.129A4.868,4.868,0,0,0,1.76,9.011a.973.973,0,0,0,1.377,0L8.644,3.505A.973.973,0,0,0,8.644,2.129Z" transform="translate(-0.378 -0.746)"/></g></g><g transform="translate(18.999 -0.001)"><g transform="translate(0 0)"><path class="b" d="M334,1.424a4.867,4.867,0,0,0-6.883,0,.973.973,0,0,0,0,1.377l5.506,5.506a.973.973,0,0,0,1.376,0A4.867,4.867,0,0,0,334,1.424Z" transform="translate(-326.828 0.001)"/></g></g></g></g></svg>