<svg xmlns="http://www.w3.org/2000/svg" width="38" height="38" viewBox="0 0 38 38"><defs><style>.a{fill:#e277a6;}.b{fill:#fff;}</style></defs><g transform="translate(-853 -863)"><rect class="a" width="38" height="38" rx="10" transform="translate(853 863)"/><g transform="translate(813.371 869)"><path class="b" d="M288.246,443.766a.426.426,0,0,0,.425.425h9.29a.426.426,0,0,0,.425-.425v-3.32h-10.14Z" transform="translate(-234.617 -417.392)"/><path class="b" d="M295.4,105.032a.785.785,0,0,1-.323-.635v-1.633h-3.521V104.4a.785.785,0,0,1-.323.635,7.282,7.282,0,0,0-2.987,5.861h10.14a7.282,7.282,0,0,0-2.986-5.861Z" transform="translate(-234.619 -97.386)"/><path class="b" d="M355,.425A.426.426,0,0,0,354.573,0H351.9a.426.426,0,0,0-.425.425V3.809H355Z" transform="translate(-294.539)"/><path class="b" d="M288.246,288.056h10.14v6.406h-10.14Z" transform="translate(-234.617 -272.979)"/></g></g></svg>