<svg xmlns="http://www.w3.org/2000/svg" width="48" height="48" viewBox="0 0 48 48"><defs><style>.a{fill:#8777e2;}.b{fill:#fff;}</style></defs><g transform="translate(-1118 -328)"><rect class="a" width="48" height="48" rx="15" transform="translate(1118 328)"/><g transform="translate(1124 334)"><path class="b" d="M26.118,4H9.882A3.886,3.886,0,0,0,6,7.882V28.353a3.886,3.886,0,0,0,3.882,3.882H26.118A3.886,3.886,0,0,0,30,28.353V7.882A3.886,3.886,0,0,0,26.118,4ZM23.294,28H12.706a1.059,1.059,0,1,1,0-2.118H23.294a1.059,1.059,0,0,1,0,2.118Zm0-5.647H12.706a1.059,1.059,0,0,1,0-2.118H23.294a1.059,1.059,0,0,1,0,2.118Zm0-4.941H12.706a1.059,1.059,0,1,1,0-2.118H23.294a1.059,1.059,0,0,1,0,2.118Zm0-5.647H12.706a1.059,1.059,0,0,1,0-2.118H23.294a1.059,1.059,0,0,1,0,2.118Z" transform="translate(0)"/></g></g></svg>