<svg xmlns="http://www.w3.org/2000/svg" width="48" height="48" viewBox="0 0 48 48"><defs><style>.a{fill:#8777e2;}.b{fill:#fff;}</style></defs><g transform="translate(-789 -328)"><rect class="a" width="48" height="48" rx="15" transform="translate(789 328)"/><g transform="translate(797 336)"><path class="b" d="M15.887,0A15.887,15.887,0,1,0,31.774,15.887,15.888,15.888,0,0,0,15.887,0Zm4.563,22.151a5.11,5.11,0,0,1-2.648,1.7.737.737,0,0,0-.641.843c.02.471,0,.935-.007,1.406a.582.582,0,0,1-.628.654c-.268.007-.536.013-.8.013-.235,0-.471,0-.706-.007a.607.607,0,0,1-.654-.693c-.007-.34-.007-.686-.007-1.026-.007-.758-.033-.785-.758-.9a9.637,9.637,0,0,1-2.694-.771c-.667-.327-.739-.49-.549-1.2.144-.523.288-1.046.451-1.563.118-.379.229-.549.432-.549a1.146,1.146,0,0,1,.471.163,8.722,8.722,0,0,0,2.994.9,4.8,4.8,0,0,0,.53.033,3.533,3.533,0,0,0,1.432-.294,1.523,1.523,0,0,0,.366-2.674,4.774,4.774,0,0,0-1.118-.654,26.172,26.172,0,0,1-3.06-1.373,4.326,4.326,0,0,1-2.445-4.139,4.558,4.558,0,0,1,3.334-4.224c.817-.294.824-.288.824-1.138,0-.288-.007-.575.007-.87.02-.641.124-.752.765-.771h.745c1.216,0,1.216.052,1.223,1.366.007.968.007.968.968,1.118a8.513,8.513,0,0,1,2.118.634.615.615,0,0,1,.4.824c-.17.588-.333,1.183-.516,1.765-.118.353-.229.516-.438.516a1.05,1.05,0,0,1-.445-.137,6.685,6.685,0,0,0-2.962-.68c-.131,0-.268.007-.4.013a2.638,2.638,0,0,0-.9.183,1.27,1.27,0,0,0-.314,2.262,5.919,5.919,0,0,0,1.458.817,26.289,26.289,0,0,1,2.661,1.2A4.784,4.784,0,0,1,20.451,22.151Z"/></g></g></svg>