<svg xmlns="http://www.w3.org/2000/svg" width="48" height="48" viewBox="0 0 48 48"><defs><style>.a{fill:#ba70e0;}.b{fill:#fff;}</style></defs><g transform="translate(-416 -721)"><rect class="a" width="48" height="48" rx="15" transform="translate(416 721)"/><g transform="translate(427.82 733)"><path class="b" d="M8.809,1.967V7.138A1.541,1.541,0,0,1,7.268,8.68H2.038S.18,8.781.18,10.517v2.759s-.062,2.116,1.8,2.116H7.268a1.541,1.541,0,0,1,1.541,1.541v5.152A1.859,1.859,0,0,0,10.667,24h2.876s1.977-.118,1.977-1.8v-5.26A1.542,1.542,0,0,1,17.061,15.4h5.11a1.885,1.885,0,0,0,1.979-1.887v-3a1.87,1.87,0,0,0-1.917-1.828H17.122a1.541,1.541,0,0,1-1.541-1.541V3.47A5.121,5.121,0,0,0,14.969.6,1.672,1.672,0,0,0,13.663,0c-1.618,0-2.938.032-2.938.032A1.9,1.9,0,0,0,8.809,1.967Z"/></g></g></svg>