<svg xmlns="http://www.w3.org/2000/svg" width="38" height="38" viewBox="0 0 38 38"><defs><style>.a{fill:#e277a6;}.b{fill:#fff;}</style></defs><g transform="translate(-853 -631)"><rect class="a" width="38" height="38" rx="10" transform="translate(853 631)"/><g transform="translate(860.994 639.098)"><path class="b" d="M7.742,20.711,20.6,7.858a4.471,4.471,0,1,0-6.324-6.324L1.419,14.388a4.471,4.471,0,1,0,6.323,6.323Zm10.1-15.521a.639.639,0,1,1,0,.9A.639.639,0,0,1,17.843,5.191ZM7.785,17.056a.639.639,0,1,1,0-.9A.639.639,0,0,1,7.785,17.056ZM16.037,3.384a.639.639,0,1,1,0,.9A.639.639,0,0,1,16.037,3.384Zm0,3.613a.639.639,0,1,1,0,.9A.639.639,0,0,1,16.037,7ZM14.23,5.191a.639.639,0,1,1,0,.9A.639.639,0,0,1,14.23,5.191ZM6.882,12.539,12.423,7a.639.639,0,0,1,.9,0L15.133,8.8a.639.639,0,0,1,0,.9L9.592,15.249a.639.639,0,0,1-.9,0L6.882,13.442a.639.639,0,0,1,0-.9ZM5.075,14.345a.639.639,0,1,1,0,.9A.639.639,0,0,1,5.075,14.345Zm0,3.613a.639.639,0,1,1,0,.9A.639.639,0,0,1,5.075,17.959ZM3.268,16.152a.639.639,0,1,1,0,.9A.639.639,0,0,1,3.268,16.152Z" transform="translate(0 -0.218)"/><path class="b" d="M285.936,279.659l-2.362-2.362-6.324,6.323,2.362,2.362a4.471,4.471,0,1,0,6.323-6.323Z" transform="translate(-265.339 -265.488)"/><path class="b" d="M1.442,1.307a4.468,4.468,0,0,0,0,6.324L3.8,10l6.323-6.323L7.765,1.307a4.477,4.477,0,0,0-6.323,0Z" transform="translate(-0.022)"/></g></g></svg>