<svg xmlns="http://www.w3.org/2000/svg" width="48" height="48" viewBox="0 0 48 48"><defs><style>.a{fill:#ba70e0;}.b{fill:#fff;}</style></defs><g transform="translate(-625 -721)"><rect class="a" width="48" height="48" rx="15" transform="translate(625 721)"/><g transform="translate(635.015 728.826)"><path class="b" d="M3.261,31.081c1.934-2.289,5.4-4.034,9.589-4.746A10.36,10.36,0,0,1,14.01,22.7a1.754,1.754,0,0,0-1.143-.1,1.706,1.706,0,0,0-1.123.765.136.136,0,0,1-.248-.052,1.371,1.371,0,0,1,.042-.59,1.537,1.537,0,0,1,1.118-1.1,1.487,1.487,0,0,1,1.01.142,2.989,2.989,0,0,0-1.043-.572,2.662,2.662,0,0,0-2.313.244.132.132,0,0,1-.2-.149,2.163,2.163,0,0,1,.683-1.064,2.408,2.408,0,0,1,2.322-.535,2.359,2.359,0,0,1,.7.371L13.769,20a2.678,2.678,0,0,0-2-1.013.171.171,0,0,1-.1-.3,2.159,2.159,0,0,1,.953-.455,2.4,2.4,0,0,1,2.4.793,2.354,2.354,0,0,1,.428.842,2.345,2.345,0,0,1,.839-.435,2.4,2.4,0,0,1,2.415.758,2.138,2.138,0,0,1,.5.9.18.18,0,0,1-.273.194,2.68,2.68,0,0,0-2.2-.333l-.072.019a2.336,2.336,0,0,1,.785.106,2.407,2.407,0,0,1,1.575,1.788,2.16,2.16,0,0,1-.054,1.23.146.146,0,0,1-.273.006,2.663,2.663,0,0,0-1.725-1.514,2.966,2.966,0,0,0-1.179-.145,1.476,1.476,0,0,1,.9.474,1.534,1.534,0,0,1,.265,1.547,1.362,1.362,0,0,1-.313.507.134.134,0,0,1-.229-.1,1.69,1.69,0,0,0-.466-1.274,1.588,1.588,0,0,0-.926-.564h0a10.05,10.05,0,0,0-.585,3.088,25.835,25.835,0,0,1,2.636-.137,24.486,24.486,0,0,1,6.188.771A24.439,24.439,0,0,0,17.6,12.5h0A4.1,4.1,0,0,0,16.045,14.5a3.968,3.968,0,0,0,.035,3.179.314.314,0,0,1-.419.408,3.206,3.206,0,0,1-1.1-.849,3.581,3.581,0,0,1-.694-3.6,3.472,3.472,0,0,1,1.582-1.779,6.948,6.948,0,0,0-2.458,1.284,6.221,6.221,0,0,0-2.522,4.725.34.34,0,0,1-.6.213,5.04,5.04,0,0,1-1.129-2.643,5.618,5.618,0,0,1,1.967-5.2,5.449,5.449,0,0,1,1.628-.878l-.172.018a6.243,6.243,0,0,0-4.526,2.532.419.419,0,0,1-.753-.2,4.993,4.993,0,0,1,.355-2.377A5.6,5.6,0,0,1,11.89,5.7a5.481,5.481,0,0,1,2.191.259,5.459,5.459,0,0,1,.242-2.19,5.6,5.6,0,0,1,4.6-3.71,5,5,0,0,1,2.452.21.4.4,0,0,1,.022.739A6.235,6.235,0,0,0,17.85,4.866c-.02.055-.038.109-.056.163a5.443,5.443,0,0,1,1.223-1.387,5.619,5.619,0,0,1,5.51-.742,5.034,5.034,0,0,1,2.367,1.761.308.308,0,0,1-.311.488,6.206,6.206,0,0,0-5.251,1.374,6.919,6.919,0,0,0-1.808,2.1,3.457,3.457,0,0,1,2.091-1.139,3.578,3.578,0,0,1,3.346,1.489,3.2,3.2,0,0,1,.576,1.253.317.317,0,0,1-.5.318A3.968,3.968,0,0,0,21.957,9.8a4.07,4.07,0,0,0-2.413,1.163c.1.087,6.456,4.828,10.618,19.345a9.424,9.424,0,0,1,.707.749.781.781,0,0,1-.594,1.284H3.862A.772.772,0,0,1,3.261,31.081Z" transform="translate(-3.082 0.006)"/></g></g></svg>