<svg xmlns="http://www.w3.org/2000/svg" width="38" height="38" viewBox="0 0 38 38"><defs><style>.a{fill:#e277a6;}.b{fill:#fff;}</style></defs><g transform="translate(-853 -805)"><rect class="a" width="38" height="38" rx="10" transform="translate(853 805)"/><g transform="translate(860 812)"><g transform="translate(0 9.588)"><g transform="translate(0)"><path class="b" d="M9.632,211.487l0-.385A2.083,2.083,0,0,0,7.578,209l-.7,0v2.089a.688.688,0,0,1-1.376-.006V209l-.679,0a2.075,2.075,0,0,0-2.073,2.071l0,.385A6.26,6.26,0,0,0,6.142,222.9a1.376,1.376,0,0,0,.012-2.753,3.5,3.5,0,0,1,.03-7,3.482,3.482,0,0,1,3.426,3.5,3.518,3.518,0,0,1-1.54,2.912,2.7,2.7,0,0,1,.831,1.972,2.918,2.918,0,0,1-.113.784,6.336,6.336,0,0,0,3.575-5.656A6.27,6.27,0,0,0,9.632,211.487Z" transform="translate(0 -209.001)"/></g></g><g transform="translate(5.505 5.505)"><path class="b" d="M123.469,120A3.442,3.442,0,0,0,120,123.414v.668l1.376,0v-.659a2.062,2.062,0,0,1,2.085-2.043h.667V120Z" transform="translate(-120.001 -120)"/></g><g transform="translate(9.634 0)"><g transform="translate(0 0)"><path class="b" d="M222.485,4.862a1.38,1.38,0,0,0-1.382,1.37,3.464,3.464,0,1,1-.584-1.916,2.7,2.7,0,0,1,1.972-.831,2.917,2.917,0,0,1,.784.113,6.2,6.2,0,0,0-10.786-.845l-.385,0A2.085,2.085,0,0,0,210,4.808l0,.7h2.091a.688.688,0,0,1-.006,1.376H210v.734a2.031,2.031,0,0,0,2.073,2.019l.385,0a6.218,6.218,0,0,0,11.4-3.392A1.38,1.38,0,0,0,222.485,4.862Z" transform="translate(-210.001 0)"/></g></g></g></g></svg>