<svg xmlns="http://www.w3.org/2000/svg" width="33.996" height="34.006" viewBox="0 0 33.996 34.006"><defs><style>.a{fill:#4f4d4e;}</style></defs><g transform="translate(-0.501)"><path class="a" d="M188.449,7.3a7.3,7.3,0,1,0,7.3-7.3A7.313,7.313,0,0,0,188.449,7.3Zm13.28,0a5.976,5.976,0,1,1-5.976-5.976A5.983,5.983,0,0,1,201.729,7.3Zm0,0" transform="translate(-175.464)"/><path class="a" d="M8.149,232.027a.664.664,0,0,0,.937.005l3.219-3.172a2.007,2.007,0,0,0,.473-2.061l.692-.668a1.98,1.98,0,0,1,1.383-.559h8.827a5.945,5.945,0,0,0,4.168-1.693c.046-.045-.351.422,6.022-7.194a2.656,2.656,0,0,0-4.042-3.447l-3.918,4.027a2.669,2.669,0,0,0-2.064-.989h-7.4a8.566,8.566,0,0,0-3.325-.664A8.215,8.215,0,0,0,5.63,219.86a1.983,1.983,0,0,0-1.776.55L.695,223.578a.664.664,0,0,0,0,.937Zm4.968-15.085a7.248,7.248,0,0,1,2.923.608.663.663,0,0,0,.266.056h7.54a1.328,1.328,0,1,1,0,2.656H18.429a.664.664,0,0,0,0,1.328h5.418a2.652,2.652,0,0,0,2.633-3c3.79-3.9,4.325-4.444,4.348-4.471a1.328,1.328,0,1,1,2.028,1.716l-5.956,7.12a4.624,4.624,0,0,1-3.218,1.294H14.854a3.3,3.3,0,0,0-2.3.931l-.564.545-5.2-5.2a6.856,6.856,0,0,1,6.335-3.578Zm-8.324,4.406a.662.662,0,0,1,.822-.093c.115.07-.215-.23,5.751,5.728a.665.665,0,0,1,0,.936l-2.744,2.7L2.1,224.048Zm0,0" transform="translate(0 -198.217)"/><path class="a" d="M267.157,40.652v.778a1.992,1.992,0,0,0,.664,3.87.664.664,0,1,1,0,1.328,1.2,1.2,0,0,1-.862-.5.664.664,0,0,0-1.017.855,2.754,2.754,0,0,0,1.215.865v.775a.664.664,0,1,0,1.328,0v-.778a1.992,1.992,0,0,0-.664-3.87.664.664,0,0,1,0-1.328,1.066,1.066,0,0,1,.718.347.664.664,0,0,0,.924-.954,2.566,2.566,0,0,0-.978-.611v-.773a.664.664,0,1,0-1.328,0Zm0,0" transform="translate(-247.666 -37.332)"/></g></svg>