<svg xmlns="http://www.w3.org/2000/svg" width="19.3" height="25.244" viewBox="0 0 19.3 25.244"><defs><style>.a{fill:#2b3a67;stroke:#f8f8f8;stroke-width:0.3px;}</style></defs><g transform="translate(-60.85 0.15)"><path class="a" d="M79.786,5.086,74.914.214A.731.731,0,0,0,74.4,0H63.679A2.683,2.683,0,0,0,61,2.679V22.264a2.683,2.683,0,0,0,2.679,2.679H77.321A2.683,2.683,0,0,0,80,22.264V5.6A.731.731,0,0,0,79.786,5.086ZM75.128,2.495l2.377,2.377H75.128Zm2.192,20.987H63.679a1.219,1.219,0,0,1-1.218-1.218V2.679a1.219,1.219,0,0,1,1.218-1.218h9.987V5.6a.731.731,0,0,0,.731.731h4.141V22.264A1.219,1.219,0,0,1,77.321,23.482Z" transform="translate(0)"/><path class="a" d="M151.474,163.949a2.409,2.409,0,0,1-2.167-1.339l-.1-.206a.731.731,0,0,0-.654-.4h-3.9a.731.731,0,0,0-.654.4l-.1.206a2.409,2.409,0,0,1-2.167,1.339.731.731,0,0,0-.731.731v4.17a7.567,7.567,0,0,0,5.393,7.248.731.731,0,0,0,.42,0,7.567,7.567,0,0,0,5.393-7.248v-4.17A.731.731,0,0,0,151.474,163.949Zm-.731,4.9a6.066,6.066,0,0,1-4.141,5.781,6.066,6.066,0,0,1-4.141-5.781v-3.507a3.856,3.856,0,0,0,2.637-1.881h3.008a3.856,3.856,0,0,0,2.637,1.881Z" transform="translate(-76.103 -154.108)"/><path class="a" d="M202.921,263.93l-2.239,2.239-.861-.861a.731.731,0,0,0-1.033,1.033l1.378,1.378a.731.731,0,0,0,1.033,0l2.756-2.756a.731.731,0,1,0-1.033-1.033Z" transform="translate(-130.871 -250.868)"/></g></svg>