<svg xmlns="http://www.w3.org/2000/svg" width="24" height="24.083" viewBox="0 0 24 24.083"><defs><style>.a{fill:#20ac86;}</style></defs><g transform="translate(-0.881)"><path class="a" d="M161.792,272H152.5a.235.235,0,0,0-.235.241c.028,1.089.1,2.129.214,3.112a.235.235,0,0,0,.291.2,17.846,17.846,0,0,1,8.749,0,.235.235,0,0,0,.291-.2c.112-.983.186-2.023.214-3.112A.235.235,0,0,0,161.792,272Z" transform="translate(-144.268 -259.206)"/><path class="a" d="M161.814,164.479a.235.235,0,0,0-.291-.2,17.845,17.845,0,0,1-8.749,0,.235.235,0,0,0-.291.2c-.112.983-.186,2.023-.214,3.112a.235.235,0,0,0,.235.241h9.288a.235.235,0,0,0,.235-.241C162,166.5,161.926,165.462,161.814,164.479Z" transform="translate(-144.268 -156.543)"/><path class="a" d="M171.675,5.951a18.8,18.8,0,0,0-1.813-5.6A.234.234,0,0,0,169.7.239a12.187,12.187,0,0,0-4.805,0,.234.234,0,0,0-.159.116,18.8,18.8,0,0,0-1.813,5.6.234.234,0,0,0,.169.268,16.149,16.149,0,0,0,4.205.554,16.147,16.147,0,0,0,4.205-.554A.234.234,0,0,0,171.675,5.951Z" transform="translate(-154.419)"/><path class="a" d="M355.683,22.59a.235.235,0,0,0-.316.3l0,.01a23.451,23.451,0,0,1,1.108,4,.235.235,0,0,0,.321.173,16.157,16.157,0,0,0,2.64-1.381.236.236,0,0,0,.045-.358q-.143-.154-.293-.3A12.037,12.037,0,0,0,355.683,22.59Z" transform="translate(-337.797 -21.507)"/><path class="a" d="M386.445,119.081h5.145a.236.236,0,0,0,.235-.256,11.924,11.924,0,0,0-1.934-5.607.236.236,0,0,0-.328-.067,17.626,17.626,0,0,1-2.853,1.528q-.308.13-.62.248a.235.235,0,0,0-.151.249c.148,1.181.24,2.412.271,3.673A.235.235,0,0,0,386.445,119.081Z" transform="translate(-366.945 -107.792)"/><path class="a" d="M162.926,368.822a18.8,18.8,0,0,0,1.813,5.6.234.234,0,0,0,.159.116,12.188,12.188,0,0,0,4.805,0,.234.234,0,0,0,.159-.116,18.8,18.8,0,0,0,1.813-5.6.234.234,0,0,0-.169-.268,16.23,16.23,0,0,0-8.411,0A.234.234,0,0,0,162.926,368.822Z" transform="translate(-154.419 -350.69)"/><path class="a" d="M6,276.4q.308-.13.62-.248a.235.235,0,0,0,.151-.249c-.148-1.181-.24-2.412-.271-3.673a.235.235,0,0,0-.235-.23H1.116a.236.236,0,0,0-.235.256,11.924,11.924,0,0,0,1.934,5.607.236.236,0,0,0,.328.067A17.623,17.623,0,0,1,6,276.4Z" transform="translate(0 -259.207)"/><path class="a" d="M359.441,394.609a16.152,16.152,0,0,0-2.64-1.381.235.235,0,0,0-.321.173,23.451,23.451,0,0,1-1.108,4l0,.01a.235.235,0,0,0,.316.3,12.037,12.037,0,0,0,3.509-2.443q.15-.15.293-.3A.236.236,0,0,0,359.441,394.609Z" transform="translate(-337.798 -374.715)"/><path class="a" d="M386.211,272.229c-.031,1.261-.123,2.492-.271,3.673a.235.235,0,0,0,.151.249q.312.118.62.248a17.632,17.632,0,0,1,2.853,1.528.236.236,0,0,0,.328-.067,11.924,11.924,0,0,0,1.934-5.607.236.236,0,0,0-.235-.256h-5.145A.235.235,0,0,0,386.211,272.229Z" transform="translate(-366.945 -259.205)"/><path class="a" d="M67.529,25.695a16.153,16.153,0,0,0,2.64,1.381.235.235,0,0,0,.321-.173,23.447,23.447,0,0,1,1.108-4l0-.01a.235.235,0,0,0-.316-.3,12.04,12.04,0,0,0-3.509,2.443q-.15.15-.293.3A.236.236,0,0,0,67.529,25.695Z" transform="translate(-63.41 -21.506)"/><path class="a" d="M6.491,119.081a37.128,37.128,0,0,1,.276-3.9.235.235,0,0,0-.151-.249q-.312-.118-.62-.248a17.632,17.632,0,0,1-2.853-1.528.236.236,0,0,0-.328.067,11.924,11.924,0,0,0-1.934,5.607.236.236,0,0,0,.235.256Z" transform="translate(0 -107.792)"/><path class="a" d="M71.287,397.714a.235.235,0,0,0,.316-.3l0-.01a23.451,23.451,0,0,1-1.108-4,.235.235,0,0,0-.321-.173,16.154,16.154,0,0,0-2.64,1.381.236.236,0,0,0-.045.358q.143.154.293.3A12.037,12.037,0,0,0,71.287,397.714Z" transform="translate(-63.411 -374.714)"/></g></svg>