<svg xmlns="http://www.w3.org/2000/svg" xmlns:xlink="http://www.w3.org/1999/xlink" width="211.533" height="223.001" viewBox="0 0 211.533 223.001"><defs><style>.a,.e{fill:#fff;}.b{fill:#f3f3f3;}.c{fill:url(#a);}.d{fill:#37aefd;}.e{opacity:0.25;}.f{fill:url(#b);}.g{fill:#fdd0cd;}.h{fill:#213347;}.i,.j{fill:#003a76;}.j{opacity:0.1;}.k{fill:#eae0b7;}.l{fill:#202953;}.m{fill:#f3dfc3;}.n{fill:#c7b5a3;}.o{fill:#343736;}.p{fill:url(#f);}.q{fill:#5590eb;}.r{fill:#172e50;}.s{fill:#222347;}.t{fill:#e5ceb1;}.u{fill:url(#g);}</style><linearGradient id="a" y1="0.5" x2="1" y2="0.5" gradientUnits="objectBoundingBox"><stop offset="0.202" stop-color="#ff6363"/><stop offset="1" stop-color="#ef4136"/></linearGradient><linearGradient id="b" x1="0.5" y1="1.207" x2="0.5" y2="-0.255" gradientUnits="objectBoundingBox"><stop offset="0.046" stop-color="#262262"/><stop offset="0.15" stop-color="#203676"/><stop offset="0.432" stop-color="#1269aa"/><stop offset="0.678" stop-color="#088ecf"/><stop offset="0.875" stop-color="#02a5e6"/><stop offset="1" stop-color="#00aeef"/></linearGradient><linearGradient id="f" x1="-10.402" y1="0.5" x2="-9.402" y2="0.5" gradientUnits="objectBoundingBox"><stop offset="0" stop-color="#e9c433"/><stop offset="1" stop-color="#f9ed32"/></linearGradient><linearGradient id="g" x1="74.032" y1="0.5" x2="75.032" y2="0.5" xlink:href="#a"/></defs><g transform="translate(-359.919 -162.869)"><path class="a" d="M172.6,178.012c-21.832,19.949-31.583-6.345-61.819.135-17.277,3.24-33.476,6.477-50.246,5.224-3.658-.243-7.347-.6-11.037-1.109s-7.378-1.15-11.067-1.958c-11.879-3.239-25.917-9.719-34.556-20.516-11.878-16.2,6.477-30.235,16.246-40.878a35.459,35.459,0,0,0,4.1-6.171,21.915,21.915,0,0,0,2.251-6.974c.942-6.746-1.684-13.4-3.013-20.074-3.946-19.8,7.042-43.615,26.809-47.248,6.23-1.151,12.827-.3,18.79-2.45C85.313,30.122,89.129,5.45,105.762.734c11.454-3.244,22.844,4.836,31.522,13.02s18.126,17.6,30.028,17.708c11.52.1,16.513,7.234,25.679,17.642,0,0,9.072,18.082,5.112,49.248S194.427,158.063,172.6,178.012Z" transform="translate(543.742 162.869) rotate(82)"/><path class="b" d="M382.346,333.537c-9.4-12.98-2.276-57.578,47.919-55.6s68.314,51.462,67.7,72.322c-10.771,3.711-26.959,6.022-75.293,3.3C391.365,347.411,393.448,345.56,382.346,333.537Z" transform="translate(3.031 18.461)"/><g transform="translate(368.307 201.715)"><g transform="translate(0 0)"><path class="c" d="M928.276,1544.418s1.537,2.369-.728,2.442a79.1,79.1,0,0,1-8.847-.972s-8.985-8.322-8.841-12.432,4.741-1.415,6.106,1.817,2.9,7.259,5.727,8.1A34.122,34.122,0,0,0,928.276,1544.418Z" transform="translate(-895.494 -1442.081)"/><g transform="translate(18.016)"><path class="a" d="M1005.649,1289.691a66.327,66.327,0,0,0-47.116,19.21,65.406,65.406,0,0,0-19.3,46.784c.02,36.232,29.328,65.733,65.333,65.765h.06c36.539,0,66.287-29.527,66.315-65.819s-29.2-65.869-65.159-65.94Z" transform="translate(-932.813 -1283.276)"/><path class="d" d="M1051.828,1341.162c-14.733,16.961-31.167,17.379-31.876,17.392h-7.122a2.364,2.364,0,0,0-2.362,2.36v2.614c-.673,15.568,1.122,29.234,5.49,41.821,3.878,11.174,9.5,19.755,17.211,26.231a47.469,47.469,0,0,0,18.255,9.524,1.884,1.884,0,0,0,.405.067,1.973,1.973,0,0,0,.4-.062,47.511,47.511,0,0,0,18.266-9.526c7.7-6.479,13.33-15.06,17.209-26.233,4.368-12.587,6.163-26.253,5.491-41.768l0-2.667a2.363,2.363,0,0,0-2.36-2.36h-7.106C1083,1358.541,1066.56,1358.123,1051.828,1341.162Z" transform="translate(-979.529 -1317.097)"/><g transform="translate(38.828 46.13)"><path class="e" d="M1038.274,1412.785h0a19.931,19.931,0,0,1,24.964-4.829l3.947,2.16,3.948-2.16a19.932,19.932,0,0,1,24.965,4.829h0a19.93,19.93,0,0,1,.024,25.283l-28.938,35.34-28.936-35.34A19.929,19.929,0,0,1,1038.274,1412.785Z" transform="translate(-1033.739 -1405.508)"/><path class="a" d="M1076.928,1475.188a1.538,1.538,0,0,0,1.5-1.205l8.748-39.641,7.153,22.137a1.535,1.535,0,0,0,1.414,1.064,1.517,1.517,0,0,0,1.475-.976l1.7-4.345.582,1.306a1.535,1.535,0,0,0,1.4.909h11.189a1.535,1.535,0,0,0,0-3.071H1101.9l-1.672-3.747a1.535,1.535,0,0,0-2.831.067l-1.471,3.755-7.568-23.43a1.536,1.536,0,0,0-2.962.14l-8.153,36.943-1.834-12.695a1.533,1.533,0,0,0-1.519-1.317h-10.869a1.559,1.559,0,0,0-.671.154l-.679-1.833a1.535,1.535,0,0,0-1.412-1,1.505,1.505,0,0,0-1.448.95l-.655,1.59h-2.807a1.535,1.535,0,1,0,0,3.07h3.836a1.536,1.536,0,0,0,.83-.242l.607,1.642a1.535,1.535,0,0,0,2.853.066l.562-1.325h8.523l2.847,19.717a1.537,1.537,0,0,0,1.463,1.315Z" transform="translate(-1046.931 -1419.595)"/></g><path class="d" d="M992.343,1415.572h-.067c-39.551-.034-71.747-32.416-71.768-72.184a71.808,71.808,0,0,1,21.2-51.337,72.654,72.654,0,0,1,51.609-21.068h.15c39.5.08,71.618,32.541,71.59,72.361A71.678,71.678,0,0,1,1043.8,1394.5,72.512,72.512,0,0,1,992.343,1415.572Zm.978-135.334a63.466,63.466,0,0,0-45.083,18.382,62.572,62.572,0,0,0-18.468,44.768c.018,34.667,28.066,62.9,62.514,62.927h.06c34.963,0,63.425-28.255,63.455-62.977s-27.938-63.029-62.347-63.1Z" transform="translate(-920.508 -1270.983)"/><path class="f" d="M1047.189,1436.38l-.036,0a4.546,4.546,0,0,1-1.02-.144,50.062,50.062,0,0,1-19.164-10.01c-8.041-6.767-13.914-15.69-17.933-27.284-4.47-12.886-6.311-26.841-5.626-42.668v-2.563a4.784,4.784,0,0,1,4.781-4.782h7.107c.152,0,16.747-.473,30.96-17.6l.931-1.128.932,1.128c14.259,17.178,30.809,17.6,30.975,17.6h7.094a4.783,4.783,0,0,1,4.779,4.782v2.614c.682,15.777-1.155,29.732-5.621,42.618-4.027,11.594-9.891,20.517-17.944,27.284a50.027,50.027,0,0,1-19.167,10.01,4.374,4.374,0,0,1-1.009.144Zm0-102.425c-14.733,16.961-31.167,17.379-31.876,17.392h-7.122a2.364,2.364,0,0,0-2.362,2.36v2.614c-.673,15.568,1.122,29.234,5.49,41.821,3.878,11.174,9.5,19.755,17.211,26.231a47.469,47.469,0,0,0,18.255,9.524,1.879,1.879,0,0,0,.405.067,1.958,1.958,0,0,0,.4-.062,47.51,47.51,0,0,0,18.265-9.526c7.7-6.479,13.33-15.06,17.209-26.233,4.367-12.587,6.162-26.253,5.491-41.768l0-2.667a2.363,2.363,0,0,0-2.36-2.36h-7.106C1078.357,1351.333,1061.921,1350.915,1047.189,1333.954Z" transform="translate(-974.89 -1309.889)"/></g><g transform="translate(0 76.72)"><path class="g" d="M896.706,1531.043l.9-.493a6.694,6.694,0,0,1,4.333-.123l-.2,2.836-1.973,1.356-2.681-.615Z" transform="translate(-886.852 -1517.993)"/><path class="h" d="M896.307,1494.732s-4.224-.649-5.488,5.734,1.294,6.723,1.294,6.723l8.387.236s1.974-3.193,1.079-6.355S902.042,1495.5,896.307,1494.732Z" transform="translate(-882.753 -1494.714)"/><path class="i" d="M897.245,1537.451s2.729,2.821,5.043,0l-.926,12.9h-3.193Z" transform="translate(-887.206 -1522.796)"/><path class="g" d="M901.563,1523.65v3.215h2.613l.232-2.891Z" transform="translate(-890.043 -1513.728)"/><path class="j" d="M902.985,1524.981a1.453,1.453,0,0,0,1.406-.808l-2.829-.523S901.96,1525.119,902.985,1524.981Z" transform="translate(-890.043 -1513.728)"/><path class="g" d="M902.325,1504.936a5.6,5.6,0,0,1-.879-1.9c-.253-.694-1.874-.579-1.874-.579s-1.617-.115-1.872.579a5.6,5.6,0,0,1-.879,1.9c-.37.324-1.18.232-1.135.9a.937.937,0,0,0,.743.809v1.572s1.233,2.193,3.034,2.26v.007c.018,0,.036,0,.054,0s.038,0,.054,0v-.007c1.806-.066,3.147-2.26,3.147-2.26v-1.572a.932.932,0,0,0,.74-.809C903.506,1505.167,902.694,1505.259,902.325,1504.936Z" transform="translate(-886.18 -1499.8)"/><path class="h" d="M901.563,1500.053s3.021,2.744,4.625,2.806c0,0,1.126.354,1.133.9s-.793.917-.793.917.924.711,1.356-.709S905.971,1497.37,901.563,1500.053Z" transform="translate(-890.043 -1497.724)"/><path class="k" d="M872.607,1687.805q-.542.782-1.082,1.567c-.264.382-.606.811-1.1.826a1.549,1.549,0,0,0-.426.024c-.3.112-.293.5-.232.791a7.284,7.284,0,0,0,1.855,4.156.911.911,0,0,0,.75.3c.28-.057.419-.479.154-.58a.266.266,0,0,1,.314.044c.292-.166.267-.563.179-.867-.183-.56-.491-1.077-.68-1.631a2.015,2.015,0,0,1,.069-1.7,7.043,7.043,0,0,1,1.05-1.021c.335-.349.55-.908.238-1.281s-.9-.321-1.394-.24" transform="translate(-869.129 -1621.592)"/><path class="l" d="M871.22,1694.633l-1.05-1.5s-1.855.657-2.178,1.221c-.229.4,1.263,3.088,2.03,4.5.316.585,2.888.319,2.888.319s.078.08.456-.449-1.675-.861-1.907-2.317C871.316,1695.489,871.22,1694.633,871.22,1694.633Z" transform="translate(-867.968 -1625.094)"/><path class="k" d="M914.294,1692.634v1.863a1.4,1.4,0,0,1-.444,1.248,1.3,1.3,0,0,0-.351.228c-.186.243.046.568.267.786a8.148,8.148,0,0,0,3.972,2.574.944.944,0,0,0,.809-.122c.2-.187.072-.611-.213-.564a.267.267,0,0,1,.293-.124c.152-.28-.1-.6-.356-.815-.468-.383-1.031-.663-1.509-1.035a2.125,2.125,0,0,1-.927-1.467,6.523,6.523,0,0,1,.288-1.385,1.023,1.023,0,0,0-.536-1.2,1.461,1.461,0,0,0-1.313.492" transform="translate(-897.841 -1624.731)"/><path class="l" d="M889.36,1583.7c-.322,3.8-2.039,7.356-2.839,11.09-.354,1.659-.529,3.349-.882,5.006a47.856,47.856,0,0,1-4.236,10.813,11.883,11.883,0,0,1-2.763,4.081c-.5.417-1.29.747-1.774.318a1.177,1.177,0,0,1-.283-1.021c.158-1.546,1.326-2.8,2.014-4.208a14.637,14.637,0,0,0,1.038-6.2c.135-5.738-.96-11.141-.568-16.869.117-1.748-.543-5.118.3-6.674s1.1-5.181,2.935-4.974c1.048.119,3.552-.7,4.6-.753,3.578-.189,2.863,3.86,4.608,3.165.468,6.118,2.886,14.42,2.376,20.533-.116,1.4-.236,2.8-.353,4.208q-.5,5.968-1,11.938c-.086,1.029-.464,2.344-1.549,2.4-1.012.047-1.562-1.1-1.753-2.048-.818-4.042-.222-8.2.046-12.3s-.064-5.977-1.927-12.039" transform="translate(-873.621 -1547.015)"/><path class="l" d="M915.832,1699.828l-2.21-.3a3.984,3.984,0,0,0-.712,1.746c.035.45,2.561,1.911,4.025,2.724a2.476,2.476,0,0,0,1.6.012s.115.03.123-.607-1.063-1.724-1.93-2.189A1.719,1.719,0,0,1,915.832,1699.828Z" transform="translate(-897.497 -1629.292)"/><path class="c" d="M888.089,1530.785l1.726,20.1-7.585-.741s2.527-3.638,1.6-10.3.495-8.387.495-8.387S886.978,1529.859,888.089,1530.785Z" transform="translate(-877.339 -1518.227)"/><path class="c" d="M908.486,1530.324s-2.253,17.74-1.7,19.867c0,0,5.918-.463,6.32-.247a6.852,6.852,0,0,1-1.111-4.781c.308-3.02.616-6.012.679-7.09s.612-5.467-.58-6.883A4.292,4.292,0,0,0,908.486,1530.324Z" transform="translate(-893.419 -1518.052)"/></g><g transform="translate(4.522 89.857)"><path class="m" d="M948.7,1556.069l2.668-1.39s.7-1.086,1.094-1.016-.015.831-.015.831-.028.458.311.276,2.311-1.329,2.164-.634-1.421,1.078-1.421,1.078,2.97-.362,2.269.3a3.392,3.392,0,0,1-2.289.467s2.078.073,2.3.772-2.3-.146-2.3-.146,1.951.862,1.4.931a8.756,8.756,0,0,1-1.98-.256l-3.584.256Z" transform="translate(-925.538 -1546.585)"/><path class="c" d="M904.754,1541.811s2.428,2.067,0,2.875a89.569,89.569,0,0,1-9.883,1.8s-12.4-6.109-13.563-10.6,4.671-3.055,7.187,0,5.477,6.919,8.8,6.919A38.549,38.549,0,0,0,904.754,1541.811Z" transform="translate(-881.156 -1533.026)"/></g><g transform="translate(127.46 77.162)"><path class="n" d="M1240.791,1593.406s-1.481,1.745-1.041,2.619,1,1.316,1.362,1.008,1.463-.907,1.3-1.828.32-1.121.32-1.121Z" transform="translate(-1239.669 -1560.005)"/><path class="n" d="M1244.708,1570.339l5.89-10.427s-.066-4.546-3.384-1.871-4.431,11.675-4.431,11.675Z" transform="translate(-1241.715 -1536.214)"/><path class="k" d="M1300.172,1695.133c.365.428.726.86,1.09,1.29a1.562,1.562,0,0,0,1.107.681,1.86,1.86,0,0,1,.429.019c.3.091.3.411.234.652a5.557,5.557,0,0,1-1.871,3.422,1.03,1.03,0,0,1-.755.249c-.283-.047-.425-.394-.155-.478a.32.32,0,0,0-.318.037c-.293-.137-.269-.464-.179-.714.185-.461.495-.885.685-1.343a1.391,1.391,0,0,0-.068-1.4,6.557,6.557,0,0,0-1.06-.841c-.337-.287-.554-.749-.239-1.054a1.783,1.783,0,0,1,1.406-.2" transform="translate(-1278.601 -1626.85)"/><path class="o" d="M1299,1700.756l1.06-1.235s1.871.541,2.2,1.005c.231.328-1.275,2.543-2.046,3.709-.318.482-2.912.262-2.912.262s-.079.067-.459-.369,1.688-.709,1.922-1.908C1298.908,1701.46,1299,1700.756,1299,1700.756Z" transform="translate(-1277.206 -1629.733)"/><path class="k" d="M1255.966,1699.109v1.534a1.04,1.04,0,0,0,.448,1.027,1.331,1.331,0,0,1,.353.189c.188.2-.046.468-.268.647a8.568,8.568,0,0,1-4,2.121,1.139,1.139,0,0,1-.816-.1.265.265,0,0,1,.216-.464.293.293,0,0,0-.3-.1c-.154-.233.1-.5.358-.672.474-.315,1.042-.546,1.523-.853a1.748,1.748,0,0,0,.934-1.207,4.519,4.519,0,0,0-.291-1.14.8.8,0,0,1,.541-.988,1.672,1.672,0,0,1,1.324.407" transform="translate(-1247.477 -1629.435)"/><path class="l" d="M1257.206,1615.655c.324,3.128,2.055,6.058,2.862,9.133.356,1.367.533,2.758.889,4.122a35.505,35.505,0,0,0,4.27,8.9,9.972,9.972,0,0,0,2.786,3.362c.5.342,1.3.614,1.789.261a.85.85,0,0,0,.285-.84c-.16-1.273-1.337-2.305-2.03-3.465a10.1,10.1,0,0,1-1.047-5.1c-.136-4.723.968-9.174.573-13.891-.12-1.44.546-4.215-.3-5.5s-1.819-1.587-3.664-1.415a59.459,59.459,0,0,0-5.953,1.151,7.319,7.319,0,0,1-4.847.135,75.514,75.514,0,0,0-.177,14.929c.117,1.156.239,2.309.357,3.465q.505,4.917,1.011,9.832c.087.848.468,1.93,1.562,1.973,1.02.037,1.574-.907,1.768-1.686.823-3.329.222-6.751-.047-10.132s.065-4.922,1.944-9.914" transform="translate(-1247.997 -1571.685)"/><path class="o" d="M1253.427,1705.038l2.229-.251s.769.916.717,1.437c-.035.372-2.582,1.574-4.059,2.242a3.011,3.011,0,0,1-1.614.011s-.116.024-.125-.5,1.071-1.42,1.946-1.8A1.385,1.385,0,0,0,1253.427,1705.038Z" transform="translate(-1246.835 -1633.193)"/><path class="p" d="M1264.313,1533.9l-1.241-1.713s-4.334-2.817-7.72-.079a7.482,7.482,0,0,0-2.794,6.579l-2.66,22.332s10.516,3.487,13.055-1.063.06-12.879.06-12.879Z" transform="translate(-1246.39 -1518.942)"/><path class="q" d="M1277.375,1532.212s-5.513,20.008,0,30.88l7.249-1.89-1.889-20.166,2.9,2.054s4.977-5.048,1.038-6.623S1279.894,1531.581,1277.375,1532.212Z" transform="translate(-1262.835 -1519.744)"/><path class="q" d="M1252.091,1534.4s-4.885,23.555-4.412,28.754c0,0-1.693,4.587-2.58.925s2.107-20.055,2.107-20.055S1247.834,1538.1,1252.091,1534.4Z" transform="translate(-1243.129 -1521.235)"/><path class="r" d="M1261.632,1506.218s.4,2.48,1.693,1.062,3.822-4.135,2.128-5.632-1.082-1.772-3.042-3.309-1.287-3.5-4.087-1.458-4.368,2.8-4.251,1.419-1.694-.513-1.42,1.5,4.49,4.295,4.49,4.295Z" transform="translate(-1248.182 -1496.004)"/><path class="n" d="M1269.393,1519.539s.976,2.334,0,2.334-3.011.088-3.042-1.33,0-.53,0-.53-.828.443-1.122-.622a4.442,4.442,0,0,0-.484-1.3s-.272.382-.375,0a10.4,10.4,0,0,1-.177-1.153s-.059-2.452,2.305-1.921,1.712,1.478,1.712,1.478.356.975.71-.09.943.031.74,1.27S1269.393,1519.539,1269.393,1519.539Z" transform="translate(-1255.784 -1508.449)"/><path class="n" d="M1307.119,1553.743l.133.938s2.99,2.7,3.485,1.812c2.517-4.523-1.408-6.548-2.039-6.76C1308.7,1549.733,1308.41,1552.6,1307.119,1553.743Z" transform="translate(-1283.989 -1531.309)"/><g transform="translate(17.224 7.322)"><g transform="translate(0 11.879)"><path class="m" d="M1295.748,1595.614l-2.588-.092s-.948-.581-1.223-.382.318.639.318.639.193.344-.139.326-2.283-.174-1.913.31,1.5.311,1.5.311-2.445.818-1.651,1.077,1.95-.484,1.95-.484-1.585.826-1.5,1.45,1.735-.964,1.735-.964-1.2,1.391-.743,1.24a7.572,7.572,0,0,0,1.446-.929l2.88-1.13Z" transform="translate(-1289.897 -1580.319)"/><path class="a" d="M1304.658,1566.911s-1.117,2.5,1.063,2.233a77.3,77.3,0,0,0,8.339-2.261s8.581-8.792,7.108-12.5c-1.906-4.809-5.26-1.39-6.08,1.912s-1.693,7.4-4.273,8.627c-.468.222-.967.428-1.471.619A37.087,37.087,0,0,1,1304.658,1566.911Z" transform="translate(-1299.408 -1551.998)"/></g><path class="s" d="M1331.479,1517.367s3.493-.474,4.028,5.033,1.182,10.661,1.182,10.661h-12.142s3.887-6.691,3.825-8.971S1326.382,1517.307,1331.479,1517.367Z" transform="translate(-1312.666 -1517.357)"/><path class="t" d="M1339.851,1549.613s-1.54-.712-1.54-1.184v-2.369h-2.548s.241,2.547-.973,3.2-.745,4.856-.745,4.856h5.807Z" transform="translate(-1318.847 -1536.217)"/><path class="m" d="M1332.516,1528.591c0,.491-.4,1.131-.279,1.572.027.095.513.018.544.109.16.489.09,1.445.369,1.826.634.856,1.832.878,2.83.878,1.916,0,3.466-1.965,3.466-4.385s-1.55-4.382-3.466-4.382S1332.516,1526.172,1332.516,1528.591Z" transform="translate(-1317.704 -1521.859)"/><path class="s" d="M1336.878,1520.692s-3.4,3.112-7.218,2.405C1329.66,1523.1,1329.943,1516.208,1336.878,1520.692Z" transform="translate(-1316.025 -1518.552)"/><path class="m" d="M1325.96,1641.537s1.063,8.633,1.063,10.719.674,10.427.674,10.427,1.835,2.146,2.142,0-.2-8.219,0-10.948c.2-2.757,1.957-10.895,1.957-10.895Z" transform="translate(-1313.594 -1598.497)"/><path class="m" d="M1342.977,1642.56s.429,7.706.859,8.807,4.337,10.041,4.337,10.041,1.662,1.719,1.969.444-2.7-9.442-2.7-10.834.8-9.5.8-9.5Z" transform="translate(-1324.775 -1598.941)"/><path class="u" d="M1328.2,1551.256c-.411-.142-1.28.6-1.731.505-.926-.175-1.479-.993-2.376-.179a15.384,15.384,0,0,0-4.531,7.9c-.274,1.339,2.324,3.833,1.479,5.549-.645,1.307-2.226,3.236-2.143,5.613.115,3.24,2.561,6.133.1,9.2-3.09,3.846-1.929,5.716,7.338,4.865s9.737-.008,7.495-5.716C1329.011,1566.729,1333.9,1553.215,1328.2,1551.256Z" transform="translate(-1308.007 -1539.613)"/><path class="o" d="M1353.09,1696.608l1.944-1.211a5.206,5.206,0,0,1,1.429.985c.242.324-1.321,2.494-2.117,3.637-.332.472-3.018.258-3.018.258s-.081.065-.479-.362,1.754-.7,1.994-1.873C1352.995,1697.3,1353.09,1696.608,1353.09,1696.608Z" transform="translate(-1329.917 -1634.345)"/><path class="o" d="M1323.822,1702.186l2.288.381s.5,1.073.294,1.55c-.144.341-3.026.768-4.689.988a3.239,3.239,0,0,1-1.609-.434s-.119-.01.022-.506,1.478-1.038,2.462-1.16A1.424,1.424,0,0,0,1323.822,1702.186Z" transform="translate(-1309.716 -1638.806)"/><g transform="translate(10.421 12.889)"><path class="m" d="M1323.1,1611.963l-.463.556-1.191,1.1s-.269-.818-.536-.665-.268.763-.268.763a1.084,1.084,0,0,0,0,1.607c.633.731,1.1-.146,1.1-.146l1.974-1.071Z" transform="translate(-1320.286 -1592.411)"/><path class="a" d="M1326.022,1575.058s.245,2.73,2.02,1.43a77.518,77.518,0,0,0,6.17-6.045s3.192-11.865.1-14.383c-4.013-3.265-5.268,1.355-4.374,4.64s2.135,7.28.484,9.615A33.165,33.165,0,0,1,1326.022,1575.058Z" transform="translate(-1324.055 -1554.945)"/></g><path class="s" d="M1341.075,1524.232s-1.874-.769-.742.942.565,5.278,3.218,6.626,1.794-3.87,1.794-3.87S1342.73,1519.1,1341.075,1524.232Z" transform="translate(-1322.799 -1520.821)"/></g><g transform="translate(17.768 22.219)"><path class="n" d="M1293.274,1597.007s-1.482,1.745-1.04,2.619,1,1.315,1.361,1.007,1.463-.907,1.3-1.828.321-1.12.321-1.12Z" transform="translate(-1291.922 -1584.591)"/><path class="n" d="M1297.192,1573.94l5.891-10.427s-.066-4.546-3.385-1.871-4.43,11.675-4.43,11.675Z" transform="translate(-1293.97 -1560.799)"/><path class="n" d="M1291.52,1599.706a2.14,2.14,0,0,1,.848-.856l-.277,1.289S1291.308,1600.253,1291.52,1599.706Z" transform="translate(-1291.483 -1585.802)"/></g></g></g></g></g></svg>