<svg xmlns="http://www.w3.org/2000/svg" width="14.183" height="19" viewBox="0 0 14.183 19"><defs><style>.a{opacity:0.7;}.b{fill:#fff;}</style></defs><g class="a" transform="translate(-64.907)"><path class="b" d="M78.992,133.8a7.019,7.019,0,0,0-1.963-3.771l-2.177-2.2H69.145l-2.177,2.2a7.019,7.019,0,0,0-1.963,3.771,7.2,7.2,0,0,0,2.932,7.027,7.186,7.186,0,0,0,8.123,0,7.2,7.2,0,0,0,2.932-7.027Zm-6.437-3.928v1.142a2.081,2.081,0,0,1,1.741,2.05H73.183a.966.966,0,0,0-.965-.965H71.78a.965.965,0,0,0,0,1.93h.438a2.078,2.078,0,0,1,.338,4.128V139.3H71.442v-1.142A2.081,2.081,0,0,1,69.7,136.1h1.113a.966.966,0,0,0,.965.965h.438a.965.965,0,0,0,0-1.93H71.78a2.078,2.078,0,0,1-.338-4.128v-1.142Z" transform="translate(0 -123.081)"/><path class="b" d="M150.549,3.63,151.9,0h-8.346L144.9,3.63Z" transform="translate(-75.725)"/></g></svg>