<svg xmlns="http://www.w3.org/2000/svg" width="32.943" height="32.943" viewBox="0 0 32.943 32.943"><defs><style>.a{fill:#4f4d4e;}</style></defs><g transform="translate(16.472)"><path class="a" d="M27.785,13.726a.5.5,0,0,1-.412-.137l-3.432-2.333a2.586,2.586,0,0,0-1.1-.275H14.059A2.111,2.111,0,0,1,12,8.922V2.059A2.111,2.111,0,0,1,14.059,0H26.413a2.111,2.111,0,0,1,2.059,2.059V13.04c0,.275-.137.549-.412.549C28.06,13.726,27.923,13.726,27.785,13.726ZM14.059,1.373a.648.648,0,0,0-.686.686V8.922a.648.648,0,0,0,.686.686h8.785a3.151,3.151,0,0,1,1.922.549L27.1,11.8V2.059a.648.648,0,0,0-.686-.686Z" transform="translate(-12)"/></g><g transform="translate(0 2.745)"><path class="a" d="M.686,15.726c-.137,0-.275,0-.275-.137-.275,0-.412-.275-.412-.549V4.059A2.111,2.111,0,0,1,2.059,2H13.04a.648.648,0,0,1,.686.686.648.648,0,0,1-.686.686H2.059a.648.648,0,0,0-.686.686V13.8l2.333-1.51a3.28,3.28,0,0,1,1.922-.686h11.53a.686.686,0,0,1,0,1.373H5.628a1.559,1.559,0,0,0-1.1.412L1.1,15.726H.686Z" transform="translate(0 -2)"/></g><g transform="translate(3.432 16.472)"><path class="a" d="M6.618,20.236a4.118,4.118,0,1,1,0-8.236,4.118,4.118,0,1,1,0,8.236Zm0-6.863a2.745,2.745,0,1,0,2.745,2.745A2.753,2.753,0,0,0,6.618,13.373Z" transform="translate(-2.5 -12)"/></g><g transform="translate(0 26.08)"><path class="a" d="M14.413,25.863a.648.648,0,0,1-.686-.686V22.432a2.111,2.111,0,0,0-2.059-2.059H3.432a2.111,2.111,0,0,0-2.059,2.059v2.745a.648.648,0,0,1-.686.686A.648.648,0,0,1,0,25.177V22.432A3.4,3.4,0,0,1,3.432,19h8.236A3.4,3.4,0,0,1,15.1,22.432v2.745A.648.648,0,0,1,14.413,25.863Z" transform="translate(0 -19)"/></g><g transform="translate(21.276 16.472)"><path class="a" d="M19.618,20.236a4.118,4.118,0,1,1,4.118-4.118A4.044,4.044,0,0,1,19.618,20.236Zm0-6.863a2.745,2.745,0,1,0,2.745,2.745A2.753,2.753,0,0,0,19.618,13.373Z" transform="translate(-15.5 -12)"/></g><g transform="translate(17.844 26.08)"><path class="a" d="M27.413,25.863a.648.648,0,0,1-.686-.686V22.432a2.111,2.111,0,0,0-2.059-2.059H16.432a2.111,2.111,0,0,0-2.059,2.059v2.745a.686.686,0,1,1-1.373,0V22.432A3.4,3.4,0,0,1,16.432,19h8.236A3.4,3.4,0,0,1,28.1,22.432v2.745A.648.648,0,0,1,27.413,25.863Z" transform="translate(-13 -19)"/></g></svg>