<svg xmlns="http://www.w3.org/2000/svg" width="212.603" height="174" viewBox="0 0 212.603 174"><defs><style>.a{fill:#fff;}.b{fill:#8da7f0;}.c{fill:#171c39;}.d{fill:#e55b76;}.e{fill:#c9a78e;}.f{fill:#f7cbaa;}.g{fill:#f3f2f2;}.h{fill:#6a5848;}.i{fill:#f7c9a9;}.j{fill:#6698d1;}.k{fill:#2d2a28;}.l,.o{fill:#040506;}.l,.n{opacity:0.26;}.m{fill:none;}.p{fill:#b3c9c9;}.q{opacity:0.12;}.r{fill:#c1c4c6;}.s{fill:#e6607d;}</style></defs><g transform="translate(-116.324 -71.574)"><path class="a" d="M319.638,489.453H144.19c-5.109,0-9.289,2.668-9.289,5.93h0c0,2.258,2.005,4.232,4.934,5.232H125.613c-5.109,0-9.289,2.668-9.289,5.93h0c0,3.261,4.18,5.93,9.289,5.93h4.956a4.9,4.9,0,0,0-2.224,3.837v2.372c0,3.261,4.18,5.93,9.289,5.93H310.677c5.109,0,9.289-2.669,9.289-5.93v-2.372c0-3.261-4.18-5.93-9.289-5.93l-6.918.132a5,5,0,0,0,3.06-1.249,4.851,4.851,0,0,0,.874-5.533,3.868,3.868,0,0,0-3.278-2.5l15.223.08c5.109,0,9.289-2.668,9.289-5.93h0C328.927,492.121,324.747,489.453,319.638,489.453Z" transform="translate(0 -279.038)"/><g transform="translate(128.505 71.574)"><g transform="translate(32.529 54.253)"><g transform="translate(19.299 13.273)"><path class="b" d="M407.749,371.664H308.977v-69.4l49.386-27.449,49.386,27.449Z" transform="translate(-308.977 -274.813)"/></g><path class="c" d="M388,272.377l-22.071-12.242-35.691-19.8c-2.875-1.594-5.718-3.274-8.636-4.79a5.506,5.506,0,0,0-5.5.106c-1.137.64-2.255,1.316-3.381,1.974l-32.6,19.039c-8.817,5.149-17.731,10.162-26.464,15.453-.145.087-.292.171-.439.256a4.742,4.742,0,1,0,4.789,8.187l21.456-12.529L313.5,248.161l5.5-3.213,20.008,11.1L374.979,276l8.234,4.567A4.742,4.742,0,1,0,388,272.377Z" transform="translate(-250.89 -234.865)"/><g transform="translate(33.365 61.699)"><rect class="a" width="24.084" height="46.359"/></g><g transform="translate(73.708 61.699)"><rect class="a" width="13.1" height="11.164"/><g transform="translate(17.148)"><rect class="a" width="13.1" height="11.164"/></g><g transform="translate(0 15.277)"><rect class="a" width="13.1" height="11.164"/></g><g transform="translate(17.148 15.277)"><rect class="a" width="13.1" height="11.164"/></g></g></g><g transform="translate(0 57.322)"><g transform="translate(23.278 20.439)"><path class="d" d="M223.048,311.564l5.717,8.827,5.5.8,12.55.525L245.673,318l-13.265-3.4-6.132-8.982Z" transform="translate(-223.048 -305.616)"/></g><g transform="translate(5.908 52.304)"><path class="e" d="M170.768,413.8l3.918,17.406,3.6,20.71h3.643l1.49-50.39-12.044.219Z" transform="translate(-170.768 -401.523)"/></g><g transform="translate(16.316 52.638)"><path class="e" d="M214.747,413.4l.506,16.9-5.088,22.284h-3.27l-.334-23.5-3.577-19.233-.89-6.14,10.028-1.183Z" transform="translate(-202.093 -402.529)"/></g><g transform="translate(2.449 18.059)"><path class="d" d="M178.946,298.455l-11.369.839-6.517,10.544c1.806,6.436,1.451,4.23,2.549,10.047l-3.25,16.018,4.242,1.236,15.413.274,5.069-.887L183.7,321.243l.719-20.409Z" transform="translate(-160.359 -298.455)"/></g><g transform="translate(10.53 5.266)"><path class="f" d="M194.585,262.939c-1.724-5.013-8.342-3.134-9.707,1.329-.89,2.912,1.359,6.691,4.376,7.527a2.95,2.95,0,0,1,.024.313,9.74,9.74,0,0,0,.129,1.4,15.219,15.219,0,0,0,2.961-.391.4.4,0,0,0,.273-.135c.106-.166-.067-.654-.086-.838q-.034-.326-.068-.652a5.209,5.209,0,0,0,2.69-3.849A9.669,9.669,0,0,0,194.585,262.939Z" transform="translate(-184.681 -259.95)"/></g><g transform="translate(15.152 2.735)"><path class="c" d="M199.122,253.179a2.626,2.626,0,0,0-.493,1.387,2.094,2.094,0,0,0,.014.873c.331,1.116,1.452.971,2.35,1.271a5.824,5.824,0,0,1,2.771,2.04c1.055,1.426.778,3.385.522,5.067-.09.592-.3,1.478.2,1.963a1.943,1.943,0,0,0,2.082.017c.483-.286.861-.776,1.4-.911.576-.142,1.384.054,1.615-.5a3.62,3.62,0,0,1,.143-.481c.287-.486,1.13-.007,1.56-.366a.89.89,0,0,0,.11-.977,2.3,2.3,0,0,1-.266-1.007,3.379,3.379,0,0,1,.34-.826,1.573,1.573,0,0,0-.344-1.65c-.782-.777-2.16-.513-2.99-1.237a3.4,3.4,0,0,1-.824-1.5,2.981,2.981,0,0,0-.873-1.462c-.565-.425-1.324-.288-1.888-.8a10.694,10.694,0,0,0-.935-.964,6.914,6.914,0,0,0-1.971-.7A2.487,2.487,0,0,0,199.122,253.179Z" transform="translate(-198.591 -252.331)"/></g><path class="c" d="M165.1,255.978c.095,1.648,1.047,3.364.4,4.87s-2.54,1.928-4.159,2.128c-.266.033-3.635.492-3.693.526-1.8,1.06-3.124.414-3.8-.547s-1.293-3.229-.467-4.391a.84.84,0,0,0,.4-.839,5.437,5.437,0,0,0-.392-.954,2.31,2.31,0,0,1,.425-2.36c1.127-1.223,3.362-.921,4.3-2.3.583-.854.418-2.016.681-3.025.509-1.951,2.56-2.507,4.05-3.484a7.473,7.473,0,0,1,5-1.474c2.38.213,4.308,2.472,3.573,4.792-.943,2.976-5.608,3.08-6.255,6.078A3.646,3.646,0,0,0,165.1,255.978Z" transform="translate(-152.987 -244.101)"/><g transform="translate(13.429 18.008)"><path class="g" d="M193.4,298.834l3.352,4.737,1.576-.129,2.139-5.142Z" transform="translate(-193.404 -298.3)"/></g><g transform="translate(13.429 102.693)"><path class="h" d="M197.047,553.185l1.941,2.5-1.807,1.976-2.535-2.237-1.241-2.237Z" transform="translate(-193.404 -553.185)"/></g><g transform="translate(21 102.693)"><path class="h" d="M219.835,553.185l1.941,2.5-1.807,1.976-2.535-2.237-1.241-2.237Z" transform="translate(-216.192 -553.185)"/></g></g><g transform="translate(135.522 43.202)"><g transform="translate(24.607)"><g transform="translate(5.442 7.633)"><path class="i" d="M658.722,237.368c1.05-.066,3.536-.643,3.538-.545a17.856,17.856,0,0,0-.3-2.832c.975-.383,2.1-.946,2.231-1.985a2.955,2.955,0,0,0-.094-.98l-.845-4a3.6,3.6,0,0,0-.468-1.325,3.025,3.025,0,0,0-2.161-1.068c-3.042-.414-5.815,1.718-8.477,2.867a1.578,1.578,0,0,0-.607.382,1.525,1.525,0,0,0-.186,1.205c.3,2.153.9,5.3,3.4,5.9.547.131,1.12.12,1.665.26,1.313.339.922,1.6,1.88,2.1A1,1,0,0,0,658.722,237.368Z" transform="translate(-651.318 -224.576)"/></g><path class="c" d="M635.3,209.008a8.153,8.153,0,0,1-.323-3.012c.232-2.011,1.605-5.481,4.216-4.063,1.436.78,2.523,1.564,4.281,1.268,2-.337,3.1-.81,5.161-.16,1.8.569,4.193.631,5.836,1.467a4.752,4.752,0,0,1,1.686,1.544,7.159,7.159,0,0,1,.3,7.564,10.238,10.238,0,0,1-1.062,1.444,7.67,7.67,0,0,1-2.909,2.481c-.066-1.031.755-4.32-.069-5.137-1.307-1.3-4.135-.723-5.683-.335-1.689.423-3.162,1.685-4.84,2a6.367,6.367,0,0,1-3.835-.9A6.965,6.965,0,0,1,635.3,209.008Z" transform="translate(-634.94 -201.602)"/></g><g transform="translate(0 19.113)"><g transform="translate(0 2.79)"><g transform="translate(0 2.333)"><path class="i" d="M568.122,279.995l-1.992-1.036-1.941.539-.328-.322.415-.394a3.077,3.077,0,0,1-3.337-1.992c-.144-.561-.057-1.8.529-2.141.648-.373,2.472.395,3.244.513l1.717,1.317,2.794,1.309Z" transform="translate(-560.877 -274.547)"/></g><g transform="translate(4.178)"><path class="j" d="M575.636,271.783l18.645,3.661,7.435-7.917,6.224,3.305-8.106,14.317-26.383-9.815Z" transform="translate(-573.451 -267.526)"/></g></g><g transform="translate(31.392 32.93)"><g transform="translate(13.481 61.995)"><path class="k" d="M702.375,546.9l.27,2.072-4.2,2.572-2.506-1.822L697.9,547.4l4.2-2.572Z" transform="translate(-695.935 -544.832)"/></g><path class="c" d="M674.163,358.975l.82,6.293-5.505,28.281,5.952,28.065-4.329,1.318L656.341,389.7l-.98-10.222,1.477-21.235Z" transform="translate(-655.361 -358.24)"/></g><g transform="translate(22.167 33.689)"><path class="c" d="M627.953,362.923l-.359,26.639,5.849,34.347h4.5l2.84-31.692,6.154-31.692Z" transform="translate(-627.594 -360.524)"/><g transform="translate(3.025 62.925)"><path class="k" d="M643.994,549.914V552l-4.863,2.087L636.7,552l2.432-2.087Z" transform="translate(-636.699 -549.914)"/></g></g><g transform="translate(17.667)"><path class="j" d="M651.675,303.681c.062,2.882-.027,6.766-1.115,6.908a.973.973,0,0,1-.578-.175c-1.881-1.045-3.212-2.516-5.066-3.527a21.1,21.1,0,0,0-6.347-2.015,60.3,60.3,0,0,0-9.915-1.041,34.2,34.2,0,0,0-7.459.369c-3.421.738-2.046.82-4.021,3.7l-3.049-1.125c-.488-.18,1.55-18.448,2.523-20.7,2.287-5.3,4.7-10.535,7.116-15.764,1.025-2.219,1.927-5.294,3.531-6.989,1.574-1.663,4.791-4.008,6.976-4.176,2.127-.164,5.533,1.325,7.45,2.375,2.694,1.476,3.443,3.852,4.662,6.579,1.118,2.5,2.633,9.206,3.06,11.892.517,3.253,1,6.512,1.369,9.783.416,3.65.7,7.317.762,10.991C651.582,301.168,651.646,302.311,651.675,303.681Z" transform="translate(-614.051 -259.129)"/></g><g transform="translate(18.441 4.621)"><path class="a" d="M630.8,273.038s-5.907,8.269-8.86,15.358c-1.509,3.622-3.4,15.358-4.135,16.982s-1.424,10.94-1.424,10.94l2.35.867s3.061-20.816,4.39-24.95,3.4-7.236,3.692-10.632,4.873-8.565,4.873-8.565Z" transform="translate(-616.379 -273.038)"/></g></g></g><g transform="translate(141.52 62.546)"><g transform="translate(0 23.433)"><path class="i" d="M586.072,330.587l-2.149.651-1.808-.888-.382.256.335.464-1.711-.342-1.228.608-.2,1.737,1.024,1.573,1.875.062,1.931-.978,2.987-.771Z" transform="translate(-578.929 -330.35)"/></g><g transform="translate(5.298)"><path class="j" d="M594.876,283.64l16.031-5.776,13.664-18.041,5.377,1.873,2.622,4.576-15.179,18.651L595.143,287.8Z" transform="translate(-594.876 -259.823)"/></g></g><g transform="translate(98.284 0)"><g transform="translate(32.307)"><path class="c" d="M547.466,74.957V73.3l.765-1.565a.528.528,0,0,1,.766.016l.64,1.549v1.661c.6,0,1.585.472,1.585,1.055a1.074,1.074,0,0,1-1.092,1.055h-.493V133.35c0,3.176,1.679,5.817,4.09,5.76,1.869-.044,3.5-1.632,3.773-4.226a1.145,1.145,0,0,1,1.149-1.016h.043a1.127,1.127,0,0,1,1.146,1.246c-.477,3.688-3.4,6.326-6.182,6.326a5.522,5.522,0,0,1-4.989-2.82c-1.283-2.245-1.2-4.714-1.2-7.178V77.067h-.338a1.074,1.074,0,0,1-1.092-1.055C546.036,75.429,546.863,74.957,547.466,74.957Z" transform="translate(-546.036 -71.574)"/><path class="l" d="M550.339,164.561l2.194-2.28v-3.767h-2.194Z" transform="translate(-548.909 -129.628)"/></g><g transform="translate(0 4.669)"><path class="m" d="M510.331,175.7l-.22.107-.317-.107h.537Z" transform="translate(-489.528 -145.77)"/><path class="b" d="M568.628,115.338l-.337-2.073a48.73,48.73,0,0,0-8.077-19.986l-5.245-7.551a34.034,34.034,0,0,1,32.313,29.665,33.045,33.045,0,0,0-9.388-1.3A33.8,33.8,0,0,0,568.628,115.338Z" transform="translate(-519.694 -85.693)"/><path class="b" d="M470.3,111.1l-.9,4.451h-.336a32.524,32.524,0,0,0-10.112-1.528,33.23,33.23,0,0,0-10.154,1.518,34.055,34.055,0,0,1,33.809-29.916c.365,0,.728.008,1.091.019l-4.19,6.127C474.372,98.09,472.013,104.491,470.3,111.1Z" transform="translate(-448.799 -85.626)"/><path class="b" d="M538.8,113.236l.337,2.073-.09.026a34.855,34.855,0,0,0-13.734-2.474c-5.636,0-10.722,1-14.307,2.729h-.2l.9-4.451c1.713-6.611,4.072-13.011,9.209-19.329l4.19-6.127.375.014,5.245,7.551A48.73,48.73,0,0,1,538.8,113.236Z" transform="translate(-490.204 -85.665)"/><path class="a" d="M595.9,174.848l.012.071-.1-.045Z" transform="translate(-546.964 -145.204)"/><path class="a" d="M596.564,175.273h-.415l-.034-.21Q596.344,175.166,596.564,175.273Z" transform="translate(-547.169 -145.347)"/><path class="a" d="M594.245,174.972l.034.21h-.965q.408-.133.829-.256Z" transform="translate(-545.299 -145.257)"/></g></g><g transform="translate(29.131 54.501)"><g transform="translate(0)"><g transform="translate(0 5.125)"><rect class="c" width="50.069" height="65.231" transform="translate(5.898 0) rotate(5.188)"/></g><g class="n" transform="translate(3.973 11.493)"><path class="o" d="M252.622,326.345l.746.068,43.914,5.332,4.426-61.542-2.1.389Z" transform="translate(-252.622 -270.202)"/></g><g transform="translate(2.768 7.423)"><rect class="g" width="45.019" height="60.351" transform="translate(5.457 0) rotate(5.188)"/></g><g transform="translate(20.774)"><g transform="translate(0)"><path class="p" d="M319.32,239.874l-.3-.028.018-.2c.17-1.874-1.479-3.555-3.683-3.755l-2.9-.263c-2.2-.2-4.129,1.156-4.3,3.03l-.018.2-.3-.028c-2.2-.2-4.129,1.157-4.3,3.03l-.344,3.79,19.472,1.768.344-3.79C323.173,241.755,321.524,240.074,319.32,239.874Zm-3.187-.211L311,239.2a.935.935,0,1,1,.169-1.862l5.13.466a.935.935,0,1,1-.169,1.862Z" transform="translate(-303.187 -235.61)"/></g><g class="q" transform="translate(0 8.256)"><rect class="o" width="19.552" height="1.792" transform="translate(0.162 0) rotate(5.188)"/></g></g><g transform="translate(10.217 29.919)"><g transform="translate(1.777 0)"><rect class="r" width="33.831" height="0.888" transform="translate(0.08 0) rotate(5.188)"/></g><g transform="translate(1.185 6.523)"><rect class="r" width="33.831" height="0.888" transform="translate(0.08 0) rotate(5.188)"/></g><g transform="translate(0.592 13.046)"><rect class="r" width="33.831" height="0.888" transform="matrix(0.996, 0.09, -0.09, 0.996, 0.08, 0)"/></g><g transform="translate(0 19.569)"><rect class="r" width="33.831" height="0.888" transform="translate(0.08 0) rotate(5.188)"/></g></g><g transform="translate(9.038 62.713)"><rect class="r" width="12.436" height="0.314" transform="translate(0.028 0) rotate(5.188)"/></g><g transform="translate(34.069 59.466)"><path class="r" d="M348.5,414.99a2.258,2.258,0,0,1-2.073-.188,2.317,2.317,0,0,0-2.6.453,2.187,2.187,0,0,0-.414,2.488A2.309,2.309,0,0,0,345.692,419a2.2,2.2,0,0,0,.636-.153,2.353,2.353,0,0,0,1.436.341,2.2,2.2,0,0,0,.739-4.2Zm-2.553,3.6a1.947,1.947,0,0,1-2.039-.734,1.833,1.833,0,0,1,.013-2.149A1.932,1.932,0,0,1,346,415.02a1.9,1.9,0,0,1,.3.114,2.172,2.172,0,0,0-.312,3.446Zm1.4-1.621a1.888,1.888,0,0,1-.99,1.464,1.867,1.867,0,0,1-.379-.388A1.833,1.833,0,0,1,346,415.9a1.866,1.866,0,0,1,.644-.544A1.893,1.893,0,0,1,347.352,416.968Zm.67,1.809a1.953,1.953,0,0,1-1.313-.134,2.17,2.17,0,0,0,.311-3.44,1.926,1.926,0,0,1,1.048,0,1.842,1.842,0,0,1-.046,3.569Z" transform="translate(-343.202 -414.589)"/></g></g></g><g transform="translate(3.156 76.299)"><g transform="translate(33.038 27.495)"><path class="f" d="M261.924,383.97l3.175.35.135,1.1,1.994,1.362-.846,1.28-4.115-1.315Z" transform="translate(-261.924 -383.97)"/></g><path class="s" d="M162.486,311.8l11.494,12.1,5.2,1.965,16.931,6.068-.321-3.878-17.011-9.029L169,301.216l-4.489,2.469Z" transform="translate(-162.486 -301.216)"/></g></g></g></svg>