<svg xmlns="http://www.w3.org/2000/svg" width="63.556" height="63.556" viewBox="0 0 63.556 63.556"><defs><style>.a{fill:#fff;}</style></defs><path class="a" d="M126.555,53.153a5.531,5.531,0,0,1,3.209-2.939V44.936a5.592,5.592,0,0,1,5.586-5.586h3.2a5.56,5.56,0,0,1,1.862.32V5.586A5.592,5.592,0,0,0,134.826,0H97.586A5.592,5.592,0,0,0,92,5.586V8.317h32.026a7.456,7.456,0,0,1,7.448,7.448V33.143a7.456,7.456,0,0,1-7.448,7.448H92V57.97a5.592,5.592,0,0,0,5.586,5.586h33.6l-3.8-4.433a5.53,5.53,0,0,1-.834-5.969Z" transform="translate(-80.58)"/><path class="a" d="M408.733,357.551h-1.858v-8.689A1.862,1.862,0,0,0,405.013,347h-3.2a1.862,1.862,0,0,0-1.862,1.862v8.689h-1.858a1.862,1.862,0,0,0-1.414,3.074l5.32,6.207a1.862,1.862,0,0,0,2.827,0l5.32-6.207a1.862,1.862,0,0,0-1.414-3.074Z" transform="translate(-347.043 -303.926)"/><path class="a" d="M175.98,157h-2.272c0,1.517.007,4,.007,4.952,0,1.137.007,3.51.012,4.973.806,0,1.8-.012,2.335-.021,2.536-.044,3.69-2.591,3.69-4.938C179.752,159.565,178.761,157,175.98,157Z" transform="translate(-152.145 -137.511)"/><path class="a" d="M79.314,157H77.1c0,.822,0,1.825,0,2.262,0,.515,0,1.482.008,2.27.765,0,1.694-.008,2.2-.008a2.263,2.263,0,1,0,0-4.523Z" transform="translate(-67.532 -137.511)"/><path class="a" d="M47.17,118.1V100.724A3.724,3.724,0,0,0,43.446,97H3.724A3.724,3.724,0,0,0,0,100.724V118.1a3.724,3.724,0,0,0,3.724,3.724H43.446A3.724,3.724,0,0,0,47.17,118.1Zm-35.388-6.649c-.507,0-1.447,0-2.215.008v4.157a1.241,1.241,0,0,1-2.483,0V103.211a1.241,1.241,0,0,1,1.241-1.245h3.456a4.745,4.745,0,1,1,0,9.489Zm16.725,3.067a5.762,5.762,0,0,1-4.548,2.313c-1,.018-3.5.027-3.61.028h0a1.241,1.241,0,0,1-1.241-1.237c0-.045-.016-4.518-.016-6.225,0-1.415-.009-6.19-.009-6.191a1.241,1.241,0,0,1,1.241-1.244h3.516c3.741,0,6.254,2.993,6.254,7.448a8.411,8.411,0,0,1-1.581,5.107Zm10.337-10.073h-3.79v3.606h3.39a1.241,1.241,0,1,1,0,2.483h-3.39v5.083a1.241,1.241,0,0,1-2.483,0V103.207a1.241,1.241,0,0,1,1.241-1.241h5.031a1.241,1.241,0,1,1,0,2.483Z" transform="translate(0 -84.959)"/></svg>