<svg xmlns="http://www.w3.org/2000/svg" width="28" height="28" viewBox="0 0 28 28"><defs><style>.a{fill:#fff;}</style></defs><path class="a" d="M107.224,23.417a2.437,2.437,0,0,1,1.414-1.295V19.8a2.464,2.464,0,0,1,2.461-2.461h1.409a2.449,2.449,0,0,1,.82.141V2.461A2.464,2.464,0,0,0,110.867,0H94.461A2.464,2.464,0,0,0,92,2.461v1.2h14.109a3.285,3.285,0,0,1,3.281,3.281V14.6a3.285,3.285,0,0,1-3.281,3.281H92v7.656A2.464,2.464,0,0,0,94.461,28h14.8l-1.674-1.953A2.436,2.436,0,0,1,107.224,23.417Z" transform="translate(-86.969)"/><path class="a" d="M401.737,351.648h-.819V347.82a.82.82,0,0,0-.82-.82h-1.409a.82.82,0,0,0-.82.82v3.828h-.819a.82.82,0,0,0-.623,1.354l2.344,2.734a.82.82,0,0,0,1.246,0L402.36,353A.82.82,0,0,0,401.737,351.648Z" transform="translate(-374.559 -328.023)"/><path class="a" d="M174.709,157h-1c0,.668,0,1.761,0,2.181,0,.5,0,1.546.005,2.191.355,0,.794-.005,1.029-.009,1.117-.02,1.626-1.141,1.626-2.176C176.371,158.13,175.934,157,174.709,157Z" transform="translate(-164.208 -148.414)"/><path class="a" d="M78.077,157H77.1c0,.362,0,.8,0,1,0,.227,0,.653,0,1l.968,0a1,1,0,1,0,0-1.993Z" transform="translate(-72.886 -148.414)"/><path class="a" d="M20.781,106.3V98.641A1.641,1.641,0,0,0,19.141,97H1.641A1.641,1.641,0,0,0,0,98.641V106.3a1.641,1.641,0,0,0,1.641,1.641h17.5A1.641,1.641,0,0,0,20.781,106.3Zm-15.59-2.929-.976,0V105.2a.547.547,0,1,1-1.094,0V99.736a.547.547,0,0,1,.547-.549H5.191a2.09,2.09,0,1,1,0,4.18Zm7.368,1.351a2.538,2.538,0,0,1-2,1.019c-.44.008-1.544.012-1.591.012h0a.547.547,0,0,1-.547-.545c0-.02-.007-1.991-.007-2.742,0-.624,0-2.727,0-2.727a.547.547,0,0,1,.547-.548H10.5c1.648,0,2.755,1.319,2.755,3.281a3.706,3.706,0,0,1-.7,2.25Zm4.554-4.438h-1.67v1.589h1.494a.547.547,0,0,1,0,1.094H15.443V105.2a.547.547,0,0,1-1.094,0V99.734a.547.547,0,0,1,.547-.547h2.217a.547.547,0,1,1,0,1.094Z" transform="translate(0 -91.695)"/></svg>