<svg xmlns="http://www.w3.org/2000/svg" width="26.547" height="25.312" viewBox="0 0 26.547 25.312"><defs><style>.a{fill:#4f4d4e;stroke:#fff;stroke-width:0.3px;}</style></defs><g transform="translate(0.153 -4.517)"><path class="a" d="M30.1,102.537a.869.869,0,0,1,1.164-.393,14.062,14.062,0,0,0,2.953,1.015l1.641-5.443L34.163,81.592a.869.869,0,1,1,1.728-.182l1.14,10.843,12.541-1.186a.869.869,0,0,1,.164,1.73l-.665.063,2.992,9.222a9.323,9.323,0,0,0,2.683-1.545.869.869,0,0,1,1.154,1.3c-4.753,4.222-19.061,5.011-25.408,1.865A.869.869,0,0,1,30.1,102.537Zm17.2-9.509-10.086.954.3,2.873,10.7-1Zm3.122,9.623-1.656-5.1L37.4,98.611,35.93,103.5a35.409,35.409,0,0,0,14.491-.846Z" transform="translate(-30.009 -75.961)"/></g></svg>