<svg xmlns="http://www.w3.org/2000/svg" width="60" height="60" viewBox="0 0 60 60"><defs><style>.a{fill:#fff;}</style></defs><g transform="translate(0 0)"><g transform="translate(0 0)"><path class="a" d="M51.21,8.783A30,30,0,1,0,60,29.993,30,30,0,0,0,51.21,8.783ZM45.434,41.789l0,0v-.01l-1.52,1.51a8,8,0,0,1-7.55,2.16,26.582,26.582,0,0,1-7.72-3.46,35.669,35.669,0,0,1-6.09-4.91A35.942,35.942,0,0,1,18,31.563a28,28,0,0,1-3.42-6.92,8,8,0,0,1,2-8.17l1.78-1.78a1.27,1.27,0,0,1,1.8,0l0,0,5.62,5.62a1.27,1.27,0,0,1,0,1.8l0,0-3.3,3.3a2.69,2.69,0,0,0-.28,3.5,38.593,38.593,0,0,0,3.95,4.61,38.358,38.358,0,0,0,5.2,4.37,2.71,2.71,0,0,0,3.46-.3L38,34.353a1.27,1.27,0,0,1,1.8,0l0,0,5.63,5.64A1.27,1.27,0,0,1,45.434,41.789Z" transform="translate(0 0)"/></g></g></svg>