<svg xmlns="http://www.w3.org/2000/svg" width="19.24" height="18.906" viewBox="0 0 19.24 18.906"><defs><style>.a{fill:#fed843;}</style></defs><g transform="translate(-6.912 0.001)"><g transform="translate(6.912 -0.001)"><g transform="translate(0 0)"><path class="a" d="M134.541,18.786l-4.8-2.492-4.8,2.492a1.062,1.062,0,0,1-1.537-1.117l.886-5.334L120.439,8.54a1.062,1.062,0,0,1,.587-1.808l5.322-.8L128.773.568a1.109,1.109,0,0,1,1.937,0l2.425,5.363,5.322.8a1.062,1.062,0,0,1,.587,1.808l-3.852,3.795.886,5.334a1.062,1.062,0,0,1-1.537,1.117Z" transform="translate(-120.121 0.001)"/></g></g></g></svg>