<svg xmlns="http://www.w3.org/2000/svg" width="28.006" height="25.3" viewBox="0 0 28.006 25.3"><defs><style>.a{fill:#2b3a67;stroke:#f8f8f8;stroke-width:0.3px;}</style></defs><g transform="translate(0.15 -24.85)"><path class="a" d="M99.543,249H97.812a.812.812,0,1,0,0,1.623h1.732a.812.812,0,1,0,0-1.623Z" transform="translate(-91.751 -211.879)"/><path class="a" d="M99.543,313H97.812a.812.812,0,1,0,0,1.623h1.732a.812.812,0,1,0,0-1.623Z" transform="translate(-91.751 -272.416)"/><path class="a" d="M99.543,377H97.812a.812.812,0,1,0,0,1.623h1.732a.812.812,0,1,0,0-1.623Z" transform="translate(-91.751 -332.952)"/><path class="a" d="M227.543,249h-1.732a.812.812,0,0,0,0,1.623h1.732a.812.812,0,1,0,0-1.623Z" transform="translate(-212.825 -211.879)"/><path class="a" d="M227.543,313h-1.732a.812.812,0,0,0,0,1.623h1.732a.812.812,0,1,0,0-1.623Z" transform="translate(-212.825 -272.416)"/><path class="a" d="M227.543,377h-1.732a.812.812,0,1,0,0,1.623h1.732a.812.812,0,1,0,0-1.623Z" transform="translate(-212.825 -332.952)"/><path class="a" d="M355.543,249h-1.732a.812.812,0,1,0,0,1.623h1.732a.812.812,0,1,0,0-1.623Z" transform="translate(-333.898 -211.879)"/><path class="a" d="M355.543,313h-1.732a.812.812,0,1,0,0,1.623h1.732a.812.812,0,1,0,0-1.623Z" transform="translate(-333.898 -272.416)"/><path class="a" d="M355.543,377h-1.732a.812.812,0,1,0,0,1.623h1.732a.812.812,0,1,0,0-1.623Z" transform="translate(-333.898 -332.952)"/><path class="a" d="M25.271,27.165H23.323V25.812a.812.812,0,0,0-1.623,0v1.353H14.665V25.812a.812.812,0,0,0-1.623,0v1.353H6.006V25.812a.812.812,0,0,0-1.623,0v1.353H2.435A2.438,2.438,0,0,0,0,29.6V47.565A2.438,2.438,0,0,0,2.435,50H25.271a2.438,2.438,0,0,0,2.435-2.435V29.6A2.438,2.438,0,0,0,25.271,27.165ZM1.623,29.6a.813.813,0,0,1,.812-.812H4.383v1.353a.812.812,0,0,0,1.623,0V28.788h7.035v1.353a.812.812,0,0,0,1.623,0V28.788H21.7v1.353a.812.812,0,0,0,1.623,0V28.788h1.948a.813.813,0,0,1,.812.812v3.193H1.623ZM25.271,48.377H2.435a.813.813,0,0,1-.812-.812V34.416H26.082V47.565A.813.813,0,0,1,25.271,48.377Z"/></g></svg>