<svg xmlns="http://www.w3.org/2000/svg" width="14" height="16.471" viewBox="0 0 14 16.471"><defs><style>.a{fill:#fff;}</style></defs><path class="a" d="M17.735,4H8.265A2.267,2.267,0,0,0,6,6.265V18.206a2.267,2.267,0,0,0,2.265,2.265h9.471A2.267,2.267,0,0,0,20,18.206V6.265A2.267,2.267,0,0,0,17.735,4ZM16.088,18H9.912a.618.618,0,1,1,0-1.235h6.176a.618.618,0,1,1,0,1.235Zm0-3.294H9.912a.618.618,0,0,1,0-1.235h6.176a.618.618,0,0,1,0,1.235Zm0-2.882H9.912a.618.618,0,0,1,0-1.235h6.176a.618.618,0,0,1,0,1.235Zm0-3.294H9.912a.618.618,0,0,1,0-1.235h6.176a.618.618,0,1,1,0,1.235Z" transform="translate(-6 -4)"/></svg>