<svg xmlns="http://www.w3.org/2000/svg" width="21" height="21" viewBox="0 0 21 21"><defs><style>.a{fill:#f44336;}.b{fill:#fafafa;}</style></defs><path class="a" d="M10.5,0A10.5,10.5,0,1,0,21,10.5,10.512,10.512,0,0,0,10.5,0Zm0,0"/><path class="b" d="M163.461,162.224a.875.875,0,1,1-1.237,1.237l-2.629-2.629-2.629,2.629a.875.875,0,0,1-1.237-1.237l2.629-2.629-2.629-2.629a.875.875,0,0,1,1.237-1.237l2.629,2.629,2.629-2.629a.875.875,0,0,1,1.237,1.237l-2.629,2.629Zm0,0" transform="translate(-149.095 -149.094)"/></svg>