<svg xmlns="http://www.w3.org/2000/svg" width="21" height="21" viewBox="0 0 21 21"><defs><style>.a{fill:#f1b02e;}.b{fill:#fff;}</style></defs><g transform="translate(-801 -1174)"><g transform="translate(801 1174)"><path class="a" d="M10.5,0A10.5,10.5,0,1,0,21,10.5,10.5,10.5,0,0,0,10.5,0Z"/></g><g transform="translate(801 1173.996)"><path class="b" d="M10.5,4.6C9.749,4.6,9.18,5,9.18,5.631v5.814c0,.635.569,1.026,1.321,1.026.734,0,1.321-.408,1.321-1.026V5.631C11.822,5.012,11.234,4.6,10.5,4.6Zm0,9.176a1.311,1.311,0,1,0,1.31,1.311A1.312,1.312,0,0,0,10.5,13.781Z"/></g></g></svg>