<svg xmlns="http://www.w3.org/2000/svg" width="17.227" height="15.729" viewBox="0 0 17.227 15.729"><defs><style>.a{fill:#fff;}</style></defs><g transform="translate(-164 -116)"><g transform="translate(164 116)"><path class="a" d="M193.811,120.074l-.329.329V119.37a3.374,3.374,0,0,0-3.37-3.37H183.37a3.374,3.374,0,0,0-3.37,3.37v1.5a1.123,1.123,0,0,0,2.247,0v-1.5a1.125,1.125,0,0,1,1.123-1.123h6.741a1.125,1.125,0,0,1,1.123,1.123V120.4l-.329-.329a1.123,1.123,0,1,0-1.589,1.589l2.247,2.247a1.123,1.123,0,0,0,1.589,0l2.247-2.247a1.123,1.123,0,1,0-1.589-1.589Z" transform="translate(-178.502 -116)"/><path class="a" d="M178.605,198.247a1.123,1.123,0,0,0-1.123,1.123v1.5a1.125,1.125,0,0,1-1.123,1.123h-6.741a1.125,1.125,0,0,1-1.123-1.123v-1.033l.329.329a1.123,1.123,0,1,0,1.589-1.589l-2.247-2.247a1.123,1.123,0,0,0-1.589,0l-2.247,2.247a1.123,1.123,0,1,0,1.589,1.589l.329-.329v1.033a3.374,3.374,0,0,0,3.37,3.37h6.741a3.374,3.374,0,0,0,3.37-3.37v-1.5A1.123,1.123,0,0,0,178.605,198.247Z" transform="translate(-164 -188.511)"/></g></g></svg>