<svg xmlns="http://www.w3.org/2000/svg" width="34.818" height="31.36" viewBox="0 0 34.818 31.36"><defs><style>.a{fill:#4f4d4e;stroke:#fff;stroke-width:1.7px;}</style></defs><g transform="translate(-23.113 -47.15)"><path class="a" d="M25.71,70.816a1.706,1.706,0,0,0,1.21-.5l9.627-9.627,3.923,3.924a1.711,1.711,0,0,0,2.42,0L53.658,53.843V57.7a1.711,1.711,0,0,0,3.422,0V49.711A1.711,1.711,0,0,0,55.37,48H47.384a1.711,1.711,0,1,0,0,3.422h3.854l-9.558,9.558-3.923-3.924a1.711,1.711,0,0,0-2.42,0L24.5,67.894a1.711,1.711,0,0,0,1.21,2.921Z"/><path class="a" d="M55.371,416H25.711a1.711,1.711,0,0,0,0,3.422h29.66a1.711,1.711,0,1,0,0-3.422Z" transform="translate(-0.001 -341.762)"/></g></svg>