<svg xmlns="http://www.w3.org/2000/svg" width="60" height="59.999" viewBox="0 0 60 59.999"><defs><style>.a{fill:#fff;}</style></defs><path class="a" d="M6871-13999a29.808,29.808,0,0,1-11.678-2.357,29.906,29.906,0,0,1-9.536-6.428,29.885,29.885,0,0,1-6.43-9.536A29.807,29.807,0,0,1,6841-14029a29.807,29.807,0,0,1,2.358-11.677,29.884,29.884,0,0,1,6.43-9.537,29.928,29.928,0,0,1,9.536-6.43A29.812,29.812,0,0,1,6871-14059a29.832,29.832,0,0,1,11.67,2.366,29.939,29.939,0,0,1,9.531,6.43,29.933,29.933,0,0,1,6.43,9.533A29.837,29.837,0,0,1,6901-14029a29.807,29.807,0,0,1-2.357,11.677,29.9,29.9,0,0,1-6.43,9.536,29.9,29.9,0,0,1-9.535,6.428A29.8,29.8,0,0,1,6871-13999Zm-14.187-28.688a1.016,1.016,0,0,0-1.016,1.013,1.013,1.013,0,0,0,.3.72l14.184,14.2a1,1,0,0,0,.716.3,1,1,0,0,0,.716-.3l14.188-14.2a1.026,1.026,0,0,0,.222-1.108,1.016,1.016,0,0,0-.938-.624h-7.092v-15.183a1.016,1.016,0,0,0-1.013-1.017h-12.162a1.016,1.016,0,0,0-1.013,1.017v15.183Z" transform="translate(-6841 14059.001)"/></svg>