<svg xmlns="http://www.w3.org/2000/svg" xmlns:xlink="http://www.w3.org/1999/xlink" width="44" height="44" viewBox="0 0 44 44"><defs><style>.a{fill:url(#a);}.b{fill:#fff;}.c{filter:url(#b);}</style><linearGradient id="a" x1="0.5" x2="0.5" y2="1" gradientUnits="objectBoundingBox"><stop offset="0" stop-color="#2b3a67"/><stop offset="1" stop-color="#161d34"/></linearGradient><filter id="b" x="0" y="0" width="44" height="44" filterUnits="userSpaceOnUse"><feOffset dy="2" input="SourceAlpha"/><feGaussianBlur stdDeviation="3" result="c"/><feFlood flood-opacity="0.161"/><feComposite operator="in" in2="c"/><feComposite in="SourceGraphic"/></filter></defs><g transform="translate(-1281 -751)"><g class="c" transform="matrix(1, 0, 0, 1, 1281, 751)"><rect class="a" width="26" height="26" rx="4" transform="translate(9 7)"/></g><g transform="translate(1294 754.489)"><path class="b" d="M16.558,211.8v-9.314h-3.1V211.8H12.419v-7.244h-3.1V211.8H8.279v-5.174h-3.1V211.8H4.14v-3.622h-3.1V211.8H0v1.035H17.593V211.8Z" transform="translate(0 -188.252)"/><path class="b" d="M31.571,16.824a1.551,1.551,0,0,0,1.359-2.3l2.2-2.47a1.556,1.556,0,0,0,1.607-.269l1.59.894a1.552,1.552,0,1,0,2.95-.357l2-1.879a1.552,1.552,0,0,0,1.811-2.476h0a1.552,1.552,0,0,0-2.519,1.721l-2,1.879a1.556,1.556,0,0,0-1.735.21l-1.59-.894a1.552,1.552,0,1,0-2.887.484l-2.2,2.47a1.552,1.552,0,1,0-.586,2.989Z" transform="translate(-28.984 0)"/></g></g></svg>