<svg xmlns="http://www.w3.org/2000/svg" width="37.2" height="30.36" viewBox="0 0 37.2 30.36"><defs><style>.a{fill:#4f4d4e;stroke:#fff;stroke-width:0.7px;}</style></defs><g transform="translate(0.32 -57.175)"><g transform="translate(0.001 57.525)"><g transform="translate(0 0)"><path class="a" d="M18.26,84.9A12.557,12.557,0,0,1,6.18,75.777H9.89c.352-.342.537-.805.185-1.148L5.79,70.3a.922.922,0,0,0-1.277,0L.257,74.63c-.505.593-.168.805.185,1.148h3.4A14.817,14.817,0,0,0,30.88,80.136l-2.148-.858A12.549,12.549,0,0,1,18.26,84.9Zm17.893-14.83H32.91A14.832,14.832,0,0,0,5.1,65.5l2.126.85A12.559,12.559,0,0,1,30.6,70.074h-3.9c-.352.342-.69.554-.185,1.148l4.256,4.328a.922.922,0,0,0,1.277,0l4.285-4.328C36.69,70.879,36.505,70.416,36.153,70.074Z" transform="translate(-0.001 -57.525)"/></g></g></g></svg>