<?xml version="1.0" encoding="utf-8"?>
<!-- Generator: Adobe Illustrator 16.0.0, SVG Export Plug-In . SVG Version: 6.00 Build 0)  -->
<!DOCTYPE svg PUBLIC "-//W3C//DTD SVG 1.1//EN" "http://www.w3.org/Graphics/SVG/1.1/DTD/svg11.dtd">
<svg version="1.1" id="Layer_1" xmlns="http://www.w3.org/2000/svg" xmlns:xlink="http://www.w3.org/1999/xlink" x="0px" y="0px"
	 width="2918.88px" height="1578.15px" viewBox="0 0 2918.88 1578.15" enable-background="new 0 0 2918.88 1578.15"
	 xml:space="preserve">
<g>
	<defs>
		<rect id="SVGID_1_" width="2918.88" height="1578.15"/>
	</defs>
	<clipPath id="SVGID_2_">
		<use xlink:href="#SVGID_1_"  overflow="visible"/>
	</clipPath>
	<g clip-path="url(#SVGID_2_)">
		<defs>
			<rect id="SVGID_3_" y="0.001" width="2918.876" height="1578.149"/>
		</defs>
		<clipPath id="SVGID_4_">
			<use xlink:href="#SVGID_3_"  overflow="visible"/>
		</clipPath>
		<path clip-path="url(#SVGID_4_)" fill="#FFEFE0" d="M374.43,1572.651c0,0-315.306-405.943-225.402-769.79
			C238.932,439.014,379.269,20.986,877.522,68.459c657.898,62.685,991.902-67.238,1241.277-33.619
			c249.375,33.619,603.797,126.03,741.488,580.497c137.692,454.468-10.498,957.313-10.498,957.313H374.43z"/>
		<rect x="964.284" y="34.508" clip-path="url(#SVGID_4_)" fill="#E2F2F1" width="517.89" height="354.452"/>
		<rect x="964.284" y="433.666" clip-path="url(#SVGID_4_)" fill="#E2F2F1" width="517.89" height="932.433"/>
		<path clip-path="url(#SVGID_4_)" fill="#21111D" d="M1515.276,1391.1H931.183V0.001h584.093V1391.1z M934.4,1387.867h577.659
			V3.235H934.4V1387.867z"/>
		<path clip-path="url(#SVGID_4_)" fill="#21111D" d="M1483.782,390.577H962.675V32.892h521.107V390.577z M965.893,387.344h514.671
			V36.125H965.893V387.344z"/>
		<path clip-path="url(#SVGID_4_)" fill="#21111D" d="M1483.782,1367.716H962.675V432.049h521.107V1367.716z M965.893,1364.483
			h514.671v-929.2H965.893V1364.483z"/>
		<polygon clip-path="url(#SVGID_4_)" fill="#21111D" points="1073.116,226.081 1071.085,223.573 1245.22,81.153 1247.251,83.662 		
			"/>
		<polygon clip-path="url(#SVGID_4_)" fill="#21111D" points="1118.884,239.484 1116.833,236.992 1222.205,149.497 
			1224.254,151.989 		"/>
		<polygon clip-path="url(#SVGID_4_)" fill="#21111D" points="1269.72,849.906 1267.238,847.848 1375.278,716.2 1377.76,718.256 		
			"/>
		<polygon clip-path="url(#SVGID_4_)" fill="#21111D" points="1319.949,837.018 1317.422,835.016 1383.517,750.714 
			1386.044,752.716 		"/>
		<rect x="291.862" y="34.508" clip-path="url(#SVGID_4_)" fill="#E2F2F1" width="517.89" height="354.452"/>
		<rect x="291.862" y="433.666" clip-path="url(#SVGID_4_)" fill="#E2F2F1" width="517.89" height="932.433"/>
		<path clip-path="url(#SVGID_4_)" fill="#21111D" d="M842.854,1391.1H258.76V0.001h584.094V1391.1z M261.978,1387.867h577.659
			V3.235H261.978V1387.867z"/>
		<path clip-path="url(#SVGID_4_)" fill="#21111D" d="M811.361,390.577H290.254V32.892h521.107V390.577z M293.471,387.344h514.672
			V36.125H293.471V387.344z"/>
		<path clip-path="url(#SVGID_4_)" fill="#21111D" d="M811.361,1367.716H290.254V432.049h521.107V1367.716z M293.471,1364.483
			h514.672v-929.2H293.471V1364.483z"/>
		<polygon clip-path="url(#SVGID_4_)" fill="#21111D" points="400.694,226.081 398.663,223.573 572.798,81.153 574.829,83.662 		"/>
		<polygon clip-path="url(#SVGID_4_)" fill="#21111D" points="446.462,239.484 444.412,236.992 549.783,149.497 551.832,151.989 		
			"/>
		<polygon clip-path="url(#SVGID_4_)" fill="#21111D" points="550.863,813.243 548.381,811.186 656.421,679.538 658.903,681.594 		
			"/>
		<polygon clip-path="url(#SVGID_4_)" fill="#21111D" points="601.093,800.356 598.565,798.354 664.661,714.052 667.188,716.054 		
			"/>
		<rect x="2579.273" y="522.863" clip-path="url(#SVGID_4_)" fill="#683D46" width="147.883" height="196.013"/>
		<rect x="2592.761" y="537.511" clip-path="url(#SVGID_4_)" fill="#FEC786" width="120.909" height="166.716"/>
		<path clip-path="url(#SVGID_4_)" fill="#21111D" d="M2637.145,652.225c-8.086,0-15.525-2.443-21.272-7.561
			c-15.975-14.225-12.935-43.806,6.775-65.94c9.484-10.651,21.383-18.035,33.504-20.793c12.313-2.8,23.397-0.51,31.212,6.449
			c7.814,6.958,11.369,17.704,10.009,30.258c-1.339,12.358-7.3,25.03-16.784,35.681
			C2667.971,644.489,2651.53,652.225,2637.145,652.225 M2666.084,559.908c-2.956,0-6.048,0.358-9.236,1.083
			c-11.489,2.614-22.803,9.652-31.856,19.82c-18.558,20.841-21.714,48.434-7.032,61.508c14.684,13.073,41.727,6.753,60.284-14.088
			c9.055-10.167,14.739-22.218,16.009-33.932c1.247-11.517-1.939-21.311-8.977-27.576
			C2680.227,562.227,2673.6,559.908,2666.084,559.908"/>
		<path clip-path="url(#SVGID_4_)" fill="#21111D" d="M2669.92,676.186c-14.248,0.001-35.767-21.294-52.197-52.854
			c-8.819-16.94-14.707-34.143-16.577-48.44c-1.938-14.823,0.712-24.922,7.465-28.437c6.753-3.516,16.546,0.104,27.577,10.192
			c10.641,9.732,21.357,24.42,30.177,41.359c18.748,36.009,22.75,69.778,9.112,76.878
			C2673.792,675.762,2671.928,676.186,2669.92,676.186 M2614.2,548.292c-1.532,0-2.92,0.313-4.141,0.948
			c-5.417,2.82-7.531,12.022-5.802,25.246c1.824,13.942,7.595,30.775,16.25,47.397c15.457,29.691,36.621,51.192,49.3,51.193
			c1.54,0.001,2.954-0.317,4.219-0.975c11.675-6.079,6.891-39.345-10.446-72.644c-8.654-16.622-19.135-31.002-29.511-40.493
			C2626.444,551.991,2619.473,548.292,2614.2,548.292"/>
		<rect x="2415.669" y="673.081" clip-path="url(#SVGID_4_)" fill="#683D46" width="99.019" height="148.424"/>
		<rect x="2424.699" y="684.173" clip-path="url(#SVGID_4_)" fill="#F75553" width="80.958" height="126.24"/>
		<path clip-path="url(#SVGID_4_)" fill="#21111D" d="M2438.712,752.808v-61.521l33.831,4.871v51.78L2438.712,752.808z
			 M2441.851,694.911v54.274l27.554-3.966v-46.342L2441.851,694.911z"/>
		<path clip-path="url(#SVGID_4_)" fill="#21111D" d="M2462.151,797.316c-1.868,0-3.679-0.32-5.404-0.972
			c-6.152-2.322-10.354-8.511-11.833-17.424c-1.427-8.605-0.148-18.814,3.6-28.743c3.748-9.929,9.534-18.435,16.293-23.951
			c6.998-5.714,14.241-7.581,20.395-5.258c6.152,2.322,10.355,8.51,11.833,17.424c1.427,8.605,0.149,18.813-3.599,28.743
			c-3.748,9.929-9.535,18.435-16.293,23.952C2472.105,795.197,2466.942,797.316,2462.151,797.316 M2479.752,723.127
			c-10.084,0-22.002,11.471-28.302,28.159c-3.556,9.42-4.777,19.052-3.439,27.121c1.287,7.762,4.783,13.089,9.845,15
			c5.062,1.91,11.207,0.224,17.302-4.753c6.337-5.172,11.784-13.208,15.341-22.628c3.556-9.42,4.777-19.051,3.439-27.122
			c-1.287-7.761-4.783-13.089-9.845-15C2482.702,723.38,2481.247,723.127,2479.752,723.127"/>
		<rect x="2414.896" y="426.637" clip-path="url(#SVGID_4_)" fill="#683D46" width="91.03" height="138.891"/>
		<rect x="2423.197" y="437.017" clip-path="url(#SVGID_4_)" fill="#61A3C5" width="74.428" height="118.132"/>
		<path clip-path="url(#SVGID_4_)" fill="#21111D" d="M2477.512,504.954l-44.944-2.078l25.199-52.477L2477.512,504.954z
			 M2437.45,499.958l35.509,1.643l-15.6-43.103L2437.45,499.958z"/>
		<path clip-path="url(#SVGID_4_)" fill="#21111D" d="M2453.457,534.332c-3.074,0.001-5.803-0.843-8.027-2.526
			c-4.313-3.263-6.104-9.207-5.038-16.735c1.019-7.199,4.545-15.085,9.931-22.203c11.504-15.208,27.378-21.928,36.139-15.302
			c4.313,3.263,6.103,9.207,5.039,16.735c-1.02,7.2-4.547,15.085-9.932,22.203c-5.386,7.12-12.014,12.658-18.664,15.597
			C2459.537,533.589,2456.344,534.332,2453.457,534.332 M2478.488,478.21c-7.609,0-17.937,6.337-25.663,16.55
			c-5.067,6.701-8.381,14.07-9.325,20.749c-0.898,6.35,0.459,11.248,3.823,13.793c3.363,2.544,8.446,2.518,14.313-0.073
			c6.171-2.727,12.36-7.918,17.429-14.619c5.07-6.701,8.381-14.069,9.326-20.749c0.898-6.35-0.46-11.248-3.823-13.793
			C2482.898,478.807,2480.82,478.21,2478.488,478.21"/>
		<path clip-path="url(#SVGID_4_)" fill="#FFFFFF" d="M1372.204,456.43h223.045c4.514,0,8.171-3.658,8.171-8.17V316.99
			c0-4.513-3.657-8.171-8.171-8.171h-223.045c-4.513,0-8.171,3.658-8.171,8.171V448.26
			C1364.033,452.772,1367.691,456.43,1372.204,456.43"/>
		<path clip-path="url(#SVGID_4_)" fill="#61A3C5" d="M1386.515,335.695h199.61c1.383,0,2.501-1.12,2.501-2.501
			c0-1.382-1.118-2.501-2.501-2.501h-199.61c-1.382,0-2.501,1.119-2.501,2.501C1384.013,334.575,1385.132,335.695,1386.515,335.695"
			/>
		<path clip-path="url(#SVGID_4_)" fill="#61A3C5" d="M1386.515,364.105h199.61c1.383,0,2.501-1.12,2.501-2.501
			c0-1.382-1.118-2.501-2.501-2.501h-199.61c-1.382,0-2.501,1.119-2.501,2.501C1384.013,362.985,1385.132,364.105,1386.515,364.105"
			/>
		<path clip-path="url(#SVGID_4_)" fill="#61A3C5" d="M1456.428,392.515h129.697c1.382,0,2.501-1.12,2.501-2.501
			c0-1.382-1.119-2.501-2.501-2.501h-129.697c-1.382,0-2.501,1.119-2.501,2.501C1453.927,391.396,1455.046,392.515,1456.428,392.515
			"/>
		<path clip-path="url(#SVGID_4_)" fill="#61A3C5" d="M1385.032,392.515h51.756c1.381,0,2.501-1.12,2.501-2.501
			c0-1.382-1.12-2.501-2.501-2.501h-51.756c-1.382,0-2.501,1.119-2.501,2.501C1382.531,391.396,1383.65,392.515,1385.032,392.515"/>
		<path clip-path="url(#SVGID_4_)" fill="#61A3C5" d="M1504.602,420.925h81.523c1.382,0,2.501-1.12,2.501-2.501
			c0-1.382-1.119-2.502-2.501-2.502h-81.523c-1.383,0-2.501,1.12-2.501,2.502C1502.101,419.806,1503.219,420.925,1504.602,420.925"
			/>
		<path clip-path="url(#SVGID_4_)" fill="#61A3C5" d="M1385.032,420.925h101.288c1.381,0,2.501-1.12,2.501-2.501
			c0-1.382-1.12-2.502-2.501-2.502h-101.288c-1.382,0-2.501,1.12-2.501,2.502C1382.531,419.806,1383.65,420.925,1385.032,420.925"/>
		<path clip-path="url(#SVGID_4_)" fill="#FFFFFF" d="M1437.236,449.905c-0.247,0.988-38.786,51.138-39.033,49.656
			s4.447-53.856,4.447-53.856L1437.236,449.905z"/>
		<path clip-path="url(#SVGID_4_)" fill="#FFFFFF" d="M764.956,730.889h223.045c4.513,0,8.171-3.658,8.171-8.17V615.215
			c0-4.513-3.658-8.171-8.171-8.171H764.956c-4.512,0-8.17,3.658-8.17,8.171v107.504
			C756.786,727.231,760.444,730.889,764.956,730.889"/>
		<path clip-path="url(#SVGID_4_)" fill="#61A3C5" d="M779.266,638.564h199.611c1.382,0,2.501-1.12,2.501-2.501
			c0-1.382-1.119-2.502-2.501-2.502H779.266c-1.382,0-2.501,1.12-2.501,2.502C776.765,637.444,777.884,638.564,779.266,638.564"/>
		<path clip-path="url(#SVGID_4_)" fill="#61A3C5" d="M849.18,666.974h129.697c1.382,0,2.501-1.119,2.501-2.501
			c0-1.382-1.119-2.501-2.501-2.501H849.18c-1.382,0-2.501,1.119-2.501,2.501C846.679,665.855,847.798,666.974,849.18,666.974"/>
		<path clip-path="url(#SVGID_4_)" fill="#61A3C5" d="M777.784,666.974h51.756c1.382,0,2.501-1.119,2.501-2.501
			c0-1.382-1.119-2.501-2.501-2.501h-51.756c-1.382,0-2.501,1.119-2.501,2.501C775.283,665.855,776.402,666.974,777.784,666.974"/>
		<path clip-path="url(#SVGID_4_)" fill="#61A3C5" d="M897.353,695.384h81.524c1.382,0,2.501-1.12,2.501-2.501
			c0-1.382-1.119-2.501-2.501-2.501h-81.524c-1.382,0-2.501,1.119-2.501,2.501C894.852,694.264,895.971,695.384,897.353,695.384"/>
		<path clip-path="url(#SVGID_4_)" fill="#61A3C5" d="M777.784,695.384h101.288c1.381,0,2.501-1.12,2.501-2.501
			c0-1.382-1.12-2.501-2.501-2.501H777.784c-1.382,0-2.501,1.119-2.501,2.501C775.283,694.264,776.402,695.384,777.784,695.384"/>
		<path clip-path="url(#SVGID_4_)" fill="#FFFFFF" d="M829.988,724.364c-0.247,0.988-38.786,51.139-39.033,49.656
			c-0.247-1.482,4.447-53.855,4.447-53.855L829.988,724.364z"/>
		<path clip-path="url(#SVGID_4_)" fill="#FFFFFF" d="M2176.403,669.458h-223.045c-4.513,0-8.171-3.658-8.171-8.171V553.783
			c0-4.513,3.658-8.171,8.171-8.171h223.045c4.513,0,8.171,3.658,8.171,8.171v107.504
			C2184.574,665.8,2180.916,669.458,2176.403,669.458"/>
		<path clip-path="url(#SVGID_4_)" fill="#61A3C5" d="M2162.094,577.133h-199.609c-1.383,0-2.502-1.12-2.502-2.501
			c0-1.382,1.119-2.501,2.502-2.501h199.609c1.382,0,2.502,1.119,2.502,2.501C2164.596,576.013,2163.476,577.133,2162.094,577.133"
			/>
		<path clip-path="url(#SVGID_4_)" fill="#61A3C5" d="M2092.18,605.542h-129.695c-1.383,0-2.502-1.12-2.502-2.501
			c0-1.382,1.119-2.501,2.502-2.501h129.695c1.382,0,2.502,1.119,2.502,2.501C2094.682,604.423,2093.562,605.542,2092.18,605.542"/>
		<path clip-path="url(#SVGID_4_)" fill="#61A3C5" d="M2163.576,605.542h-51.756c-1.382,0-2.502-1.12-2.502-2.501
			c0-1.382,1.12-2.501,2.502-2.501h51.756c1.382,0,2.501,1.119,2.501,2.501C2166.077,604.423,2164.958,605.542,2163.576,605.542"/>
		<path clip-path="url(#SVGID_4_)" fill="#61A3C5" d="M2044.007,633.953h-81.522c-1.383,0-2.502-1.12-2.502-2.501
			c0-1.382,1.119-2.502,2.502-2.502h81.522c1.382,0,2.501,1.12,2.501,2.502C2046.508,632.833,2045.389,633.953,2044.007,633.953"/>
		<path clip-path="url(#SVGID_4_)" fill="#61A3C5" d="M2163.576,633.953h-101.288c-1.382,0-2.501-1.12-2.501-2.501
			c0-1.382,1.119-2.502,2.501-2.502h101.288c1.382,0,2.501,1.12,2.501,2.502C2166.077,632.833,2164.958,633.953,2163.576,633.953"/>
		<path clip-path="url(#SVGID_4_)" fill="#FFFFFF" d="M2111.371,662.932c0.247,0.988,38.786,51.138,39.033,49.656
			s-4.446-53.856-4.446-53.856L2111.371,662.932z"/>
		<path clip-path="url(#SVGID_4_)" fill="#FE9F73" d="M1701.486,628.318c-1.437-2.414-4.584-3.186-7.085-1.909l-15.562,7.948
			c-0.489,0.249-1.081,0.16-1.475-0.221c-0.58-0.562-0.502-1.514,0.162-1.973l21.227-14.68c2.431-1.682,2.683-4.741,0.56-6.798
			c-2.124-2.057-5.851-2.364-8.283-0.682l-21.645,14.969c-0.502,0.347-1.181,0.292-1.619-0.133l-0.31-0.302
			c-0.51-0.492-0.522-1.302-0.03-1.81l20.31-20.967c1.953-2.018,2.139-5.254,0.251-7.334c-2.066-2.279-5.594-2.308-7.7-0.133
			l-20.435,21.097c-0.492,0.508-1.303,0.521-1.81,0.029l-0.987-0.955c-0.462-0.448-0.521-1.168-0.136-1.685l16.276-21.901
			c1.675-2.254,1.437-5.486-0.705-7.304c-2.346-1.991-5.845-1.562-7.65,0.869c0,0-26.615,32.064-31.184,36.737l-3.08-14.929
			c-0.046-2.912-2.444-5.234-5.355-5.188c-2.912,0.047-5.234,2.444-5.188,5.356l-3.408,33.78c0.03,1.897,2.753,4.55,5.45,6.159
			c20.637,23.289,24.007,26.707,30.147,32.473l22.32-24.655c6.44-7.114,14.123-12.997,22.67-17.361l2.145-1.096
			C1702.055,634.342,1703.06,630.962,1701.486,628.318"/>
		<polygon clip-path="url(#SVGID_4_)" fill="#FE9F73" points="1426.718,1549.113 1356.155,1550.083 1355.144,1483.535 
			1425.428,1474.754 		"/>
		<path clip-path="url(#SVGID_4_)" fill="#3AA1C9" d="M1499.219,1561.092h-144.074v-28.99c0,0,10.479-13.916,26.436-6.813
			c0,0,23.621,17.104,44.896-3.334l53.344,22.903C1479.82,1544.858,1499.219,1551.236,1499.219,1561.092"/>
		<path clip-path="url(#SVGID_4_)" fill="#472A31" d="M1355.145,1571.24h148.339c1.1,0,1.993-0.894,1.993-1.992v-6.163
			c0-1.1-0.894-1.992-1.993-1.992h-148.339V1571.24z"/>
		<path clip-path="url(#SVGID_4_)" fill="#D7E4F7" d="M1442.267,1528.734c-4.833,7.547-14.539,22.711-20.713,32.357h-9.821
			c5.515-8.616,17.077-26.684,22.83-35.666L1442.267,1528.734z"/>
		<path clip-path="url(#SVGID_4_)" fill="#D7E4F7" d="M1437.303,1561.092h-9.82c4.487-7.012,13.237-20.686,19.433-30.362
			l7.704,3.307C1449.415,1542.168,1442.203,1553.436,1437.303,1561.092"/>
		<polygon clip-path="url(#SVGID_4_)" fill="#FE9F73" points="1284.44,1549.113 1213.877,1550.083 1212.867,1483.535 
			1283.151,1474.754 		"/>
		<path clip-path="url(#SVGID_4_)" fill="#FF424D" d="M1312.746,973.067c2.335,68.722,12.499,337.545,33.865,513.426
			c1.408,11.593,11.234,20.34,22.912,20.309c12.929-0.034,30.911-1.575,50.838-7.659c9.632-2.94,16.318-11.7,16.482-21.77
			l8.687-535.162c0.021-1.3-0.068-2.6-0.265-3.885l-0.407-2.645c-2.239-14.567-17.362-23.343-31.121-18.057l-86.184,33.106
			C1318.357,954.262,1312.412,963.22,1312.746,973.067"/>
		<path clip-path="url(#SVGID_4_)" fill="#EF3A4C" d="M1197.186,959.206c0,0-5.867,330.563,9.429,534.468
			c0.724,9.65,8.386,17.275,18.035,18.011c13.661,1.041,34.465,0.882,57.916-5.342c7.954-2.111,13.745-8.979,14.453-17.179
			l40.913-474.063l25.192-131.623L1197.186,959.206z"/>
		<path clip-path="url(#SVGID_4_)" fill="#21111D" d="M1207.849,1509.374h0.008H1207.849z"/>
		<path clip-path="url(#SVGID_4_)" fill="#4CB7D8" d="M1356.941,1561.092h-144.074v-28.99c0,0,10.48-13.916,26.436-6.813
			c0,0,23.621,17.104,44.896-3.334l53.344,22.903C1337.543,1544.858,1356.941,1551.236,1356.941,1561.092"/>
		<path clip-path="url(#SVGID_4_)" fill="#683D46" d="M1212.867,1571.24h148.339c1.1,0,1.993-0.894,1.993-1.992v-6.163
			c0-1.1-0.893-1.992-1.993-1.992h-148.339V1571.24z"/>
		<path clip-path="url(#SVGID_4_)" fill="#D7E4F7" d="M1299.989,1528.734c-4.833,7.547-14.539,22.711-20.713,32.357h-9.821
			c5.515-8.616,17.077-26.684,22.83-35.666L1299.989,1528.734z"/>
		<path clip-path="url(#SVGID_4_)" fill="#D7E4F7" d="M1295.026,1561.092h-9.821c4.488-7.012,13.237-20.686,19.434-30.362
			l7.704,3.307C1307.137,1542.168,1299.925,1553.436,1295.026,1561.092"/>
		<path clip-path="url(#SVGID_4_)" fill="#61A3C5" d="M1450.62,1041.542l0.812-1.135l-4.247-255.099
			c0,0,78.322,56.273,101.795,57.352c23.473,1.076,120.521-153.237,120.521-153.237c-20.455-50.29-63.518-57.26-63.518-57.26
			l-80.14,94.113l-93.891-91.239c-12.519-8.142-108.755-9.904-108.755-9.904s-75.547-4.159-88.065,3.983
			c-12.519,8.142-92.561,143.738-99.714,204.564c-7.154,60.826,0,100.219,43.367,107.403l15.776,0.358l1.214,100.101
			C1195.777,1041.542,1283.185,1062.617,1450.62,1041.542"/>
		<path clip-path="url(#SVGID_4_)" fill="#FECC86" d="M1605.984,632.164l-80.141,94.113l-93.889-91.239
			c-4.703-3.06-21.224-5.218-40.017-6.72l-56.423,143.992l-85.186-147.169c-29.839,0.289-37.546,7.798-44.03,12.016
			c-12.52,8.142-63.725,135.697-70.878,196.524c-7.154,60.826,0,100.219,43.367,107.403l15.777,0.358l-4.507,100.101
			c0,0,93.126,21.074,260.563,0l0.811-1.134l-4.246-255.1c0,0,78.322,56.273,101.795,57.352
			c23.473,1.077,120.522-153.237,120.522-153.237C1649.048,639.133,1605.984,632.164,1605.984,632.164"/>
		<polygon clip-path="url(#SVGID_4_)" fill="#21111D" points="1218.577,851.095 1216.792,848.833 1234.238,833.033 1240.897,746.39 
			1243.654,746.633 1236.9,834.502 		"/>
		<path clip-path="url(#SVGID_4_)" fill="#21111D" d="M1194.534,942.924l-15.957-0.376c-21.286-3.526-34.931-14.824-41.715-34.538
			c-5.888-17.104-6.781-40.781-2.814-74.515l2.743,0.369c-8.086,68.756,4.118,99.4,42.118,105.742l15.685,0.355L1194.534,942.924z"
			/>
		<path clip-path="url(#SVGID_4_)" fill="#21111D" d="M1526.814,751.45l-2.293-24.459l-90.918-88.351
			c-6.664-6.475-19.616-6.562-19.746-6.562v-2.961h0.001c0.589,0,14.146,0.084,21.603,7.329l91.707,89.116l2.397,25.591
			L1526.814,751.45z"/>
		<path clip-path="url(#SVGID_4_)" fill="#21111D" d="M1526.866,727.274l-2.044-1.995l80.646-94.706l0.739,0.13
			c0.429,0.074,43.061,8.06,64.55,58.101l-2.512,1.238c-19.33-45.013-56.155-54.989-61.765-56.265L1526.866,727.274z"/>
		<path clip-path="url(#SVGID_4_)" fill="#21111D" d="M1345.957,1051.816c-0.824,0-1.629-0.004-2.424-0.014l0.027-2.962
			c34.562,0.396,96.19-7.388,105.661-8.607l-3.426-279.45l2.765-0.039l3.459,282.106l-1.229,0.161
			C1450.111,1043.101,1383.878,1051.814,1345.957,1051.816"/>
		<path clip-path="url(#SVGID_4_)" fill="#21111D" d="M1296.948,680.476c-13.921-9.294-24.026-23.686-28.457-40.522l2.662-0.805
			c4.241,16.127,13.922,29.911,27.258,38.815L1296.948,680.476z"/>
		<path clip-path="url(#SVGID_4_)" fill="#FE9F73" d="M1300.902,518.793c0,0,20.922-8.898,39.497-2.514
			c10.755,3.698,17.9,13.924,17.9,25.297v11.122l-57.252-24.448c0,0-9.056,4.282-8.33,2.981
			C1293.444,529.931,1300.902,518.793,1300.902,518.793"/>
		<path clip-path="url(#SVGID_4_)" fill="#FE9F73" d="M1358.294,540.325v46.904c0,0,0.699,16.759-13.965,18.854l2.737,22.359
			c1.019,8.311-3.952,16.268-11.935,18.796c-3.903,1.235-8.563,2.138-13.846,2.138c-16.759,0-25.837-12.569-27.233-18.854
			c-1.397-6.284,2.793-36.31,2.793-36.31l-0.51-14.754l1.907-57.168L1358.294,540.325z"/>
		<path clip-path="url(#SVGID_4_)" fill="#21111D" d="M1317.833,562.441c-0.174,0-0.348-0.065-0.484-0.195
			c-0.278-0.267-0.287-0.709-0.02-0.987c0.096-0.1,9.7-9.924,18.477-2.853c0.299,0.242,0.347,0.681,0.105,0.981
			c-0.242,0.302-0.681,0.349-0.982,0.106c-7.776-6.265-16.236,2.363-16.593,2.733
			C1318.199,562.369,1318.016,562.441,1317.833,562.441"/>
		<path clip-path="url(#SVGID_4_)" fill="#21111D" d="M1346.618,558.251c-0.195,0-0.39-0.082-0.528-0.242
			c-0.252-0.291-0.221-0.731,0.07-0.985c0.282-0.243,6.943-5.94,11.154-2.329c0.292,0.251,0.326,0.692,0.075,0.984
			c-0.25,0.294-0.691,0.327-0.984,0.076c-3.299-2.829-9.27,2.273-9.33,2.325C1346.943,558.195,1346.78,558.251,1346.618,558.251"/>
		<path clip-path="url(#SVGID_4_)" d="M1331.954,565.262c0,1.157-0.938,2.095-2.095,2.095c-1.156,0-2.094-0.938-2.094-2.095
			c0-1.157,0.938-2.095,2.094-2.095C1331.016,563.167,1331.954,564.105,1331.954,565.262"/>
		<path clip-path="url(#SVGID_4_)" d="M1354.221,563.167c0,1.157-0.937,2.095-2.095,2.095c-1.156,0-2.094-0.938-2.094-2.095
			c0-1.157,0.938-2.095,2.094-2.095C1353.284,561.073,1354.221,562.011,1354.221,563.167"/>
		<path clip-path="url(#SVGID_4_)" fill="#FECC86" d="M1300.902,518.061c0,0-17.738-0.852-22.239,14.665
			c-4.5,15.519,3.17,23.721,3.325,28.347c0.155,4.626-2.982,35.816,18.914,33.488l5.914-51.518l-7.622-20.51L1300.902,518.061z"/>
		<path clip-path="url(#SVGID_4_)" fill="#FE9F73" d="M1314.652,564.536c0,6.941-5.627,12.569-12.569,12.569
			s-12.569-5.628-12.569-12.569c0-6.942,5.627-12.569,12.569-12.569S1314.652,557.593,1314.652,564.536"/>
		<path clip-path="url(#SVGID_4_)" fill="#F07162" d="M1301.153,572.237c-2.611,0-4.355-1.962-4.929-3.923
			c-0.679-2.321,0.099-4.574,1.983-5.744c2.783-1.728,5.307-0.619,6.599,0.231c-0.542-1.426-1.393-2.465-2.537-3.094
			c-2.476-1.363-5.548-0.37-5.579-0.36c-0.183,0.061-0.38-0.038-0.441-0.222c-0.061-0.182,0.038-0.38,0.221-0.441
			c0.137-0.046,3.384-1.099,6.131,0.408c1.586,0.871,2.664,2.412,3.206,4.58l0.304,1.215l-0.889-0.883
			c-0.125-0.126-3.114-3.032-6.647-0.84c-1.956,1.213-2.128,3.427-1.681,4.953c0.464,1.585,1.856,3.422,4.256,3.422
			c0.024,0,0.047-0.002,0.072-0.001c0.191,0,0.347,0.153,0.349,0.345c0.003,0.192-0.151,0.351-0.344,0.354
			C1301.203,572.237,1301.178,572.237,1301.153,572.237"/>
		<path clip-path="url(#SVGID_4_)" fill="#F07162" d="M1310.333,591.846c0,0,0.983,28.05,36.015,30.729l-2.019-16.492
			C1344.329,606.083,1321.609,610.647,1310.333,591.846"/>
		<path clip-path="url(#SVGID_4_)" fill="#F07162" d="M1339.344,579.393c-0.146,0-0.283-0.093-0.332-0.239
			c-0.061-0.184,0.04-0.381,0.222-0.442l7-2.314l-2.212-16.471c-0.026-0.191,0.109-0.367,0.3-0.392
			c0.192-0.031,0.367,0.108,0.392,0.299l2.289,17.045l-7.549,2.496C1339.417,579.388,1339.379,579.393,1339.344,579.393"/>
		<polygon clip-path="url(#SVGID_4_)" fill="#FE9F73" points="1296.327,598.115 1298.762,574.47 1304.632,575.12 1304.632,598.795 
					"/>
		<path clip-path="url(#SVGID_4_)" fill="#FECC86" d="M1304.185,517.595c0,0-4.112,9.813,2.632,26.181
			c6.743,16.367-17.302-6.105-17.302-6.105S1291.183,513.715,1304.185,517.595"/>
		<path clip-path="url(#SVGID_4_)" fill="#FECC86" d="M1306.816,543.776c0,0,53.377-3.162,56.667-15.667
			c3.291-12.505-9.262-12.834-9.262-12.834s2.352-17.771-13.773-12.505s-45.996,4.576-54.395,19.52
			C1277.653,537.234,1306.816,543.776,1306.816,543.776"/>
		<path clip-path="url(#SVGID_4_)" fill="#FECC86" d="M1305.708,552.698l2.301,9.743l2.324-2.911c0,0,4.563-13.985,1.413-20.705
			c-3.149-6.718-15.764,2.94-15.764,2.94L1305.708,552.698z"/>
		<polygon clip-path="url(#SVGID_4_)" fill="#EDFCFB" points="1294.151,618.384 1326.12,642.629 1346.349,622.574 1359.836,626.364 
			1346.349,662.312 1327.019,650.454 1307.078,663.613 1280.281,624.079 		"/>
		<path clip-path="url(#SVGID_4_)" fill="#FBFDFC" d="M1348.582,585.285c-0.225-0.058-14.598-1.312-14.598-1.312
			s1.429,6.069,6.77,6.549C1346.095,591.002,1348.582,585.285,1348.582,585.285"/>
		<polygon clip-path="url(#SVGID_4_)" fill="#49263E" points="1422.732,819.004 1422.388,819.004 1386.943,819.004 
			1395.905,924.545 1422.388,924.545 1422.732,924.545 1450.171,924.545 1458.177,819.004 		"/>
		<path clip-path="url(#SVGID_4_)" fill="#CE1D37" d="M1448.717,800.489h-25.985h-0.344h-25.985c-3.042,0-5.508,2.485-5.508,5.555
			h31.493h0.344h31.493C1454.225,802.974,1451.759,800.489,1448.717,800.489"/>
		<path clip-path="url(#SVGID_4_)" fill="#EF3A4C" d="M1457.389,808.892c-0.348-1.66-1.801-2.85-3.484-2.85h-31.172h-0.344h-31.173
			c-1.682,0-3.136,1.189-3.483,2.85l-2.956,14.111c-0.468,2.233,1.221,4.332,3.484,4.332h34.128h0.344h34.128
			c2.262,0,3.951-2.099,3.484-4.332L1457.389,808.892z"/>
		<polygon clip-path="url(#SVGID_4_)" fill="#EF3A4C" points="1388.695,851.408 1391.017,894.308 1422.34,894.308 1422.779,894.308 
			1454.104,894.308 1456.424,851.408 1422.779,851.408 1422.34,851.408 		"/>
		<path clip-path="url(#SVGID_4_)" fill="#21111D" d="M1454.104,895.055h-63.795l-2.359-43.607
			c-0.022-0.412,0.294-0.763,0.705-0.786c0.409-0.022,0.763,0.293,0.785,0.705l2.282,42.196h62.382c0.412,0,0.746,0.334,0.746,0.746
			S1454.516,895.055,1454.104,895.055"/>
		<path clip-path="url(#SVGID_4_)" fill="#21111D" d="M1439.359,841.013c-0.125,0-0.251-0.03-0.367-0.098
			c-0.359-0.203-0.485-0.657-0.281-1.016l6.089-10.746c0.203-0.359,0.657-0.485,1.017-0.282c0.358,0.204,0.484,0.66,0.281,1.018
			l-6.09,10.746C1439.872,840.876,1439.62,841.013,1439.359,841.013"/>
		<path clip-path="url(#SVGID_4_)" fill="#21111D" d="M1440.38,847.185c-0.127,0-0.256-0.032-0.374-0.102
			c-0.356-0.207-0.478-0.664-0.271-1.019l5.508-9.464c0.207-0.356,0.664-0.479,1.02-0.271s0.476,0.665,0.269,1.021l-5.507,9.464
			C1440.887,847.053,1440.637,847.185,1440.38,847.185"/>
		<path clip-path="url(#SVGID_4_)" fill="#FE9F73" d="M1433.727,882.433c12.628-11.919-0.604-13.925-0.604-13.925
			c6.165-7.144,4.731-10.476,2.466-12.013c-1.657-1.125-3.74-1.25-5.569-0.487c-5.807,2.416-23.511,9.856-34.326,15.21
			c-7.691-0.584-5.238-14.472-1.798-21.586c1.771-3.666,1.894-9.722-6.451-3.623c-6.818,4.983-17.065,21.393-17.065,21.393
			l-42.857-4.412l6.385,63.267c0,0,48.922-0.733,56.294-0.789s32.058-9.06,39.514-16.014c13.529-12.615,5.019-13.259,5.019-13.259
			C1447.644,881.679,1433.727,882.433,1433.727,882.433"/>
		<path clip-path="url(#SVGID_4_)" fill="#F07162" d="M1417.656,878.953c-0.373,0.032-0.738-0.193-0.888-0.584
			c-0.187-0.484,0.029-1.039,0.481-1.239c6.344-2.804,15.283-9.339,15.373-9.405c0.404-0.295,0.955-0.184,1.232,0.247
			c0.277,0.434,0.174,1.024-0.23,1.32c-0.373,0.271-9.183,6.713-15.699,9.593C1417.836,878.923,1417.747,878.946,1417.656,878.953"
			/>
		<path clip-path="url(#SVGID_4_)" fill="#F07162" d="M1418.535,890.942c-0.417,0.034-0.813-0.252-0.925-0.701
			c-0.126-0.506,0.154-1.027,0.627-1.163c8.064-2.32,14.916-7.374,14.984-7.425c0.404-0.3,0.956-0.19,1.233,0.237
			c0.279,0.432,0.181,1.023-0.221,1.322c-0.289,0.214-7.165,5.291-15.537,7.699C1418.642,890.926,1418.589,890.937,1418.535,890.942
			"/>
		<path clip-path="url(#SVGID_4_)" fill="#F07162" d="M1421.5,904.447c-0.407,0.034-0.795-0.238-0.917-0.676
			c-0.141-0.5,0.125-1.029,0.594-1.181c6.907-2.218,12.963-7.103,13.023-7.153c0.389-0.317,0.946-0.233,1.242,0.184
			c0.295,0.417,0.219,1.013-0.171,1.33c-0.256,0.209-6.373,5.142-13.585,7.459C1421.624,904.429,1421.562,904.441,1421.5,904.447"/>
		<path clip-path="url(#SVGID_4_)" fill="#FECC86" d="M1302.879,838.385l43.122,2.958c0,0,8.718,29.455-1.759,89.177
			c-1.018,5.799-3.159,15.713-3.159,15.713s-43.787,3.738-50.66-11.498c-4.315-9.567,5.121-50.897,5.121-50.897L1302.879,838.385z"
			/>
		<path clip-path="url(#SVGID_4_)" fill="#21111D" d="M1342.147,947.75l-147.625-4.825l0.083-2.962l145.401,4.753
			c2.078-9.216,15.393-71.236,5.012-101.954l-109.537-7.516l0.175-2.956l111.314,7.637l0.319,0.884
			c12.093,33.581-4.17,102.855-4.868,105.788L1342.147,947.75z"/>
		<polygon clip-path="url(#SVGID_4_)" fill="#49263E" points="1388.695,840.268 1389.947,851.408 1398.345,851.408 
			1397.129,839.449 		"/>
		<path clip-path="url(#SVGID_4_)" fill="#EF3A4C" d="M1389.947,851.408l1.477,20.367c0,0,3.159,1.009,12.607-4.5
			c9.449-5.51-6.256-15.867-6.256-15.867H1389.947z"/>
		<path clip-path="url(#SVGID_4_)" d="M1707.971,472.45c0,0,16.745,8.642,8.373,42.432l-6.333-3.265l2.137-17.951L1707.971,472.45z"
			/>
		<path clip-path="url(#SVGID_4_)" fill="#FE9F73" d="M1649.294,493.415v49.519c0,0-0.691,16.738,13.861,18.831l-2.716,22.332
			c-1.012,8.301,3.922,16.248,11.845,18.773c3.874,1.234,8.498,2.135,13.743,2.135c16.634,0,25.644-12.553,27.031-18.83
			c1.385-6.277-2.773-36.267-2.773-36.267l0.506-14.737l-1.893-57.098L1649.294,493.415z"/>
		<path clip-path="url(#SVGID_4_)" d="M1689.454,518.173c0.173,0,0.347-0.063,0.479-0.194c0.276-0.267,0.285-0.708,0.021-0.986
			c-0.095-0.1-9.628-9.913-18.339-2.85c-0.298,0.241-0.345,0.68-0.104,0.98c0.239,0.301,0.675,0.348,0.974,0.106
			c7.719-6.257,16.115,2.36,16.469,2.73C1689.092,518.102,1689.272,518.173,1689.454,518.173"/>
		<path clip-path="url(#SVGID_4_)" d="M1660.884,513.989c0.194,0,0.388-0.082,0.524-0.241c0.25-0.291,0.219-0.731-0.07-0.984
			c-0.279-0.243-6.891-5.933-11.07-2.326c-0.289,0.251-0.323,0.691-0.074,0.983c0.249,0.294,0.686,0.327,0.977,0.075
			c3.275-2.825,9.201,2.271,9.261,2.323C1660.563,513.933,1660.723,513.989,1660.884,513.989"/>
		<path clip-path="url(#SVGID_4_)" d="M1675.438,520.993c0,1.155,0.931,2.092,2.079,2.092c1.149,0,2.079-0.937,2.079-2.092
			c0-1.156-0.93-2.092-2.079-2.092C1676.369,518.9,1675.438,519.836,1675.438,520.993"/>
		<path clip-path="url(#SVGID_4_)" d="M1653.337,518.9c0,1.155,0.931,2.092,2.079,2.092c1.149,0,2.079-0.937,2.079-2.092
			c0-1.156-0.93-2.092-2.079-2.092C1654.268,516.808,1653.337,517.744,1653.337,518.9"/>
		<path clip-path="url(#SVGID_4_)" fill="#FE9F73" d="M1699.695,521.717c0,6.934,5.585,12.554,12.477,12.554
			c6.889,0,12.475-5.62,12.475-12.554c0-6.933-5.586-12.554-12.475-12.554C1705.28,509.163,1699.695,514.784,1699.695,521.717"/>
		<path clip-path="url(#SVGID_4_)" fill="#F07162" d="M1713.094,529.411c2.592,0,4.322-1.96,4.894-3.919
			c0.673-2.317-0.1-4.568-1.97-5.736c-2.763-1.726-5.268-0.619-6.551,0.231c0.539-1.425,1.383-2.463,2.52-3.091
			c2.458-1.362,5.506-0.37,5.537-0.36c0.181,0.062,0.377-0.038,0.438-0.221s-0.038-0.38-0.219-0.441
			c-0.137-0.046-3.359-1.098-6.085,0.408c-1.575,0.869-2.646,2.408-3.184,4.574l-0.302,1.214l0.883-0.883
			c0.124-0.125,3.091-3.028,6.599-0.839c1.94,1.212,2.111,3.423,1.669,4.948c-0.461,1.582-1.844,3.417-4.226,3.417
			c-0.023,0-0.047-0.002-0.071,0c-0.189,0-0.345,0.152-0.347,0.344c-0.003,0.192,0.15,0.351,0.342,0.353
			C1713.045,529.41,1713.07,529.411,1713.094,529.411"/>
		<path clip-path="url(#SVGID_4_)" d="M1646.88,535.054c0,0-4.53,33.535,17.597,34.726c31.663,1.705,34.729-16.48,36.611-31.359
			l0.318-30.709l-1.017-8.912c-2.238,2.546-3.605,5.743-3.906,9.129c-0.656,7.364-2.277,27.204-4.104,28.082
			C1689.8,537.25,1651.809,531.825,1646.88,535.054"/>
		<path clip-path="url(#SVGID_4_)" fill="#F07162" d="M1668.104,535.106c0.146,0,0.281-0.093,0.329-0.239
			c0.062-0.183-0.038-0.38-0.22-0.441l-6.947-2.312l2.195-16.451c0.025-0.191-0.107-0.367-0.297-0.392
			c-0.192-0.03-0.365,0.108-0.391,0.299l-2.271,17.025l7.494,2.493C1668.031,535.101,1668.068,535.106,1668.104,535.106"/>
		<path clip-path="url(#SVGID_4_)" fill="#FBFDFC" d="M1673.484,541.898c-0.213-0.042-13.723-0.36-13.723-0.36
			s1.697,5.622,6.717,5.754C1671.501,547.423,1673.484,541.898,1673.484,541.898"/>
		<path clip-path="url(#SVGID_4_)" fill="#CEE4EF" d="M1658.959,584.145l2.192-12.641c0,0,37.371-0.974,52.188-4.594l2.033,17.664
			C1715.373,584.574,1682.203,599.849,1658.959,584.145"/>
		<path clip-path="url(#SVGID_4_)" d="M1700.454,499.373l6.265-5.707l6.48,15.579c0,0-8.013,1.324-8.152,9.656
			c-0.139,8.332,4.358,21.341-10.071,40.035c-14.431,18.694,1.162-27.904,1.301-29.525
			C1696.416,527.79,1700.454,499.373,1700.454,499.373"/>
		<path clip-path="url(#SVGID_4_)" d="M1707.971,472.45c-6.682-6.629-29.855-10.413-46.393-0.446l-0.001-0.018
			c-18.828,9.211-12.913,27.96-12.288,28.517l0.244-0.187c-0.096,0.432-0.183,0.866-0.244,1.301c0,0,0.79-1.264,2.481-3.015
			l7.404-5.67c4.148-2.336,9.715-4.35,16.915-4.82c7.149-0.466,13.391-0.068,18.518,1.507c1.354,4.252,2.455,12.683,0.864,29.282
			c-2.428,25.32,8.633-5.395,12.655-17.157c0.865,2.2,1.49,4.669,1.806,7.5C1709.933,509.244,1721.362,485.735,1707.971,472.45"/>
		<path clip-path="url(#SVGID_4_)" fill="#FE9F73" d="M1649.294,507.324c0,0-0.493-10.163-0.005-12.391
			c0.488-2.227,23.114-8.619,35.503-6.92c12.39,1.7-11.626,15.343-11.903,15.343
			C1672.609,503.356,1649.294,507.324,1649.294,507.324"/>
		<polygon clip-path="url(#SVGID_4_)" fill="#FE9F73" points="1692.239,490.618 1704.213,479.48 1692.936,495.769 		"/>
		<path clip-path="url(#SVGID_4_)" d="M1692.239,468.691c0,0-2.437-24.015,10.929-18.794c13.365,5.22,15.662,16.288,3.551,23.597
			C1694.605,480.803,1692.239,468.691,1692.239,468.691"/>
		<polygon clip-path="url(#SVGID_4_)" fill="#FE9F73" points="1730.135,1551.479 1790.441,1552.308 1791.306,1495.433 
			1731.237,1487.929 		"/>
		<path clip-path="url(#SVGID_4_)" fill="#4C222E" d="M1668.172,1561.718h123.134v-24.777c0,0-8.956-11.894-22.594-5.824
			c0,0-20.188,14.62-38.371-2.848l-45.59,19.573C1684.751,1547.842,1668.172,1553.293,1668.172,1561.718"/>
		<path clip-path="url(#SVGID_4_)" fill="#8CD2F9" d="M1791.306,1570.39h-126.618c-1.028,0-1.862-0.834-1.862-1.863v-4.947
			c0-1.027,0.834-1.861,1.862-1.861h126.618V1570.39z"/>
		<polygon clip-path="url(#SVGID_4_)" fill="#FE9F73" points="1593.635,1551.479 1653.941,1552.308 1654.806,1495.433 
			1594.738,1487.929 		"/>
		<path clip-path="url(#SVGID_4_)" fill="#4C222E" d="M1531.672,1561.718h123.134v-24.777c0,0-8.956-11.894-22.594-5.824
			c0,0-20.188,14.62-38.371-2.848l-45.59,19.573C1548.251,1547.842,1531.672,1553.293,1531.672,1561.718"/>
		<path clip-path="url(#SVGID_4_)" fill="#8CD2F9" d="M1654.806,1570.39h-126.618c-1.028,0-1.862-0.834-1.862-1.863v-4.947
			c0-1.027,0.834-1.861,1.862-1.861h126.618V1570.39z"/>
		<path clip-path="url(#SVGID_4_)" fill="#FE9F73" d="M1591.977,1040.452c9.213,11.84,11.598,0.169,11.598,0.169
			c5.598,5.847,8.443,4.741,9.843,2.804c1.023-1.418,1.241-3.265,0.707-4.931c-1.691-5.288-6.909-21.416-10.768-31.311
			c0.902-6.812,12.304-3.925,18.024-0.504c2.95,1.763,7.972,2.178,3.359-5.556c-3.769-6.319-16.839-16.267-16.839-16.267
			l5.991-37.905l-52.89,2.473c0,0-2.048,43.563-2.402,50.123c-0.353,6.562,5.783,28.98,11.152,35.967
			c9.744,12.675,10.741,5.138,10.741,5.138C1591.847,1052.872,1591.977,1040.452,1591.977,1040.452"/>
		<path clip-path="url(#SVGID_4_)" fill="#F07162" d="M1595.739,1026.332c-0.006-0.333,0.201-0.647,0.534-0.762
			c0.413-0.141,0.862,0.078,1.003,0.491c1.984,5.786,6.926,14.071,6.976,14.154c0.224,0.374,0.102,0.858-0.271,1.084
			c-0.375,0.223-0.86,0.101-1.085-0.273c-0.205-0.344-5.075-8.509-7.113-14.452
			C1595.756,1026.493,1595.741,1026.412,1595.739,1026.332"/>
		<path clip-path="url(#SVGID_4_)" fill="#F07162" d="M1585.735,1026.504c-0.006-0.373,0.253-0.709,0.632-0.787
			c0.429-0.087,0.846,0.188,0.933,0.617c1.489,7.291,5.313,13.644,5.352,13.707c0.229,0.375,0.107,0.858-0.264,1.085
			c-0.373,0.227-0.859,0.107-1.086-0.265c-0.162-0.268-4.004-6.642-5.55-14.212
			C1585.742,1026.601,1585.736,1026.552,1585.735,1026.504"/>
		<path clip-path="url(#SVGID_4_)" fill="#F07162" d="M1574.358,1028.458c-0.007-0.364,0.241-0.695,0.609-0.782
			c0.425-0.1,0.85,0.164,0.95,0.589c1.466,6.257,5.194,11.893,5.232,11.949c0.243,0.362,0.145,0.852-0.22,1.095
			c-0.362,0.242-0.853,0.145-1.095-0.219c-0.159-0.239-3.924-5.931-5.456-12.465
			C1574.365,1028.568,1574.359,1028.514,1574.358,1028.458"/>
		<path clip-path="url(#SVGID_4_)" fill="#E2F2F1" d="M1556.121,965.766l0.94,18.431c0,0,9.61,6.422,27.282,5.938l-4.442-24.369
			H1556.121z"/>
		<path clip-path="url(#SVGID_4_)" fill="#3AAAA4" d="M1700.205,909.665c0,0-7.999,377.25-35.538,594.974
			c0,0-36.686,11.541-82.808-10.03l-1.958-556.021l-6.659-83.302L1700.205,909.665z"/>
		<path clip-path="url(#SVGID_4_)" fill="#7FC6A6" d="M1797.018,913.311c0,0,16.127,371.891-1.916,591.025
			c0,0-34.269,21.591-81.266,2.903l-56.829-534.305l-24.131-142.962L1797.018,913.311z"/>
		<path clip-path="url(#SVGID_4_)" d="M1748.573,1515.668c25.924,0,46.792-10.046,47.09-10.192l0.571-0.282l0.116-0.627
			c15.444-83.586,5.587-495.5,5.487-499.649c-0.018-0.689-0.582-1.238-1.271-1.238h-0.031c-0.7,0.018-1.255,0.6-1.237,1.301
			c0.1,4.138,9.899,413.694-5.327,498.483c-5.146,2.34-43.907,18.839-79.61,2.62c-0.634-0.292-1.392-0.011-1.682,0.63
			c-0.291,0.641-0.007,1.393,0.63,1.682C1725.172,1513.783,1737.347,1515.668,1748.573,1515.668"/>
		<path clip-path="url(#SVGID_4_)" d="M1638.259,1508.741c8.359,0,17.324-0.816,26.679-2.863c0.685-0.149,1.119-0.826,0.969-1.511
			c-0.15-0.688-0.839-1.111-1.51-0.969c-42.13,9.214-76.2-6.969-81.271-9.559l-1.954-503.733c-0.003-0.699-0.57-1.265-1.269-1.265
			h-0.006c-0.7,0.003-1.268,0.573-1.265,1.274l1.961,505.24l0.647,0.361C1581.535,1495.881,1605.117,1508.741,1638.259,1508.741"/>
		<path clip-path="url(#SVGID_4_)" fill="#4C222E" d="M1597.019,589.954c0,0-30.093,12.28-35.107,36.098
			c-5.017,23.818-18.058,311.411-9.029,339.714h44.137V589.954z"/>
		<path clip-path="url(#SVGID_4_)" fill="#E2F2F1" d="M1812.576,755.712l2.368,184.156c0,0-142.72,40.647-235.043-7.819
			c0,0,16.147-323.698,19.053-337.956c3.423-16.797,95.506-18.166,133.939-14.05c0,0,59.548-1.492,91.395,16.087L1812.576,755.712z"
			/>
		<path clip-path="url(#SVGID_4_)" fill="#4C222E" d="M1814.944,706.519l-3.011,282.322c0,0-72.975,28.041-109.839,13.287
			c0,0,0.222-411.491,15.269-424.041c1.859,0.048,39.729,0.776,66.774,4.169C1811.184,585.649,1814.944,706.519,1814.944,706.519"/>
		<path clip-path="url(#SVGID_4_)" fill="#4C222E" d="M1656.299,578.087c0,0-7.62,369.167-15.144,424.042
			c0,0-30.677,2.114-69.798-11.968c0,0,7.039-385.125,17.135-395.406C1598.588,584.476,1656.299,578.087,1656.299,578.087"/>
		<path clip-path="url(#SVGID_4_)" fill="#E2F2F1" d="M1712.513,578.597c0,0-47.746-1.125-55.753,0.376
			c0,0,6.287,18.807,7.321,19.559c1.036,0.752,31.957,7.053,31.957,7.053s10.55-6.206,11.021-8.322
			C1707.529,595.146,1712.513,578.597,1712.513,578.597"/>
		<path clip-path="url(#SVGID_4_)" d="M1814.944,798.324c0.701,0,1.271-0.568,1.271-1.271v-60.029c0-0.701-0.569-1.269-1.271-1.269
			s-1.27,0.568-1.27,1.269v60.029C1813.675,797.755,1814.243,798.324,1814.944,798.324"/>
		<path clip-path="url(#SVGID_4_)" d="M1702.096,1003.4h0.003c0.701-0.002,1.269-0.572,1.267-1.273
			c-0.626-261.983,6.542-353.033,6.611-353.921c0.059-0.7-0.462-1.312-1.16-1.369c-0.685-0.041-1.313,0.464-1.367,1.162
			c-0.074,0.89-7.251,92.007-6.624,354.134C1700.827,1002.833,1701.396,1003.4,1702.096,1003.4"/>
		<path clip-path="url(#SVGID_4_)" d="M1571.356,991.431h0.028c0.701-0.016,1.257-0.598,1.242-1.297
			c-2.479-114.711,17.686-362.769,17.889-365.261c0.058-0.698-0.463-1.312-1.16-1.369c-0.741-0.047-1.313,0.463-1.369,1.162
			c-0.205,2.494-20.379,250.683-17.899,365.524C1570.102,990.881,1570.668,991.431,1571.356,991.431"/>
		<path clip-path="url(#SVGID_4_)" d="M1654.653,652.133c0.688,0,1.253-0.55,1.271-1.241l1.676-74.18l-1.4,0.11
			c-2.584,0.202-63.505,5.191-81.492,26.108c-0.459,0.533-0.398,1.333,0.134,1.791c0.529,0.455,1.334,0.396,1.79-0.134
			c15.849-18.429,69.03-24.225,78.367-25.108l-1.614,71.356c-0.015,0.7,0.541,1.281,1.243,1.298H1654.653z"/>
		<path clip-path="url(#SVGID_4_)" fill="#FEC786" d="M1912.074,843.448c-7.76-39.354,9.233-64.222,21.932-77.331
			c4.377,12.581,7.514,25.271,8.837,37.925c1.772,16.983-7.366,39.437-21.396,62.878
			C1917.343,861.086,1914.045,853.433,1912.074,843.448"/>
		<path clip-path="url(#SVGID_4_)" fill="#21111D" d="M1811.028,612.923c-0.263,0-0.521-0.119-0.689-0.345
			c-8.327-11.101-21.933-15.613-22.069-15.658c-0.452-0.147-0.7-0.633-0.553-1.085c0.146-0.453,0.634-0.703,1.084-0.555
			c0.579,0.187,14.254,4.713,22.916,16.263c0.287,0.381,0.209,0.922-0.171,1.207C1811.39,612.867,1811.209,612.923,1811.028,612.923
			"/>
		<path clip-path="url(#SVGID_4_)" fill="#21111D" d="M1809.404,620.904c-0.263,0-0.521-0.119-0.689-0.345
			c-8.328-11.101-21.933-15.613-22.069-15.658c-0.453-0.147-0.7-0.633-0.553-1.085c0.146-0.453,0.632-0.702,1.083-0.555
			c0.58,0.187,14.254,4.713,22.916,16.263c0.287,0.381,0.209,0.922-0.171,1.208C1809.766,620.848,1809.584,620.904,1809.404,620.904
			"/>
		<path clip-path="url(#SVGID_4_)" d="M1774.361,1512.61c0.692,0,1.26-0.556,1.271-1.251l2.228-149.19
			c0.01-0.701-0.549-1.278-1.252-1.288h-0.017c-0.694,0-1.261,0.556-1.271,1.251l-2.229,149.191
			c-0.01,0.701,0.549,1.276,1.251,1.287H1774.361z"/>
		<path clip-path="url(#SVGID_4_)" d="M1636.726,1508.755c0.668,0,1.228-0.521,1.268-1.197l8.36-145.335
			c0.04-0.699-0.494-1.299-1.194-1.341c-0.703-0.072-1.3,0.494-1.342,1.194l-8.361,145.335c-0.039,0.7,0.495,1.301,1.195,1.342
			C1636.677,1508.755,1636.702,1508.755,1636.726,1508.755"/>
		<polygon clip-path="url(#SVGID_4_)" fill="#8CD2F9" points="1912.469,877.929 1684.012,877.147 1685.085,737.003 
			1913.541,737.786 		"/>
		<polygon clip-path="url(#SVGID_4_)" fill="#3AA1C9" points="1741.238,877.342 1684.012,877.147 1685.086,737.003 
			1742.312,737.199 		"/>
		<g clip-path="url(#SVGID_4_)">
			<g>
				<defs>
					<rect id="SVGID_5_" x="1718.21" y="757.829" width="45.54" height="10.803"/>
				</defs>
				<clipPath id="SVGID_6_">
					<use xlink:href="#SVGID_5_"  overflow="visible"/>
				</clipPath>
				<polygon clip-path="url(#SVGID_6_)" fill="#D7E4F7" points="1763.664,768.632 1718.205,768.476 1718.286,757.828 
					1763.746,757.985 				"/>
			</g>
		</g>
		<g clip-path="url(#SVGID_4_)">
			<g>
				<defs>
					<rect id="SVGID_7_" x="1717.59" y="838.828" width="45.54" height="10.804"/>
				</defs>
				<clipPath id="SVGID_8_">
					<use xlink:href="#SVGID_7_"  overflow="visible"/>
				</clipPath>
				<polygon clip-path="url(#SVGID_8_)" fill="#D7E4F7" points="1763.044,849.631 1717.585,849.475 1717.667,838.828 
					1763.126,838.984 				"/>
			</g>
		</g>
		<g opacity="0.5" clip-path="url(#SVGID_4_)">
			<g>
				<defs>
					<rect id="SVGID_9_" x="1819.33" y="800.664" width="81.85" height="2.563"/>
				</defs>
				<clipPath id="SVGID_10_">
					<use xlink:href="#SVGID_9_"  overflow="visible"/>
				</clipPath>
				<polygon clip-path="url(#SVGID_10_)" fill="#D7E4F7" points="1901.158,803.226 1819.332,802.946 1819.35,800.664 
					1901.177,800.945 				"/>
			</g>
		</g>
		<g opacity="0.5" clip-path="url(#SVGID_4_)">
			<g>
				<defs>
					<rect id="SVGID_11_" x="1819.27" y="808.861" width="81.841" height="2.563"/>
				</defs>
				<clipPath id="SVGID_12_">
					<use xlink:href="#SVGID_11_"  overflow="visible"/>
				</clipPath>
				<polygon clip-path="url(#SVGID_12_)" fill="#D7E4F7" points="1901.096,811.423 1819.269,811.143 1819.286,808.861 
					1901.114,809.142 				"/>
			</g>
		</g>
		<path clip-path="url(#SVGID_4_)" d="M1822.497,878.887h-0.004l-139.757-0.479l1.082-141.415c0.006-0.695,0.572-1.255,1.267-1.255
			h0.011c0.697,0.005,1.26,0.576,1.256,1.275l-1.064,138.872l137.214,0.471c0.699,0.002,1.266,0.571,1.263,1.27
			C1823.76,878.324,1823.194,878.887,1822.497,878.887"/>
		<path clip-path="url(#SVGID_4_)" d="M1912.763,840.762h-0.01c-0.698-0.006-1.261-0.576-1.256-1.275l0.769-100.439l-143.818-0.493
			c-0.7-0.002-1.265-0.571-1.263-1.27c0.003-0.698,0.568-1.261,1.267-1.261h0.004l146.363,0.501l-0.789,102.981
			C1914.023,840.201,1913.458,840.762,1912.763,840.762"/>
		<path clip-path="url(#SVGID_4_)" d="M1806.743,794.875c-0.344,0-0.687-0.141-0.937-0.415l-9.943-10.936
			c-0.471-0.516-0.433-1.317,0.085-1.787c0.517-0.469,1.316-0.433,1.787,0.085l9.944,10.936c0.47,0.516,0.432,1.317-0.085,1.787
			C1807.352,794.766,1807.047,794.875,1806.743,794.875"/>
		<path clip-path="url(#SVGID_4_)" d="M1805.591,803.96c-0.325,0-0.648-0.124-0.896-0.372l-9.952-9.997
			c-0.492-0.496-0.491-1.297,0.004-1.791c0.496-0.492,1.297-0.49,1.791,0.005l9.951,9.997c0.492,0.496,0.492,1.297-0.003,1.79
			C1806.237,803.838,1805.914,803.96,1805.591,803.96"/>
		<path clip-path="url(#SVGID_4_)" fill="#FE9F73" d="M1742.342,1020.607c-14.871,1.979-8.386-8.014-8.386-8.014
			c-8.091,0.242-9.343-2.542-8.982-4.903c0.265-1.729,1.405-3.196,2.953-4.011c4.914-2.584,19.945-10.422,29.636-14.768
			c4.134-5.49-6.018-11.427-12.495-13.001c-3.339-0.812-7.21-4.038,1.502-6.315c7.118-1.862,23.411,0.214,23.411,0.214
			l22.313-31.224l35.968,38.856c0,0-29.091,32.489-33.439,37.415c-4.35,4.925-24.447,16.603-33.175,17.815
			c-15.834,2.204-11.259-3.868-11.259-3.868C1733.725,1029.551,1742.342,1020.607,1742.342,1020.607"/>
		<path clip-path="url(#SVGID_4_)" fill="#F07162" d="M1749.563,1007.903c0.237-0.233,0.312-0.604,0.153-0.917
			c-0.195-0.391-0.67-0.548-1.06-0.354c-5.472,2.734-14.806,5.174-14.898,5.198c-0.422,0.11-0.674,0.541-0.566,0.964
			c0.109,0.421,0.541,0.675,0.963,0.566c0.389-0.103,9.588-2.507,15.208-5.314
			C1749.438,1008.006,1749.505,1007.958,1749.563,1007.903"/>
		<path clip-path="url(#SVGID_4_)" fill="#F07162" d="M1756.572,1015.042c0.267-0.263,0.316-0.685,0.103-1.005
			c-0.245-0.361-0.735-0.457-1.098-0.215c-6.176,4.155-13.357,5.999-13.429,6.019c-0.425,0.107-0.68,0.538-0.573,0.959
			c0.107,0.423,0.536,0.679,0.959,0.573c0.306-0.077,7.515-1.928,13.925-6.239C1756.5,1015.106,1756.538,1015.076,1756.572,1015.042
			"/>
		<path clip-path="url(#SVGID_4_)" fill="#F07162" d="M1763.313,1024.414c0.26-0.255,0.315-0.664,0.113-0.984
			c-0.232-0.369-0.72-0.479-1.09-0.246c-5.434,3.432-12.043,4.834-12.11,4.848c-0.427,0.088-0.7,0.507-0.611,0.935
			c0.09,0.427,0.508,0.701,0.935,0.612c0.282-0.06,6.957-1.477,12.631-5.06C1763.229,1024.488,1763.272,1024.453,1763.313,1024.414"
			/>
		<path clip-path="url(#SVGID_4_)" fill="#4C222E" d="M1760.831,580.879c0,0,62.032-5.664,92.984,45.631
			c28.276,46.862,82.255,112.701,89.026,177.531c5.473,52.399-92.871,156.858-118.554,181.829l-45.471-48.481
			c0,0,72.375-114.801,78.008-128.963c5.12-12.877-100.765-152.566-100.765-152.566L1760.831,580.879z"/>
		<path clip-path="url(#SVGID_4_)" fill="#E2F2F1" d="M1823.192,984.703l-9.771,10.904c0,0-36.427-31.409-39.06-35.548
			c0.627-0.627,10.955-15.74,10.955-15.74L1823.192,984.703z"/>
		<path clip-path="url(#SVGID_4_)" d="M1912.075,719.74c0.237,0,0.476-0.064,0.688-0.204c0.588-0.379,0.757-1.166,0.377-1.755
			l-68.268-105.583c-34.905-37.329-77.645-32.378-78.068-32.323c-0.695,0.088-1.188,0.723-1.101,1.419
			c0.089,0.694,0.742,1.178,1.418,1.1c0.419-0.052,41.85-4.802,75.818,31.455l68.068,105.31
			C1911.251,719.535,1911.659,719.74,1912.075,719.74"/>
		<path clip-path="url(#SVGID_4_)" d="M1881.568,817.633c0.7,0,1.271-0.568,1.271-1.271c0-0.699-0.57-1.269-1.271-1.269
			c-7.729,0-20.986-7.653-23.611-9.214c-4.212-17.19-63.797-101.152-66.361-104.758c-0.404-0.57-1.196-0.707-1.771-0.299
			c-0.57,0.407-0.704,1.198-0.299,1.77c0.632,0.889,63.222,89.077,66.058,104.323l0.102,0.554l0.48,0.296
			C1856.82,808.169,1872.289,817.633,1881.568,817.633"/>
		<path clip-path="url(#SVGID_4_)" d="M1824.287,987.14c0.296,0,0.594-0.104,0.835-0.313c0.527-0.461,0.584-1.263,0.122-1.792
			c-10.374-11.897-39.884-42.667-44.811-47.799c25.285-38.854,77.658-128.039,77.668-130.547c0.003-0.7-0.564-1.271-1.266-1.275
			h-0.005c-0.614,0-1.129,0.439-1.244,1.021c-1.479,3.931-50.579,88.521-77.832,130.259l-0.552,0.846l0.7,0.729
			c0.341,0.354,34.19,35.547,45.427,48.436C1823.581,986.993,1823.934,987.14,1824.287,987.14"/>
		<polygon clip-path="url(#SVGID_4_)" fill="#FEC786" points="1892.198,1570.395 1909.4,1570.395 1878.369,1133.663 
			1843.967,1133.663 		"/>
		<polygon clip-path="url(#SVGID_4_)" fill="#FEC786" points="1159.952,1570.395 1142.75,1570.395 1173.781,1133.663 
			1208.184,1133.663 		"/>
		<path clip-path="url(#SVGID_4_)" fill="#FE9F73" d="M1058.325,1076.828c0.295-2.793-1.764-5.296-4.531-5.771l-17.223-2.954
			c-0.54-0.092-0.961-0.518-1.048-1.058c-0.128-0.798,0.505-1.514,1.312-1.484l25.789,0.953c2.954,0.109,4.988-2.189,4.519-5.108
			c-0.469-2.92-3.271-5.397-6.225-5.508l-26.299-0.97c-0.61-0.022-1.12-0.474-1.217-1.078l-0.068-0.426
			c-0.113-0.699,0.363-1.355,1.061-1.468l28.82-4.632c2.773-0.446,4.858-2.929,4.592-5.725c-0.291-3.063-3.097-5.196-6.087-4.716
			l-28.999,4.661c-0.698,0.111-1.355-0.363-1.467-1.063l-0.218-1.354c-0.103-0.635,0.283-1.247,0.897-1.431l26.152-7.795
			c2.691-0.804,4.435-3.534,3.809-6.271c-0.687-2.999-3.747-4.751-6.649-3.886c0,0-40.515,9.745-46.972,10.752l6.472-13.801
			c1.707-2.36,1.177-5.656-1.183-7.362s-5.655-1.177-7.362,1.183l-22.956,25.015c-1.112,1.538-0.52,5.292,0.678,8.195
			c2.582,31.009,3.235,35.765,4.701,44.061l32.639-6.382c9.418-1.842,19.093-1.953,28.551-0.331l2.375,0.406
			C1055.174,1081.993,1058.002,1079.888,1058.325,1076.828"/>
		<path clip-path="url(#SVGID_4_)" fill="#EF3A4C" d="M872.589,1035.846L989.122,1019c0,0,16.4,50.829,13.006,79.107
			c0,0-108.271,29.227-130.976,26.339c-22.706-2.889-45.86-35.395-45.86-35.395s-3.605-169.38-0.208-166.759
			S872.589,1035.846,872.589,1035.846"/>
		<polygon clip-path="url(#SVGID_4_)" fill="#FE9F73" points="1088.258,1547.817 1000.497,1540.692 999.597,1522.245 
			998.735,1457.174 1089.364,1466.373 		"/>
		<path clip-path="url(#SVGID_4_)" fill="#258D8C" d="M851.545,1089.879c0,0,189.297,23.747,215.758,57.672
			c13.046,16.725,39.628,241.101,28.603,334.441c0,0-67.617,4.655-99.955-3.184l-7.871-227.595l-145.355-43.957l-74.634-114.663
			L851.545,1089.879z"/>
		<path clip-path="url(#SVGID_4_)" fill="#21111D" d="M1042.26,1484.56c-27.452,0-46.407-4.499-46.6-4.546l-0.916-0.223
			l-7.958-230.128l10.161,8.18l-1.556,1.932l-5.939-4.781l7.705,222.813c4.206,0.906,22.525,4.524,47.506,4.261l0.024,2.479
			C1043.871,1484.556,1043.062,1484.56,1042.26,1484.56"/>
		<path clip-path="url(#SVGID_4_)" fill="#EF3A4C" d="M1026.428,1570.39l119.833-0.029c1.082-0.174,1.965-0.362,2.608-0.567
			c7.687-2.448,8.33-6.942,7.968-9.538c-0.16-1.153-0.829-2.175-1.818-2.814l-66.196-42.857l-21.87,9.676
			c-6.96,3.097-14.379,5.069-21.981,5.8c-15.52,1.489-40.424,2.297-45.368-7.344l0.782,36.995
			C1000.386,1559.71,996.765,1570.677,1026.428,1570.39"/>
		<path clip-path="url(#SVGID_4_)" fill="#4C222E" d="M835.989,1552.613h-73.203v-250.399h-16.263v250.399H675.22
			c-9.95,0-18.015,8.064-18.015,18.016h89.318h16.263h91.218C854.004,1560.677,845.938,1552.613,835.989,1552.613"/>
		<polygon clip-path="url(#SVGID_4_)" fill="#FEC786" points="542.971,914.738 711.21,914.738 800.211,1302.213 607.421,1282.115 		
			"/>
		<path clip-path="url(#SVGID_4_)" fill="#F99247" d="M928.339,1262.744c0,0-221.099,0.002-287.081,0.002
			c-10.648,0-19.776-7.6-21.71-18.069l-58.666-317.613c-1.576-8.531-9.916-14.107-18.46-12.214
			c-8.139,1.805-13.224,9.964-11.71,18.162l66.46,359.808c0.515,2.788,1.764,5.251,3.496,7.251
			c4.276,7.944,12.668,13.346,22.322,13.346h305.349c13.993,0,25.336-11.343,25.336-25.336S942.332,1262.744,928.339,1262.744"/>
		<path clip-path="url(#SVGID_4_)" fill="#21111D" d="M641.258,1263.981c-11.242,0-20.883-8.024-22.926-19.081l-58.665-317.611
			c-0.703-3.808-2.868-7.082-6.097-9.221c-3.228-2.138-7.09-2.854-10.881-2.012c-0.665,0.147-1.326-0.272-1.473-0.939
			c-0.148-0.666,0.272-1.325,0.938-1.474c4.451-0.987,8.989-0.146,12.78,2.364c3.793,2.513,6.337,6.359,7.163,10.831l58.665,317.613
			c1.826,9.883,10.446,17.058,20.496,17.058c0.683,0,1.235,0.555,1.235,1.236S641.941,1263.981,641.258,1263.981"/>
		<path clip-path="url(#SVGID_4_)" fill="#7FC6A6" d="M854.061,1265.163c0,0-72.551,1.192-123.401-0.548
			c-16.322-0.559-30.848,0.592-39.448-1.318c-35.393-7.861-44.112-118.335-3.923-186.021
			c40.189-67.687,180.797,140.129,180.797,140.129L854.061,1265.163z"/>
		<path clip-path="url(#SVGID_4_)" fill="#FE9F73" d="M984.66,1549.056l-74.841-4.028c-8.104-0.436-14.509-7.031-14.711-15.143
			l-1.828-73.677l90.63,9.199L984.66,1549.056z"/>
		<path clip-path="url(#SVGID_4_)" fill="#7FC6A6" d="M793.195,1113.626c0,0,194.386,23.05,199.53,43.629
			c5.145,20.579,16.206,231.888,5.182,325.228c0,0-72.708,4.164-105.046-3.674l-8.714-214.696l-31.364,1.095l-76.047-133.793
			L793.195,1113.626z"/>
		<path clip-path="url(#SVGID_4_)" fill="#21111D" d="M936.489,1485.021c-32.128,0-43.583-4.838-44.126-5.076l-0.711-0.313
			l-8.436-215.956l13.276,6.262l-1.058,2.243l-9.58-4.519l8.214,210.273c3.475,1.2,20.139,6.009,59.493,4.19l0.114,2.479
			C947.383,1484.896,941.667,1485.021,936.489,1485.021"/>
		<path clip-path="url(#SVGID_4_)" fill="#21111D" d="M906.359,1438.452c-3.429-13.227-4.41-142.229-4.45-147.713l2.481-0.018
			c0.01,1.34,1.018,134.176,4.37,147.108L906.359,1438.452z"/>
		<path clip-path="url(#SVGID_4_)" fill="#21111D" d="M799.471,1267.476c-31.657,0-69.609-1.071-112.275-4.285l0.186-2.464
			c127.124,9.578,212.378,0.102,213.224,0.005l0.281,2.455C900.322,1263.25,862.322,1267.476,799.471,1267.476"/>
		<path clip-path="url(#SVGID_4_)" fill="#FF424D" d="M921.866,1570.39l119.833-0.029c1.082-0.174,1.965-0.362,2.608-0.567
			c7.687-2.448,8.33-6.942,7.968-9.538c-0.16-1.153-0.829-2.175-1.817-2.814l-66.197-42.857l-21.87,9.676
			c-6.96,3.097-14.378,5.069-21.981,5.8c-15.52,1.489-40.655,2.29-45.6-7.352l1.014,37.003
			C895.824,1559.71,892.203,1570.677,921.866,1570.39"/>
		<path clip-path="url(#SVGID_4_)" fill="#EF3A4C" d="M718.185,1191.803c0,0,45.918-21.874,88.621-54.097
			c42.703-32.222,68.486-52.576,68.486-52.576s-5.937-13.122-11.661-24.103l-10.05-19.321l-24.565-107.211
			c0,0-7.685-51.556-77.208-63.832c2.657,1.233-5.684-0.954-5.684-0.954s-62.955,2.279-86.814,5.583
			c-37.077,5.135-40.878,100.962-40.878,100.962c-0.01,63.643,7.517,150.746,29.638,179.114
			c28.1,36.038,60.503,37.188,70.135,36.638C718.191,1191.875,718.185,1191.803,718.185,1191.803"/>
		<path clip-path="url(#SVGID_4_)" fill="#EF3A4C" d="M699.946,867.718c0,0-41.979-1.469-62.02,9.885
			c-29.905,16.942-19.251,113.973-19.251,113.973s25.413-13.86,26.953-18.48C647.167,968.474,699.946,867.718,699.946,867.718"/>
		<path clip-path="url(#SVGID_4_)" fill="#21111D" d="M689.182,1188.301c2.711,1.024,5.266,1.825,7.62,2.45
			c14.141,3.751,24.019,2.192,24.433,2.123c0.629-0.102,1.055-0.695,0.951-1.325c-0.103-0.629-0.697-1.056-1.325-0.953
			c-0.098,0.017-9.896,1.546-23.586-2.11c-12.626-3.369-31.256-11.977-48.295-33.827c-21.388-27.429-29.201-111.879-29.392-175.861
			c-0.001-0.639-0.521-1.155-1.158-1.151c-0.638,0.001-1.154,0.52-1.152,1.157c0.192,64.349,8.133,149.387,29.881,177.276
			C661.468,1174.43,676.915,1183.664,689.182,1188.301"/>
		<path clip-path="url(#SVGID_4_)" fill="#21111D" d="M723.512,1082.645c0.208,0.079,0.44,0.099,0.672,0.044
			c0.621-0.147,1.006-0.77,0.86-1.391c-0.192-0.813-19.309-82.077-27.443-133.215c-0.102-0.63-0.695-1.058-1.322-0.959
			c-0.63,0.101-1.06,0.693-0.96,1.323c8.149,51.221,27.284,132.566,27.476,133.382
			C722.887,1082.218,723.165,1082.514,723.512,1082.645"/>
		<path clip-path="url(#SVGID_4_)" fill="#21111D" d="M723.804,913.369c0.894,0.093,1.803,0.172,2.729,0.235
			c0.529,0.037,0.988-0.36,1.025-0.89c0.038-0.528-0.344-0.982-0.89-1.025c-39.782-2.793-47.17-31.916-47.226-32.209
			c-0.098-0.511-0.587-0.866-1.104-0.776c-0.514,0.086-0.868,0.555-0.794,1.071C677.587,880.075,684.929,909.347,723.804,913.369"/>
		<path clip-path="url(#SVGID_4_)" fill="#21111D" d="M751.159,1314.866h-0.002l-119.766-0.215
			c-32.261,2.907-36.102-24.699-36.286-26.214l-7.12-38.55c-0.124-0.67,0.32-1.314,0.99-1.438c0.675-0.123,1.316,0.318,1.44,0.99
			l7.142,38.688c0.111,1.097,3.087,26.847,33.667,24.057l0.115-0.005l119.822,0.215c0.683,0.003,1.235,0.556,1.233,1.239
			C752.394,1314.314,751.84,1314.866,751.159,1314.866"/>
		<path clip-path="url(#SVGID_4_)" fill="#21111D" d="M607.787,915.973h-0.002l-58.873-0.086c-0.683-0.001-1.235-0.556-1.234-1.237
			s0.554-1.234,1.235-1.234h0.002l58.874,0.086c0.682,0.002,1.234,0.556,1.234,1.238
			C609.022,915.421,608.469,915.973,607.787,915.973"/>
		<path clip-path="url(#SVGID_4_)" fill="#21111D" d="M825.194,1030.71c-7.797-26.294-16.217-56.089-19.148-71.479
			c-0.12-0.626-0.726-1.037-1.351-0.918c-0.626,0.119-1.038,0.725-0.918,1.351c2.958,15.535,11.468,45.627,19.312,72.069
			C823.786,1031.393,824.499,1031.046,825.194,1030.71"/>
		<path clip-path="url(#SVGID_4_)" fill="#21111D" d="M803.373,1141.105c-0.329,0-0.652-0.158-0.848-0.453
			c-0.312-0.468-0.185-1.1,0.283-1.411c13.302-8.868,65.3-49.751,71.294-54.469c-8.203-24.491-31.325-54.649-35.056-59.423
			l-112.49,56.582l-14.859,10.807c-0.455,0.333-1.091,0.23-1.422-0.225c-0.331-0.454-0.23-1.091,0.224-1.422l15.068-10.94
			l114.044-57.364l0.515,0.645c0.273,0.341,27.357,34.381,36.133,61.385l0.219,0.675l-0.557,0.438
			c-0.577,0.454-57.866,45.593-71.985,55.005C803.763,1141.049,803.567,1141.105,803.373,1141.105"/>
		<path clip-path="url(#SVGID_4_)" fill="#21111D" d="M1000.532,1075.288c-0.573,0-1.061-0.438-1.113-1.02
			c-2.048-22.922-9.42-48.599-10.938-53.711l-116.614,16.272l-20.721-51.27c-19.435-55.088-35.595-77.748-35.757-77.97
			c-25.801-32.878-68.923-36.73-69.356-36.766c-0.615-0.05-1.074-0.59-1.024-1.205c0.05-0.616,0.59-1.076,1.205-1.025
			c0.443,0.036,44.537,3.976,70.962,37.649c0.188,0.259,16.518,23.125,36.062,78.524l20.049,49.604l116.778-16.295l0.28,0.909
			c0.09,0.291,9.006,29.375,11.303,55.083c0.054,0.614-0.4,1.157-1.015,1.214C1000.6,1075.287,1000.565,1075.288,1000.532,1075.288"
			/>
		<path clip-path="url(#SVGID_4_)" fill="#FE9F73" d="M755.624,783.069l1.304,50.269c0,0,1.092,16.143-12.995,18.529l3.199,21.492
			c1.189,7.987-3.404,15.786-11.038,18.423c-3.733,1.289-8.203,2.274-13.298,2.408c-16.16,0.419-25.228-11.475-26.732-17.499
			c-1.503-6.025,1.786-35.083,1.786-35.083l-0.862-14.215l0.409-55.173L755.624,783.069z"/>
		<path clip-path="url(#SVGID_4_)" fill="#F07162" d="M710.796,838.989c0,0,1.65,27.022,35.497,28.729l-2.36-15.851
			C743.933,851.867,722.139,856.836,710.796,838.989"/>
		<path clip-path="url(#SVGID_4_)" d="M717.292,810.447c-0.167,0.004-0.337-0.055-0.471-0.176c-0.275-0.25-0.295-0.678-0.044-0.951
			c0.09-0.101,9.105-9.813,17.745-3.214c0.295,0.226,0.352,0.648,0.126,0.944c-0.226,0.295-0.648,0.353-0.944,0.125
			c-7.656-5.846-15.598,2.686-15.932,3.051C717.644,810.368,717.469,810.442,717.292,810.447"/>
		<path clip-path="url(#SVGID_4_)" d="M693.903,803.984l14.61,2.646l2.698,2.654c0,0-1.891-24.33-4.751-29.048
			C703.598,775.518,693.903,803.984,693.903,803.984"/>
		<path clip-path="url(#SVGID_4_)" d="M744.943,805.687c-0.188,0.005-0.378-0.069-0.515-0.22c-0.251-0.274-0.232-0.7,0.043-0.951
			c0.265-0.243,6.546-5.902,10.697-2.525c0.288,0.234,0.332,0.658,0.097,0.947c-0.234,0.289-0.658,0.333-0.947,0.098
			c-3.252-2.646-8.882,2.423-8.939,2.476C745.255,805.625,745.1,805.683,744.943,805.687"/>
		<path clip-path="url(#SVGID_4_)" d="M730.979,812.815c0.029,1.115-0.852,2.043-1.967,2.071c-1.116,0.029-2.044-0.852-2.073-1.968
			c-0.029-1.114,0.852-2.043,1.968-2.071C730.022,810.818,730.95,811.699,730.979,812.815"/>
		<path clip-path="url(#SVGID_4_)" d="M752.398,810.238c0.029,1.115-0.853,2.043-1.968,2.071c-1.115,0.03-2.043-0.851-2.072-1.968
			c-0.029-1.115,0.852-2.042,1.968-2.072C751.441,808.241,752.369,809.122,752.398,810.238"/>
		<path clip-path="url(#SVGID_4_)" fill="#FE9F73" d="M714.277,812.546c0.173,6.692-5.112,12.261-11.806,12.434
			s-12.26-5.112-12.434-11.805c-0.174-6.694,5.112-12.261,11.805-12.436C708.536,800.567,714.103,805.852,714.277,812.546"/>
		<path clip-path="url(#SVGID_4_)" fill="#F07162" d="M700.211,819.643c-2.518,0.064-4.249-1.783-4.851-3.66
			c-0.713-2.22-0.019-4.413,1.768-5.588c2.641-1.735,5.102-0.73,6.37,0.059c-0.558-1.362-1.405-2.343-2.524-2.921
			c-2.422-1.253-5.359-0.219-5.388-0.208c-0.175,0.064-0.369-0.028-0.432-0.203c-0.063-0.174,0.028-0.366,0.202-0.431
			c0.131-0.047,3.235-1.146,5.922,0.241c1.551,0.799,2.63,2.258,3.207,4.335l0.324,1.165l-0.88-0.83
			c-0.124-0.118-3.079-2.847-6.431-0.645c-1.855,1.22-1.966,3.358-1.497,4.819c0.487,1.516,1.875,3.253,4.19,3.193
			c0.023-0.001,0.045-0.004,0.069-0.003c0.184-0.006,0.338,0.139,0.346,0.322c0.007,0.187-0.138,0.344-0.324,0.351
			C700.259,819.641,700.233,819.642,700.211,819.643"/>
		<path clip-path="url(#SVGID_4_)" fill="#F07162" d="M738.458,826.255c-0.141,0.004-0.275-0.082-0.326-0.224
			c-0.063-0.175,0.028-0.367,0.203-0.43l6.691-2.408l-2.544-15.827c-0.029-0.183,0.096-0.356,0.279-0.385
			c0.185-0.036,0.357,0.094,0.386,0.278l2.633,16.38l-7.217,2.595C738.529,826.249,738.493,826.254,738.458,826.255"/>
		<path clip-path="url(#SVGID_4_)" fill="#FBFDFC" d="M733.4,832.949c0.207-0.046,13.323-0.694,13.323-0.694
			s-1.507,5.47-6.382,5.724C735.468,838.233,733.4,832.949,733.4,832.949"/>
		<path clip-path="url(#SVGID_4_)" d="M693.903,803.984c0,0-4.704-23.493,2.293-32.479c6.998-8.984,48.068-25.454,53.209-21.185
			c5.141,4.267,0.253,9.738,0.253,9.738s16.512-5.772,20.665,8.896c4.153,14.668-31.499,21.88-53.041,15.522
			C717.282,784.477,703.259,788.964,693.903,803.984"/>
		<path clip-path="url(#SVGID_4_)" fill="#FE9F73" d="M895.303,1051.538l29.148-1.56c2.805-0.149,5.14-2.396,5.172-5.205
			c0.034-3.076-2.53-5.495-5.554-5.335l-29.329,1.569c-0.707,0.038-1.31-0.504-1.347-1.21l-0.073-1.371
			c-0.035-0.643,0.412-1.21,1.044-1.327l26.829-4.986c2.761-0.514,4.784-3.045,4.451-5.834c-0.366-3.055-3.223-5.12-6.2-4.567
			c0,0-41.319,5.407-47.846,5.725l7.895-13.038c1.946-2.168,1.768-5.5-0.398-7.446s-5.5-1.769-7.446,0.397l-25.472,22.447
			c-0.218,0.242-0.39,0.558-0.525,0.926c7.743,10.556,21.673,30.831,28.82,49.118l4.659-0.407c9.56-0.835,19.192,0.076,28.426,2.689
			l2.318,0.656c2.914,0.824,5.949-0.971,6.594-3.979c0.589-2.746-1.194-5.452-3.895-6.217l-16.814-4.759
			c-0.528-0.149-0.901-0.617-0.931-1.164c-0.043-0.808,0.662-1.451,1.461-1.336l25.544,3.674c2.927,0.421,5.192-1.65,5.034-4.604
			c-0.157-2.951-2.681-5.712-5.607-6.132l-26.049-3.747c-0.605-0.087-1.064-0.589-1.096-1.199l-0.023-0.432
			C894.055,1052.178,894.597,1051.576,895.303,1051.538"/>
		<polygon clip-path="url(#SVGID_4_)" fill="#FEC786" points="967.021,1570.395 949.819,1570.395 980.85,1133.663 
			1015.253,1133.663 		"/>
		<polygon clip-path="url(#SVGID_4_)" fill="#4CB7D8" points="1247.217,994.044 1099.791,994.044 1048.375,1124.976 
			1195.801,1124.976 		"/>
		<polygon clip-path="url(#SVGID_4_)" fill="#3AA1C9" points="1048.375,1124.976 1056.068,1124.976 1107.483,994.043 
			1099.791,994.043 		"/>
		<path clip-path="url(#SVGID_4_)" fill="#E2F2F1" d="M1150.835,1055.338c-2.043,6.015-0.546,11.963,3.344,13.284
			c3.891,1.321,8.702-2.482,10.745-8.497c2.044-6.016,0.547-11.964-3.344-13.284
			C1157.688,1045.519,1152.878,1049.323,1150.835,1055.338"/>
		<path clip-path="url(#SVGID_4_)" fill="#3AA1C9" d="M999.641,1114.403h55.075v10.573h-55.075c-2.92,0-5.287-2.367-5.287-5.287
			S996.72,1114.403,999.641,1114.403"/>
		<rect x="1013.584" y="1118.033" clip-path="url(#SVGID_4_)" fill="#4CB7D8" width="34.791" height="1.656"/>
		<path clip-path="url(#SVGID_4_)" fill="#FEBAC7" d="M959.301,1038.916v10.346c-18.108,0-32.84,14.729-32.84,32.836
			c0,18.104,14.732,32.834,32.84,32.834v4.11c0,3.278,2.657,5.935,5.935,5.935h45.713c3.277,0,5.934-2.656,5.934-5.935v-80.126
			H959.301z M934.56,1082.097c0-13.643,11.1-24.74,24.742-24.74v49.478C945.659,1106.834,934.56,1095.737,934.56,1082.097"/>
		
			<rect x="979.733" y="1088.218" transform="matrix(0.5145 0.8575 -0.8575 0.5145 1413.5522 -318.4547)" clip-path="url(#SVGID_4_)" fill="#49263E" width="16.511" height="1.594"/>
		
			<rect x="989.393" y="1090.748" transform="matrix(0.4993 0.8664 -0.8664 0.4993 1445.1465 -317.6667)" clip-path="url(#SVGID_4_)" fill="#49263E" width="16.068" height="1.593"/>
		<path clip-path="url(#SVGID_4_)" fill="#FECC86" d="M1639.426,1038.917v80.126c0,3.276,2.656,5.934,5.935,5.934h45.712
			c3.279,0,5.935-2.657,5.935-5.934v-4.111c18.108,0,32.84-14.729,32.84-32.834c0-18.107-14.731-32.836-32.84-32.836v-10.345
			H1639.426z M1697.007,1106.835v-49.479c13.644,0,24.742,11.1,24.742,24.741C1721.749,1095.736,1710.65,1106.835,1697.007,1106.835
			"/>
		
			<rect x="1660.065" y="1088.218" transform="matrix(-0.5145 0.8575 -0.8575 -0.5145 3460.4512 218.6625)" clip-path="url(#SVGID_4_)" fill="#49263E" width="16.511" height="1.593"/>
		
			<rect x="1650.849" y="1090.749" transform="matrix(-0.4993 0.8664 -0.8664 -0.4993 3432.8926 199.2155)" clip-path="url(#SVGID_4_)" fill="#49263E" width="16.068" height="1.591"/>
		<path clip-path="url(#SVGID_4_)" fill="#EF3A4C" d="M353.582,1043.424v86.636c0,3.544,2.873,6.416,6.417,6.416h49.425
			c3.544,0,6.417-2.872,6.417-6.416v-4.444c19.579,0,35.507-15.927,35.507-35.502c0-19.577-15.928-35.503-35.507-35.503v-11.187
			H353.582z M415.841,1116.862v-53.497c14.751,0,26.752,12,26.752,26.749C442.593,1104.862,430.592,1116.862,415.841,1116.862"/>
		
			<rect x="375.898" y="1096.734" transform="matrix(-0.5144 0.8575 -0.8575 -0.5144 1524.0133 1332.2267)" clip-path="url(#SVGID_4_)" fill="#49263E" width="17.853" height="1.721"/>
		
			<rect x="365.932" y="1099.468" transform="matrix(-0.4993 0.8664 -0.8664 -0.4993 1515.0267 1325.1273)" clip-path="url(#SVGID_4_)" fill="#49263E" width="17.374" height="1.721"/>
		<path clip-path="url(#SVGID_4_)" fill="#FE9F73" d="M1944.205,976.545c0.43-2.775,3.062-4.669,5.857-4.42l17.406,1.551
			c0.545,0.049,1.061-0.255,1.283-0.755c0.327-0.738-0.102-1.592-0.889-1.771l-25.175-5.676c-2.884-0.65-4.263-3.394-3.062-6.096
			c1.2-2.702,4.542-4.381,7.428-3.73l25.671,5.789c0.596,0.134,1.204-0.171,1.452-0.729l0.175-0.395
			c0.288-0.646-0.003-1.403-0.65-1.69l-26.676-11.852c-2.566-1.141-3.947-4.072-2.976-6.707c1.065-2.888,4.324-4.232,7.092-3.003
			l26.841,11.923c0.646,0.288,1.403-0.003,1.69-0.649l0.558-1.254c0.261-0.588,0.046-1.278-0.503-1.613l-23.286-14.226
			c-2.396-1.466-3.383-4.552-2.078-7.037c1.432-2.725,4.837-3.636,7.421-2.057c0,0,36.674,19.786,42.658,22.412l-2.725-14.998
			c-1.047-2.718,0.309-5.769,3.026-6.814v0.001c2.718-1.046,5.77,0.31,6.814,3.025l15.793,30.056
			c0.682,1.771-0.852,5.249-2.751,7.75c-10.431,29.316-12.278,33.746-15.818,41.392l-29.92-14.52
			c-8.634-4.189-17.958-6.773-27.516-7.625l-2.401-0.215C1945.932,982.345,1943.734,979.586,1944.205,976.545"/>
		<path clip-path="url(#SVGID_4_)" fill="#FD7583" d="M2031.014,950.797l122.94,104.752l-14.005,69.478l-35.039-5.187
			l-117.773-119.146C1987.137,1000.694,2001.844,964.03,2031.014,950.797"/>
		<path clip-path="url(#SVGID_4_)" fill="#21111D" d="M2133.254,1039.032c-0.256,0-0.514-0.088-0.725-0.269l-101.689-86.646
			c-21.861,10.569-34.876,34.008-35.006,34.246c-0.296,0.541-0.976,0.741-1.517,0.443c-0.542-0.296-0.743-0.975-0.446-1.518
			c0.135-0.246,13.739-24.776,36.669-35.506l0.651-0.306l102.789,87.584c0.47,0.4,0.526,1.105,0.127,1.575
			C2133.885,1038.898,2133.571,1039.032,2133.254,1039.032"/>
		<path clip-path="url(#SVGID_4_)" fill="#4C222E" d="M2176.291,774.908c0,0-10.115-21.839,14.702-40.703
			c24.817-18.864,29.464,12.356,39.26,15.097c9.795,2.741,27.345-1.07,34.162,17.035c6.818,18.104,1.847,32.736,9.354,40.291
			c12.533,12.61,43.355,40.023,24.232,90.206c-12.557,32.952-53.996,71.492-53.996,71.492s-101.898-65.164-111.145-99.024
			c-9.247-33.859,3.195-48.716,19.626-60.394C2162.586,801.732,2182.981,795.626,2176.291,774.908"/>
		<path clip-path="url(#SVGID_4_)" fill="#FE9F73" d="M2189.954,785.371c0,0-10.427,46.604-3.265,57.623
			c0,0,3.472,5.839,12.725,6.678l-2.132,29.479l41.603,3.01l6.995-96.719L2189.954,785.371z"/>
		<path clip-path="url(#SVGID_4_)" fill="#F07162" d="M2200.868,823.345c0.175,0.013,0.341-0.098,0.392-0.272
			c0.059-0.202-0.058-0.413-0.259-0.472c-2.402-0.699-3.725-3.817-4.096-4.83c3.601-1.6,5.89-3.854,6.806-6.703
			c1.493-4.645-1.194-9.137-1.31-9.326c-0.108-0.178-0.343-0.234-0.521-0.126c-0.181,0.109-0.237,0.343-0.128,0.522
			c0.026,0.043,2.621,4.393,1.232,8.702c-0.874,2.712-3.129,4.856-6.702,6.372l-0.314,0.134l0.099,0.327
			c0.059,0.192,1.465,4.71,4.721,5.658C2200.815,823.338,2200.842,823.343,2200.868,823.345"/>
		<path clip-path="url(#SVGID_4_)" fill="#F07162" d="M2198.557,861.53l0.857-11.858c0,0,20.133,0.271,32.99-6.589
			C2232.404,843.083,2214.553,857.924,2198.557,861.53"/>
		<path clip-path="url(#SVGID_4_)" fill="#4C222E" d="M2225.54,805.043c0.188,0.014,0.383-0.043,0.54-0.174
			c0.322-0.269,0.367-0.747,0.1-1.069c-0.09-0.108-9.086-10.747-18.487-4.234c-0.345,0.239-0.431,0.713-0.192,1.059
			c0.239,0.345,0.712,0.431,1.059,0.19c8.253-5.714,16.121,3.559,16.451,3.956C2225.147,804.936,2225.341,805.028,2225.54,805.043"
			/>
		<path clip-path="url(#SVGID_4_)" fill="#4C222E" d="M2199.313,801.482c0.212,0.016,0.43-0.059,0.592-0.221
			c0.297-0.297,0.299-0.776,0.002-1.074c-0.268-0.268-6.599-6.528-11.144-3.166c-0.337,0.249-0.408,0.725-0.159,1.062
			c0.25,0.338,0.727,0.411,1.063,0.16c3.494-2.58,9.107,2.963,9.164,3.019C2198.965,801.396,2199.137,801.468,2199.313,801.482"/>
		<path clip-path="url(#SVGID_4_)" d="M2190.213,806.732c-0.084,1.166,0.793,2.181,1.959,2.265s2.18-0.793,2.266-1.959
			c0.084-1.166-0.793-2.18-1.959-2.264C2191.313,804.689,2190.298,805.566,2190.213,806.732"/>
		<path clip-path="url(#SVGID_4_)" d="M2211.229,807.929c-0.084,1.166,0.793,2.18,1.959,2.264s2.181-0.793,2.265-1.959
			s-0.793-2.18-1.959-2.264C2212.328,805.885,2211.314,806.762,2211.229,807.929"/>
		<path clip-path="url(#SVGID_4_)" fill="#FE9F73" d="M2235.113,819.063c-0.473,6.538,4.443,12.222,10.981,12.693
			c6.538,0.474,12.221-4.442,12.694-10.98c0.473-6.538-4.444-12.222-10.981-12.694
			C2241.27,807.609,2235.586,812.525,2235.113,819.063"/>
		<path clip-path="url(#SVGID_4_)" fill="#F07162" d="M2247.299,827.288c2.484,0.18,4.279-1.566,4.96-3.394
			c0.806-2.159,0.22-4.358-1.494-5.602c-2.439-1.77-4.827-1.011-6.148-0.311c0.6-1.222,1.442-2.088,2.514-2.578
			c2.411-1.105,5.205,0.03,5.233,0.043c0.195,0.081,0.416-0.013,0.498-0.205c0.08-0.193-0.012-0.416-0.206-0.497
			c-0.128-0.053-3.132-1.275-5.841-0.032c-1.567,0.718-2.697,2.105-3.36,4.125l-0.425,1.294l1.035-0.888
			c0.125-0.108,3.111-2.617,6.254-0.336c1.736,1.26,1.748,3.331,1.229,4.722c-0.544,1.458-1.98,3.086-4.253,2.894
			c-0.205-0.019-0.394,0.138-0.412,0.348c-0.018,0.209,0.138,0.393,0.347,0.411L2247.299,827.288z"/>
		<path clip-path="url(#SVGID_4_)" fill="#FE9F73" d="M2189.954,785.371c0,0,4.918-17.959,29.442-18.202
			c24.523-0.243,26.483,18.272,26.483,18.272l-28.228,3.631l-25.893-3.699L2189.954,785.371z"/>
		<path clip-path="url(#SVGID_4_)" fill="#4C222E" d="M2191.07,769.937c0,0,14.088,15.941,34.008,14c0,0,4.825,24.509,19.144,24.43
			c14.317-0.08,8.978-33.936,8.978-33.936s-25.832-12.766-27.517-12.888c-1.686-0.122-29.8-3.849-29.8-3.849L2191.07,769.937z"/>
		<path clip-path="url(#SVGID_4_)" fill="#FBFDFC" d="M2196.748,828.32c0.221-0.066,14.371-1.87,14.371-1.87
			s-1.172,6.052-6.431,6.736C2199.43,833.87,2196.748,828.32,2196.748,828.32"/>
		<path clip-path="url(#SVGID_4_)" fill="#4C222E" d="M2167.862,1552.613h73.203v-250.399h16.264v250.399h71.304
			c9.949,0,18.014,8.064,18.014,18.016h-89.317h-16.264h-91.218C2149.848,1560.677,2157.913,1552.613,2167.862,1552.613"/>
		<polygon clip-path="url(#SVGID_4_)" fill="#FEC786" points="2460.88,914.738 2292.641,914.738 2203.641,1302.213 
			2396.431,1282.115 		"/>
		<path clip-path="url(#SVGID_4_)" fill="#F99247" d="M2075.513,1262.744c0,0,221.099,0.002,287.08,0.002
			c10.649,0,19.776-7.6,21.711-18.069l58.665-317.613c1.576-8.531,9.916-14.107,18.461-12.214
			c8.139,1.805,13.225,9.964,11.71,18.162l-66.46,359.808c-0.515,2.788-1.765,5.251-3.496,7.251
			c-4.275,7.944-12.668,13.346-22.322,13.346h-305.349c-13.993,0-25.337-11.343-25.337-25.336S2061.52,1262.744,2075.513,1262.744"
			/>
		<path clip-path="url(#SVGID_4_)" fill="#21111D" d="M2362.593,1263.981c11.242,0,20.884-8.024,22.926-19.081l58.665-317.611
			c0.704-3.808,2.869-7.082,6.098-9.221c3.228-2.138,7.09-2.854,10.881-2.012c0.665,0.147,1.327-0.272,1.474-0.939
			c0.147-0.666-0.271-1.325-0.938-1.474c-4.451-0.987-8.989-0.146-12.78,2.364c-3.793,2.513-6.337,6.359-7.163,10.831
			l-58.665,317.613c-1.826,9.883-10.445,17.058-20.496,17.058c-0.683,0-1.235,0.555-1.235,1.236S2361.91,1263.981,2362.593,1263.981
			"/>
		<path clip-path="url(#SVGID_4_)" fill="#21111D" d="M2396.064,915.973h0.002l58.873-0.086c0.684-0.001,1.235-0.556,1.234-1.237
			s-0.553-1.234-1.235-1.234h-0.002l-58.874,0.086c-0.683,0.002-1.234,0.556-1.232,1.238
			C2394.83,915.421,2395.383,915.973,2396.064,915.973"/>
		<polygon clip-path="url(#SVGID_4_)" fill="#FE9F73" points="1915.593,1547.817 2003.355,1540.692 2004.254,1522.245 
			2005.116,1457.174 1914.487,1466.373 		"/>
		<path clip-path="url(#SVGID_4_)" fill="#3AA1C9" d="M2152.307,1089.879c0,0-189.297,23.747-215.758,57.672
			c-13.047,16.725-39.628,241.101-28.604,334.441c0,0,67.617,4.655,99.957-3.184l7.869-227.595l145.355-43.957l74.634-114.663
			L2152.307,1089.879z"/>
		<path clip-path="url(#SVGID_4_)" fill="#21111D" d="M1961.592,1484.56c27.452,0,46.407-4.499,46.602-4.546l0.916-0.223
			l7.958-230.128l-10.162,8.18l1.556,1.932l5.94-4.781l-7.706,222.813c-4.206,0.906-22.525,4.524-47.506,4.261l-0.024,2.479
			C1959.98,1484.556,1960.79,1484.56,1961.592,1484.56"/>
		<path clip-path="url(#SVGID_4_)" fill="#CE1D37" d="M1977.424,1570.39l-119.833-0.029c-1.082-0.174-1.966-0.362-2.607-0.567
			c-7.688-2.448-8.33-6.942-7.969-9.538c0.16-1.153,0.829-2.175,1.817-2.814l66.196-42.857l21.871,9.676
			c6.96,3.097,14.378,5.069,21.979,5.8c15.521,1.489,40.425,2.297,45.369-7.344l-0.782,36.995
			C2003.466,1559.71,2007.087,1570.677,1977.424,1570.39"/>
		<path clip-path="url(#SVGID_4_)" fill="#4CB7D8" d="M2149.791,1265.163c0,0,72.551,1.192,123.4-0.548
			c16.322-0.559,30.848,0.592,39.449-1.318c35.393-7.861,44.11-118.335,3.922-186.021
			c-40.188-67.687-180.797,140.129-180.797,140.129L2149.791,1265.163z"/>
		<path clip-path="url(#SVGID_4_)" fill="#FE9F73" d="M2019.191,1549.056l74.841-4.028c8.104-0.436,14.509-7.031,14.712-15.143
			l1.827-73.677l-90.63,9.199L2019.191,1549.056z"/>
		<path clip-path="url(#SVGID_4_)" fill="#4CB7D8" d="M2210.656,1113.626c0,0-194.386,23.05-199.529,43.629
			c-5.146,20.579-16.207,231.888-5.183,325.228c0,0,72.708,4.164,105.047-3.674l8.714-214.696l31.363,1.095l76.047-133.793
			L2210.656,1113.626z"/>
		<path clip-path="url(#SVGID_4_)" fill="#21111D" d="M2067.362,1485.021c32.128,0,43.583-4.838,44.127-5.076l0.71-0.313
			l8.437-215.956l-13.276,6.262l1.059,2.243l9.579-4.519l-8.214,210.273c-3.475,1.2-20.139,6.009-59.492,4.19l-0.115,2.479
			C2056.469,1484.896,2062.185,1485.021,2067.362,1485.021"/>
		<path clip-path="url(#SVGID_4_)" fill="#21111D" d="M2104.343,1436.732c3.429-13.227-2.44-140.508-2.401-145.993l-2.48-0.019
			c-0.01,1.342,5.833,132.457,2.48,145.39L2104.343,1436.732z"/>
		<path clip-path="url(#SVGID_4_)" fill="#21111D" d="M2204.381,1267.476c31.657,0,69.608-1.071,112.275-4.285l-0.186-2.464
			c-127.125,9.578-212.379,0.102-213.225,0.005l-0.28,2.455C2103.529,1263.25,2141.529,1267.476,2204.381,1267.476"/>
		<path clip-path="url(#SVGID_4_)" fill="#EF3A4C" d="M2081.985,1570.39l-119.833-0.029c-1.081-0.174-1.966-0.362-2.607-0.567
			c-7.688-2.448-8.33-6.942-7.969-9.538c0.161-1.153,0.829-2.175,1.817-2.814l66.197-42.857l21.87,9.676
			c6.959,3.097,14.379,5.069,21.98,5.8c15.521,1.489,40.655,2.29,45.6-7.352l-1.013,37.003
			C2108.028,1559.71,2111.648,1570.677,2081.985,1570.39"/>
		<path clip-path="url(#SVGID_4_)" fill="#21111D" d="M2252.692,1314.866h0.002l119.767-0.215
			c32.261,2.907,36.102-24.699,36.285-26.214l7.12-38.55c0.124-0.67-0.319-1.314-0.989-1.438c-0.676-0.123-1.317,0.318-1.44,0.99
			l-7.142,38.688c-0.112,1.097-3.088,26.847-33.668,24.057l-0.115-0.005l-119.822,0.215c-0.682,0.003-1.234,0.556-1.232,1.239
			C2251.459,1314.314,2252.011,1314.866,2252.692,1314.866"/>
		<path clip-path="url(#SVGID_4_)" fill="#FD7583" d="M2126.048,944.33c-2.326,3.209-11.89,104.873-13.335,120.365l3.604,5.627
			l44.489,54.634c8.591-13.064,12.116-20.591,12.116-20.591S2128.566,940.855,2126.048,944.33"/>
		<path clip-path="url(#SVGID_4_)" fill="#FD7583" d="M2304.678,1172.703c0,0-50.226-8.022-100.288-26.88
			s-80.542-31.106-80.542-31.106s1.991-14.265,4.385-26.413l4.187-21.372l-6.698-109.786c0,0-7.182-51.629,56.049-83.029
			c-2.201,1.933,5.183-2.521,5.183-2.521s63.599-16.197,87.006-10.515c43.309,10.515,65.569,76.681,65.569,76.681
			c17.975,61.051,35.343,146.737,22.129,180.198c-16.785,42.503-47.545,52.754-56.94,54.944
			C2304.691,1172.772,2304.678,1172.703,2304.678,1172.703"/>
		<path clip-path="url(#SVGID_4_)" fill="#21111D" d="M2116.662,1024.892c-0.036,0-0.073-0.001-0.109-0.005
			c-0.615-0.061-1.065-0.608-1.004-1.224l1.129-11.502c3.107-58.614,12.318-85.16,12.41-85.421
			c15.86-39.804,57.049-56.031,57.465-56.19c0.572-0.222,1.221,0.066,1.443,0.644c0.223,0.576-0.064,1.222-0.642,1.445
			c-0.405,0.155-40.698,16.054-56.173,54.89c-0.076,0.218-9.183,26.518-12.273,84.8l-1.134,11.554
			C2117.719,1024.459,2117.23,1024.892,2116.662,1024.892"/>
		<path clip-path="url(#SVGID_4_)" fill="#FE9F73" d="M2190.208,870.795c0,0,10.445,20.414,28.675,18.426
			c18.229-1.989,31.438-20.15,30.469-28.802C2249.352,860.419,2208.93,862.976,2190.208,870.795"/>
		<polygon clip-path="url(#SVGID_4_)" fill="#49263E" points="2087.153,1005.243 2087.498,1005.243 2122.943,1005.243 
			2113.98,1110.784 2087.498,1110.784 2087.153,1110.784 2059.715,1110.784 2051.709,1005.243 		"/>
		<path clip-path="url(#SVGID_4_)" fill="#CE1D37" d="M2061.169,986.727h25.984h0.345h25.984c3.042,0,5.509,2.487,5.509,5.555
			h-31.493h-0.345h-31.492C2055.661,989.214,2058.127,986.727,2061.169,986.727"/>
		<path clip-path="url(#SVGID_4_)" fill="#EF3A4C" d="M2052.498,995.13c0.348-1.66,1.801-2.85,3.483-2.85h31.172h0.345h31.172
			c1.684,0,3.137,1.189,3.484,2.85l2.955,14.111c0.468,2.233-1.221,4.333-3.483,4.333h-34.128h-0.345h-34.128
			c-2.262,0-3.951-2.1-3.483-4.333L2052.498,995.13z"/>
		<polygon clip-path="url(#SVGID_4_)" fill="#EF3A4C" points="2121.19,1037.646 2118.871,1080.546 2087.546,1080.546 
			2087.106,1080.546 2055.782,1080.546 2053.462,1037.646 2087.106,1037.646 2087.546,1037.646 		"/>
		<path clip-path="url(#SVGID_4_)" fill="#21111D" d="M2119.576,1081.293h-63.795c-0.412,0-0.745-0.334-0.745-0.746
			s0.333-0.746,0.745-0.746h62.382l2.282-42.196c0.023-0.411,0.368-0.724,0.785-0.705c0.411,0.024,0.727,0.375,0.705,0.786
			L2119.576,1081.293z"/>
		<path clip-path="url(#SVGID_4_)" fill="#21111D" d="M2070.526,1027.251c-0.26,0-0.512-0.137-0.649-0.378l-6.09-10.745
			c-0.203-0.358-0.076-0.814,0.281-1.018c0.36-0.201,0.813-0.076,1.018,0.281l6.089,10.746c0.204,0.358,0.077,0.813-0.281,1.016
			C2070.776,1027.22,2070.65,1027.251,2070.526,1027.251"/>
		<path clip-path="url(#SVGID_4_)" fill="#21111D" d="M2069.506,1033.423c-0.257,0-0.507-0.132-0.646-0.37l-5.506-9.464
			c-0.207-0.356-0.086-0.813,0.269-1.021c0.356-0.208,0.813-0.087,1.021,0.271l5.508,9.464c0.207,0.354,0.086,0.812-0.271,1.019
			C2069.763,1033.391,2069.634,1033.423,2069.506,1033.423"/>
		<path clip-path="url(#SVGID_4_)" fill="#FE9F73" d="M2065.203,1062.192c-4.557-6.742,1.999-13.004,1.999-13.004
			c-0.479-9.003,4.176-12.775,4.176-12.775s20.679,11.849,33.182,19.326c7.79,0.276,11.157-2.926,11.157-2.926l0.135,0.353
			c1.375-6.539,3.09-14.717,3.263-15.643c0.292-1.565,3.267-3.608,6.256,2.081c2.99,5.689,9.636,19.851,9.636,19.851l20.157-7.268
			l5.644,58.042c0,0-48.744-2.148-56.149-2.99s-31.724-11.583-38.123-19.259c-6.399-7.678-3.721-12.981-3.721-12.981
			C2058.456,1067.185,2065.203,1062.192,2065.203,1062.192"/>
		<path clip-path="url(#SVGID_4_)" fill="#F07162" d="M2081.707,1060.647c0.371,0.068,0.762-0.104,0.951-0.454
			c0.236-0.436,0.075-0.979-0.359-1.214c-6.098-3.312-14.433-10.401-14.515-10.474c-0.377-0.319-0.942-0.274-1.264,0.101
			c-0.321,0.377-0.277,0.942,0.1,1.264c0.347,0.296,8.562,7.283,14.823,10.683
			C2081.528,1060.599,2081.617,1060.629,2081.707,1060.647"/>
		<path clip-path="url(#SVGID_4_)" fill="#F07162" d="M2079.625,1071.803c0.417,0.078,0.842-0.149,1-0.56
			c0.178-0.462-0.052-0.979-0.514-1.157c-7.875-3.041-14.258-8.518-14.321-8.572c-0.377-0.325-0.942-0.282-1.265,0.091
			c-0.323,0.375-0.283,0.94,0.091,1.263c0.271,0.233,6.674,5.733,14.851,8.891
			C2079.52,1071.778,2079.572,1071.793,2079.625,1071.803"/>
		<path clip-path="url(#SVGID_4_)" fill="#F07162" d="M2075.294,1084.16c0.406,0.076,0.823-0.139,0.99-0.534
			c0.19-0.456-0.023-0.981-0.479-1.173c-6.723-2.821-12.322-8.055-12.378-8.107c-0.359-0.34-0.927-0.322-1.267,0.039
			c-0.339,0.359-0.321,0.926,0.039,1.267c0.236,0.224,5.893,5.509,12.912,8.453
			C2075.172,1084.13,2075.232,1084.147,2075.294,1084.16"/>
		<path clip-path="url(#SVGID_4_)" fill="#21111D" d="M2331.513,1161.157c-2.313,1.748-4.537,3.236-6.619,4.501
			c-12.507,7.59-22.423,8.884-22.84,8.936c-0.632,0.078-1.208-0.372-1.286-1.005c-0.08-0.632,0.371-1.208,1.002-1.288
			c0.099-0.012,9.93-1.311,22.031-8.683c11.161-6.795,26.604-20.313,36.781-46.083c12.777-32.353-3.568-115.573-21.445-177.008
			c-0.18-0.612,0.174-1.255,0.786-1.433s1.253,0.174,1.432,0.787c17.979,61.785,34.367,145.607,21.376,178.502
			C2354.184,1140.026,2341.971,1153.246,2331.513,1161.157"/>
		<path clip-path="url(#SVGID_4_)" fill="#21111D" d="M2268.753,1069.488c-0.177,0.134-0.395,0.219-0.633,0.23
			c-0.637,0.036-1.181-0.453-1.216-1.089c-0.047-0.836-4.646-84.19-11.277-135.544c-0.081-0.634,0.368-1.212,0.997-1.294
			c0.633-0.082,1.213,0.365,1.294,0.998c6.643,51.438,11.247,134.877,11.292,135.713
			C2269.232,1068.902,2269.049,1069.263,2268.753,1069.488"/>
		<path clip-path="url(#SVGID_4_)" fill="#21111D" d="M2216.391,903.498c-0.883,0.163-1.783,0.312-2.702,0.451
			c-0.524,0.078-1.014-0.283-1.092-0.808c-0.079-0.523,0.267-1.007,0.808-1.092c39.438-5.918,44.508-35.532,44.543-35.828
			c0.056-0.519,0.516-0.912,1.037-0.863c0.52,0.046,0.909,0.485,0.877,1.006C2259.842,866.667,2254.829,896.426,2216.391,903.498"/>
		<path clip-path="url(#SVGID_4_)" fill="#21111D" d="M2156.546,1048.369c0.058-27.426-0.274-58.387-1.808-73.978
			c-0.062-0.635,0.404-1.2,1.037-1.262c0.635-0.063,1.201,0.401,1.262,1.036c1.548,15.739,1.878,47.008,1.818,74.59
			C2158.09,1048.625,2157.309,1048.495,2156.546,1048.369"/>
		<path clip-path="url(#SVGID_4_)" fill="#FD7583" d="M2179.385,1074.102l-18.579-24.627l-19.062-2.34
			c0,0-11.413,24.215-14.285,44.102c-2.873,19.886-4.59,22.389-4.59,22.389l64.083,2.139L2179.385,1074.102z"/>
		<path clip-path="url(#SVGID_4_)" fill="#21111D" d="M2208.643,1148.114c0.315-0.093,0.58-0.336,0.686-0.674
			c0.168-0.537-0.133-1.106-0.67-1.274c-15.266-4.753-76.689-29.295-83.77-32.129c0.955-25.812,14.623-61.271,16.855-66.902
			l123.887,22.528l17.306,6.173c0.53,0.19,1.112-0.087,1.302-0.618c0.188-0.528-0.088-1.11-0.617-1.299l-17.543-6.243l-125.6-22.839
			l-0.313,0.763c-0.165,0.405-16.539,40.705-17.336,69.088l-0.02,0.711l0.658,0.263c0.683,0.273,68.383,27.404,84.585,32.448
			C2208.253,1148.171,2208.456,1148.168,2208.643,1148.114"/>
		<path clip-path="url(#SVGID_4_)" fill="#258D8C" d="M2832.593,1205.708c0,0-7.263-101.256-46.567-81.604
			c-39.308,19.654-71.351,148.681-75.623,152.526c-4.272,3.845-2.99,121.763-2.99,121.763l45.715-23.065
			C2753.127,1375.327,2765.29,1093.475,2832.593,1205.708"/>
		<path clip-path="url(#SVGID_4_)" fill="#7FC6A6" d="M2788.543,996.063c0,0-88.072,78.802-112.105,213.917
			c-24.032,135.113,51.91,174.88,51.91,174.88S2739.153,1100.758,2788.543,996.063"/>
		<path clip-path="url(#SVGID_4_)" fill="#258D8C" d="M2625.168,1403.092c0,0-14.738-287.631-89.079-412.336
			c0,0,130.513,77.862,173.786,282.233c2.438,11.507,3.882,24.295,5.727,36.612c1.92,12.813,3.063,24.16,2.771,35.487
			c-0.517,20.012-3.293,37.209-4.108,49.847C2707.214,1504.138,2625.168,1403.092,2625.168,1403.092"/>
		<path clip-path="url(#SVGID_4_)" fill="#7FC6A6" d="M2627.688,1280.954c-5.059-41.008-20.629-80.098-45.652-112.978
			c-18.076-23.751-39.004-41.8-55.346-28.919c-36.314,28.625-43.578,206.357-43.578,206.357s41.015-123.045,58.959-114.928
			c17.943,8.117,34.606,175.169,34.606,175.169l67.076,5.554L2627.688,1280.954z"/>
		<path clip-path="url(#SVGID_4_)" fill="#21111D" d="M2719.177,1393.05c2.754-62.796-5.121-123.066-23.407-179.139
			c-14.631-44.86-35.92-87.147-63.276-125.685c-46.586-65.628-95.321-98.058-95.809-98.378l-1.192,1.814
			c0.484,0.318,48.936,32.573,95.287,97.898c42.764,60.27,92.437,161.828,86.229,303.394L2719.177,1393.05z"/>
		<path clip-path="url(#SVGID_4_)" fill="#21111D" d="M2729.432,1384.901c0.026-0.71,2.802-71.962,11.573-155.077
			c8.089-76.655,23.073-179.355,48.521-233.299l-1.964-0.926c-25.578,54.221-40.61,157.183-48.718,234.009
			c-8.777,83.188-11.555,154.5-11.582,155.211L2729.432,1384.901z"/>
		<path clip-path="url(#SVGID_4_)" fill="#21111D" d="M2754.211,1375.374c0.021-0.463,2.084-46.787,8.891-93.729
			c8.95-61.72,21.887-96.446,37.409-100.427c9.166-2.348,19.646,6.08,31.154,25.051l1.856-1.126
			c-12.063-19.885-23.351-28.643-33.549-26.027c-16.677,4.275-29.805,38.672-39.021,102.233c-6.821,47.046-8.889,93.466-8.909,93.93
			L2754.211,1375.374z"/>
		<path clip-path="url(#SVGID_4_)" fill="#21111D" d="M2642.676,1411.342l2.154-0.267l-16.065-130.255
			c-5.127-41.564-20.985-80.812-45.864-113.5c-15.754-20.698-29.746-31.956-41.588-33.459c-5.593-0.712-10.737,0.751-15.295,4.344
			c-15.291,12.053-27.34,50.615-35.812,114.621c-6.289,47.512-8.161,92.099-8.179,92.542l2.168,0.09
			c0.072-1.771,7.655-177.558,43.166-205.55c4.084-3.218,8.686-4.525,13.678-3.894c11.243,1.428,24.745,12.402,40.133,32.62
			c24.646,32.383,40.357,71.269,45.438,112.451L2642.676,1411.342z"/>
		
			<rect x="2577.941" y="1249.495" transform="matrix(-0.8888 0.4583 -0.4583 -0.8888 5450.9443 1206.9994)" clip-path="url(#SVGID_4_)" fill="#21111D" width="2.171" height="30.741"/>
		
			<rect x="2577.941" y="1267.841" transform="matrix(-0.8758 0.4827 -0.4827 -0.8758 5456.7432 1160.8264)" clip-path="url(#SVGID_4_)" fill="#21111D" width="2.171" height="29.21"/>
		
			<rect x="2709.584" y="1100.394" transform="matrix(-0.4145 0.9101 -0.9101 -0.4145 4855.6396 -921.063)" clip-path="url(#SVGID_4_)" fill="#21111D" width="29.064" height="2.171"/>
		
			<rect x="2712.642" y="1117.184" transform="matrix(-0.4847 0.8747 -0.8747 -0.4847 5021.2559 -721.6979)" clip-path="url(#SVGID_4_)" fill="#21111D" width="21.156" height="2.171"/>
		
			<rect x="2775.156" y="1138.912" transform="matrix(-0.891 0.4541 -0.4541 -0.891 5787.1221 890.2869)" clip-path="url(#SVGID_4_)" fill="#21111D" width="23.018" height="2.171"/>
		
			<rect x="2775.377" y="1149.353" transform="matrix(-0.8543 0.5198 -0.5198 -0.8543 5757.5371 687.0696)" clip-path="url(#SVGID_4_)" fill="#21111D" width="14.201" height="2.171"/>
		<path clip-path="url(#SVGID_4_)" fill="#F99247" d="M2776.411,1368.014c0,0-3.827,210.277-60.149,205.346h-44.289h-7.111h-44.289
			c-56.322,4.932-60.15-205.346-60.15-205.346C2613.721,1359.958,2723.113,1359.958,2776.411,1368.014"/>
		
			<rect x="2611.893" y="1383.421" transform="matrix(-0.726 0.6877 -0.6877 -0.726 5492.1079 667.9474)" clip-path="url(#SVGID_4_)" fill="#21111D" width="2.171" height="89.505"/>
		
			<rect x="2616.128" y="1431.178" transform="matrix(-0.7544 0.6564 -0.6564 -0.7544 5548.0708 838.3558)" clip-path="url(#SVGID_4_)" fill="#21111D" width="2.171" height="51.633"/>
		<path clip-path="url(#SVGID_4_)" fill="#FFFFFF" d="M1854.931,1090.555c0,0,7.066,17.78,1.14,31.229l135.865,1.142l12.538-1.142
			l11.052-6.846v-10.479l-3.073-8.661l-10.03-5.243H1854.931z"/>
		<path clip-path="url(#SVGID_4_)" fill="#EF3A4C" d="M1998.3,1124.657h-146.789c-0.956,0-1.73-0.774-1.73-1.73
			c0-0.957,0.774-1.731,1.73-1.731H1998.3c8.86,0,16.069-6.688,16.069-14.91c0-8.223-7.209-14.91-16.069-14.91h-146.789
			c-0.956,0-1.73-0.776-1.73-1.732s0.774-1.729,1.73-1.729H1998.3c10.771,0,19.531,8.241,19.531,18.372
			S2009.07,1124.657,1998.3,1124.657"/>
		<path clip-path="url(#SVGID_4_)" fill="#AAC9F8" d="M1928.961,1106.669h-72.036c-0.212,0-0.384-0.172-0.384-0.385
			c0-0.214,0.172-0.386,0.384-0.386h72.036c0.213,0,0.385,0.172,0.385,0.386C1929.346,1106.498,1929.174,1106.669,1928.961,1106.669
			"/>
		<path clip-path="url(#SVGID_4_)" fill="#AAC9F8" d="M2009.09,1106.669h-69.983c-0.214,0-0.386-0.172-0.386-0.385
			c0-0.214,0.172-0.386,0.386-0.386h69.983c0.213,0,0.385,0.172,0.385,0.386C2009.475,1106.498,2009.303,1106.669,2009.09,1106.669"
			/>
		<path clip-path="url(#SVGID_4_)" fill="#AAC9F8" d="M2007.209,1113.562h-35.907c-0.213,0-0.385-0.173-0.385-0.385
			c0-0.214,0.172-0.386,0.385-0.386h35.907c0.213,0,0.385,0.172,0.385,0.386C2007.594,1113.389,2007.422,1113.562,2007.209,1113.562
			"/>
		<path clip-path="url(#SVGID_4_)" fill="#AAC9F8" d="M1966.034,1113.562h-109.108c-0.213,0-0.385-0.173-0.385-0.385
			c0-0.214,0.172-0.386,0.385-0.386h109.108c0.212,0,0.384,0.172,0.384,0.386
			C1966.418,1113.389,1966.246,1113.562,1966.034,1113.562"/>
		<path clip-path="url(#SVGID_4_)" fill="#21111D" d="M1998.3,1125.042h-146.789c-1.166,0-2.114-0.949-2.114-2.115
			c0-1.167,0.948-2.116,2.114-2.116c0.213,0,0.386,0.171,0.386,0.384c0,0.214-0.173,0.386-0.386,0.386
			c-0.741,0-1.346,0.604-1.346,1.347c0,0.742,0.604,1.345,1.346,1.345H1998.3c10.559,0,19.146-8.068,19.146-17.986
			c0-9.919-8.588-17.987-19.146-17.987h-146.789c-0.741,0-1.346,0.603-1.346,1.346c0,0.742,0.604,1.347,1.346,1.347
			c0.213,0,0.386,0.172,0.386,0.385s-0.173,0.385-0.386,0.385c-1.166,0-2.114-0.949-2.114-2.116s0.948-2.116,2.114-2.116H1998.3
			c10.981,0,19.916,8.414,19.916,18.758C2018.216,1116.627,2009.281,1125.042,1998.3,1125.042"/>
		<path clip-path="url(#SVGID_4_)" fill="#7FC6A6" d="M1895.729,1099.389c0,0-4.624,11.517-1.959,19.995l3.757-5.806
			c0,0,2.564,3.078,4.138,5.806c0,0,2.868-18.936,8.429-19.995H1895.729z"/>
		<path clip-path="url(#SVGID_4_)" fill="#AAC9F8" d="M2007.209,1099.773h-150.284c-0.212,0-0.384-0.172-0.384-0.385
			s0.172-0.385,0.384-0.385h150.284c0.213,0,0.385,0.172,0.385,0.385S2007.422,1099.773,2007.209,1099.773"/>
		<polygon clip-path="url(#SVGID_4_)" fill="#FEC786" points="2085.129,1570.395 2102.331,1570.395 2071.3,1133.663 
			2036.897,1133.663 		"/>
		<rect x="909.137" y="1124.955" clip-path="url(#SVGID_4_)" fill="#4C222E" width="1233.877" height="32.301"/>
		<g opacity="0.3" clip-path="url(#SVGID_4_)">
			<g>
				<defs>
					<rect id="SVGID_13_" x="1875.561" y="31.68" width="520.42" height="327.42"/>
				</defs>
				<clipPath id="SVGID_14_">
					<use xlink:href="#SVGID_13_"  overflow="visible"/>
				</clipPath>
				<path clip-path="url(#SVGID_14_)" fill="#F7AB48" d="M2142.703,359.102h253.271l-30.535-68.524h0.005V93.058
					c-2.642-0.923-5.285-1.834-7.928-2.732v200.251h-214.813h-8.73h-214.811V31.681c-2.631,0.182-5.273,0.371-7.927,0.566v258.33
					l-35.679,68.524h258.416H2142.703z"/>
			</g>
		</g>
		<rect x="46.594" y="1185.157" clip-path="url(#SVGID_4_)" fill="#49263E" width="470.035" height="386.579"/>
		<rect x="46.594" y="1357.399" clip-path="url(#SVGID_4_)" fill="#F99247" width="470.035" height="12.832"/>
		<rect x="46.594" y="1558.904" clip-path="url(#SVGID_4_)" fill="#F99247" width="470.035" height="12.832"/>
		<g opacity="0.3" clip-path="url(#SVGID_4_)">
			<g>
				<defs>
					<rect id="SVGID_15_" x="393.529" y="1185.157" width="123.099" height="386.579"/>
				</defs>
				<clipPath id="SVGID_16_">
					<use xlink:href="#SVGID_15_"  overflow="visible"/>
				</clipPath>
				<rect x="393.529" y="1185.157" clip-path="url(#SVGID_16_)" fill="#49263E" width="123.1" height="386.579"/>
			</g>
		</g>
		<rect x="42.24" y="1174.163" clip-path="url(#SVGID_4_)" fill="#F99247" width="478.61" height="12.832"/>
		<path clip-path="url(#SVGID_4_)" fill="#21111D" d="M107.85,1297.432c-0.096,0-0.192-0.066-0.264-0.199l-25.669-46.978
			c-0.144-0.263-0.142-0.688,0.004-0.946c0.146-0.258,0.381-0.256,0.525,0.007l25.668,46.977c0.144,0.265,0.142,0.688-0.004,0.947
			C108.038,1297.368,107.944,1297.432,107.85,1297.432"/>
		<path clip-path="url(#SVGID_4_)" fill="#21111D" d="M101.253,1306.946c-0.098,0-0.195-0.068-0.268-0.204l-19.071-35.679
			c-0.142-0.267-0.138-0.689,0.01-0.946c0.147-0.256,0.382-0.248,0.524,0.017l19.072,35.68c0.142,0.267,0.138,0.689-0.01,0.945
			C101.439,1306.883,101.346,1306.946,101.253,1306.946"/>
		<path clip-path="url(#SVGID_4_)" fill="#21111D" d="M370.109,1503.868c-0.096,0-0.191-0.066-0.264-0.199l-21.381-39.129
			c-0.144-0.264-0.142-0.688,0.004-0.946c0.146-0.259,0.381-0.256,0.525,0.006l21.381,39.129c0.143,0.265,0.142,0.688-0.004,0.948
			C370.297,1503.804,370.203,1503.868,370.109,1503.868"/>
		<path clip-path="url(#SVGID_4_)" fill="#21111D" d="M364.614,1511.793c-0.097,0-0.194-0.068-0.267-0.205l-15.886-29.718
			c-0.142-0.267-0.138-0.69,0.01-0.946c0.147-0.257,0.382-0.248,0.524,0.016l15.886,29.72c0.143,0.267,0.138,0.69-0.01,0.946
			C364.8,1511.731,364.708,1511.793,364.614,1511.793"/>
		<path clip-path="url(#SVGID_4_)" fill="#F99247" d="M46.594,1357.399h470.035H46.594z"/>
		<path clip-path="url(#SVGID_4_)" fill="#F99247" d="M46.594,1558.904h470.035H46.594z"/>
		<path clip-path="url(#SVGID_4_)" fill="#8CD2F9" d="M293.916,975.836h166.442v-82.819c0-25.312-20.519-45.832-45.831-45.832
			H142.55c-25.313,0-45.832,20.521-45.832,45.832v245.242h197.198V975.836z"/>
		<rect x="362.262" y="997.546" clip-path="url(#SVGID_4_)" fill="#4CB7D8" width="40.204" height="29.349"/>
		<rect x="132.901" y="1044.584" clip-path="url(#SVGID_4_)" fill="#3AA1C9" width="121.817" height="9.649"/>
		<rect x="132.901" y="1074.738" clip-path="url(#SVGID_4_)" fill="#3AA1C9" width="121.817" height="9.648"/>
		<rect x="132.901" y="1104.89" clip-path="url(#SVGID_4_)" fill="#3AA1C9" width="121.817" height="9.648"/>
		<path clip-path="url(#SVGID_4_)" fill="#3AA1C9" d="M402.466,923.974c0,12.656-10.26,22.916-22.916,22.916
			c-12.656,0-22.916-10.26-22.916-22.916s10.26-22.916,22.916-22.916C392.206,901.058,402.466,911.318,402.466,923.974"/>
		<rect x="348.593" y="975.837" clip-path="url(#SVGID_4_)" fill="#3AA1C9" width="67.542" height="23.317"/>
		<rect x="402.466" y="1012.69" clip-path="url(#SVGID_4_)" fill="#FFFFFF" width="46.283" height="9.917"/>
		<path clip-path="url(#SVGID_4_)" fill="#3AA1C9" d="M494.045,1026.895h-58.06v-18.493h58.06c3.461,0,6.266,2.805,6.266,6.265
			v5.962C500.311,1024.089,497.506,1026.895,494.045,1026.895"/>
		<path clip-path="url(#SVGID_4_)" d="M97.955,1138.259h-2.477V893.018c0-25.955,21.116-47.071,47.071-47.071h271.977
			c25.955,0,47.071,21.116,47.071,47.071v84.056H293.915v-2.476H459.12v-81.58c0-24.59-20.005-44.595-44.594-44.595H142.549
			c-24.589,0-44.594,20.005-44.594,44.595V1138.259z"/>
		<path clip-path="url(#SVGID_4_)" fill="#3AA1C9" d="M239.296,956.237c0,28.81-23.355,52.165-52.165,52.165
			s-52.165-23.355-52.165-52.165c0-28.811,23.355-52.165,52.165-52.165S239.296,927.426,239.296,956.237"/>
		<path clip-path="url(#SVGID_4_)" d="M187.132,1009.639c-29.447,0-53.403-23.956-53.403-53.401
			c0-29.448,23.956-53.404,53.403-53.404v2.478c-28.082,0-50.927,22.846-50.927,50.927c0,28.08,22.845,50.925,50.927,50.925
			V1009.639z"/>
		<rect x="132.901" y="1043.347" clip-path="url(#SVGID_4_)" width="121.816" height="2.477"/>
		<rect x="132.901" y="1073.499" clip-path="url(#SVGID_4_)" width="121.816" height="2.478"/>
		<rect x="132.901" y="1103.651" clip-path="url(#SVGID_4_)" width="121.816" height="2.477"/>
		<rect x="81.81" y="1136.476" clip-path="url(#SVGID_4_)" fill="#3AA1C9" width="378.562" height="37.688"/>
		<polygon clip-path="url(#SVGID_4_)" points="83.049,1174.165 80.572,1174.165 80.572,1135.238 335.89,1135.238 335.89,1137.714 
			83.049,1137.714 		"/>
		<polygon clip-path="url(#SVGID_4_)" points="416.134,1000.393 347.354,1000.393 347.354,975.835 349.831,975.835 349.831,997.916 
			416.134,997.916 		"/>
		<polygon clip-path="url(#SVGID_4_)" points="386.667,1028.133 361.023,1028.133 361.023,999.154 363.5,999.154 363.5,1025.656 
			386.667,1025.656 		"/>
		
			<rect x="397.805" y="870.733" transform="matrix(0.7665 0.6423 -0.6423 0.7665 655.6971 -60.6576)" clip-path="url(#SVGID_4_)" width="26.914" height="1.238"/>
		
			<rect x="401.395" y="884.258" transform="matrix(0.762 0.6475 -0.6475 0.762 671.2225 -56.7671)" clip-path="url(#SVGID_4_)" width="22.906" height="1.238"/>
		<rect y="1570.863" clip-path="url(#SVGID_4_)" width="2880.386" height="7.287"/>
	</g>
</g>
</svg>
