<svg xmlns="http://www.w3.org/2000/svg" viewBox="0 0 417.11 291.68"><defs><style>.cls-1{fill:#fff;}</style></defs><g id="Layer_2" data-name="Layer 2"><g id="Layer_1-2" data-name="Layer 1"><path class="cls-1" d="M208,291.65q-93,0-186,0c-1.83,0-3.67.08-5.49-.06A17.65,17.65,0,0,1,0,274.12c0-2,0-4,0-6Q0,143.9,0,19.69a27.13,27.13,0,0,1,.53-6.44A17.53,17.53,0,0,1,16.37.09c1.49-.12,3-.06,4.5-.06q188.19,0,376.4,0c6.14,0,11.53,1.44,15.62,6.29a16.43,16.43,0,0,1,4.21,11c0,2.16,0,4.33,0,6.5q0,123.21,0,246.43a37,37,0,0,1-.39,7.46,17.69,17.69,0,0,1-16.24,14c-1.65.14-3.33.06-5,.06Zm.65-16h175c1.67,0,3.34.08,5-.06a13.44,13.44,0,0,0,12.46-12.71c.12-1.82.08-3.66.08-5.49q0-97.49,0-195c0-1.5,0-3-.06-4.5a12.7,12.7,0,0,0-10.64-12.15,48.57,48.57,0,0,0-8.45-.5q-173.73,0-347.44,0a49,49,0,0,0-7,.29c-7.07,1-11.32,5.67-11.82,12.71-.09,1.17-.05,2.34-.05,3.5q0,98,0,196a54.4,54.4,0,0,0,.18,6A13,13,0,0,0,25.79,275a27.61,27.61,0,0,0,6.43.6Q120.45,275.66,208.68,275.65ZM93.29,17.81H37.83a39.48,39.48,0,0,0-4.49.12c-2.77.33-4.34,2-4.5,4.45a5,5,0,0,0,4.32,5.26,23.05,23.05,0,0,0,4,.14H149.56a21,21,0,0,0,4-.17,5.21,5.21,0,0,0,4.1-5,5,5,0,0,0-4.4-4.67,33.58,33.58,0,0,0-4.49-.12ZM357,22.63a10.55,10.55,0,0,0-10.59-10.82,10.92,10.92,0,0,0-.36,21.83A10.67,10.67,0,0,0,357,22.63ZM309,11.79a10.78,10.78,0,0,0-10.73,11.27,10.81,10.81,0,0,0,21.61-.18A10.74,10.74,0,0,0,309,11.79Zm74.64,0a10.9,10.9,0,1,0-.06,21.79,10.62,10.62,0,0,0,10.64-10.85A10.61,10.61,0,0,0,383.63,11.81Z"/><path class="cls-1" d="M180.9,226.63l-15.81,6.55c0,2.46.08,5.24,0,8-.15,4.58-1.8,6.42-6.37,6.53q-10.25.25-20.49,0c-4.59-.11-6.07-1.87-6.23-6.6-.08-2.33-.09-4.66-.17-7a4.59,4.59,0,0,0-.42-1.15l-15.33-6.37c-1.71,1.67-3.5,3.37-5.24,5.11-3.83,3.84-6,4-9.68.31q-7.09-7-14-14.28c-3.45-3.61-3.46-5.65.14-9.35A55.26,55.26,0,0,1,93,203.8c-2.48-6.1-4.53-11.14-6.84-16.8-2.37-.08-5.15-.16-7.92-.27-5-.2-6.47-1.6-6.53-6.71q-.12-10,0-20c.06-5,1.61-6.59,6.53-6.8,2.63-.11,5.27,0,7.76,0l6.61-16c-1.84-1.92-3.84-3.91-5.73-6-2.93-3.23-3-5.53,0-8.68q7.23-7.61,14.71-15c3.14-3.09,5.43-3,8.59,0,1.92,1.83,3.82,3.7,5.74,5.54.1.1.31.1.46.15L131.72,107c.08-2.17.21-4.77.26-7.39.11-5.71,1.47-7.3,7-7.4q9.75-.2,19.5,0c4.87.11,6.48,1.88,6.65,6.77.08,2.5.11,5,.18,7.49a3.61,3.61,0,0,0,.31.77c2.4.89,5.06,1.78,7.65,2.84,2.44,1,4.82,2.2,7.48,3.44,2.18-2.12,4.25-4.26,6.46-6.24,3.1-2.77,5.24-2.76,8.23.2q7.46,7.38,14.69,15c3,3.16,3,5.5.09,8.73-1.87,2.1-3.86,4.09-5.71,6l6.51,16c2.59,0,5.23-.09,7.86,0,4.64.2,6.25,1.8,6.31,6.47q.15,10.26,0,20.5c-.06,5-1.54,6.38-6.7,6.55-2.47.08-4.95,0-7.5,0l-6.47,16c1.65,1.77,3.47,3.67,5.23,5.63,3.45,3.85,3.5,5.81.06,9.42-4.61,4.81-9.25,9.6-14,14.29-3.62,3.58-5.51,3.5-9.3-.07-1-.92-1.87-1.91-2.83-2.83S182,227.62,180.9,226.63Zm-67-56.78a34.63,34.63,0,1,0,69.25.25c0-19.34-15.25-35-34.24-35.13A34.82,34.82,0,0,0,113.87,169.85Z"/><path class="cls-1" d="M243.33,157.89l-4.82-11.84-10-1a36.65,36.65,0,0,1-1-5.53c-.14-4.49-.13-9,0-13.49.12-5.08,1.07-5.92,6.33-6,1.48,0,3,0,4.6,0l5-12.19c-1.35-1.5-2.89-3.17-4.38-4.89-2.27-2.61-2.38-4,0-6.48q5.49-5.81,11.29-11.32c2.79-2.65,4.24-2.48,7.23.3,1.33,1.22,2.63,2.48,4,3.8l11.68-4.8c.1-1.8.18-3.76.31-5.71.29-4.27,1.31-5.47,5.37-5.58q7.5-.19,15,0c4,.11,5,1.13,5.16,5.1.11,2,0,3.93,0,5.9L311.2,89.2c1.42-1.35,2.82-2.73,4.28-4,2.73-2.43,4.44-2.6,6.93-.23q5.77,5.52,11.23,11.38c2.26,2.42,2.18,4.08.06,6.59-1.39,1.63-2.93,3.14-4.38,4.68,1.7,4.12,3.27,8,5.11,12.43,1.74,0,3.7-.08,5.64,0,4,.2,5.11,1.2,5.2,5.08q.18,7.74,0,15.49c-.09,3.66-1.19,4.75-4.77,5-2,.15-3.95,0-6.05,0l-5.06,12.13c1.28,1.42,2.77,3,4.13,4.6,2.31,2.79,2.38,4.39,0,7-3.51,3.78-7.11,7.49-10.83,11.07-2.67,2.57-4.44,2.42-7.33-.17-1.35-1.21-2.65-2.48-4.08-3.82l-11.85,4.73c-.34,3.43-.68,6.82-1,10.28a24.07,24.07,0,0,1-3.87.8c-5.33.07-10.67.11-16,0-3.67-.08-4.68-1.14-5.05-4.74-.1-1,0-2-.07-3s-.13-2-.23-3.28l-11.62-4.85c-1.65,1.53-3.17,3-4.8,4.42-2.3,1.94-4,2.09-6.18.05-4.12-3.88-8.05-8-12-12-1.81-1.85-1.8-3.86-.08-5.78C240,161.33,241.64,159.68,243.33,157.89Zm16.57-25.18c0,14.8,11.9,27,26.36,27s26.64-12.32,26.66-26.86-12.05-26.94-26.51-26.94A26.61,26.61,0,0,0,259.9,132.71Z"/></g></g></svg>