<svg xmlns="http://www.w3.org/2000/svg" viewBox="0 0 385.89 234.46"><g id="Layer_2" data-name="Layer 2"><g id="Layer_1-2" data-name="Layer 1"><path d="M39.51,196.49c.14-2.51.35-4.61.35-6.71q0-87.22,0-174.45a44.11,44.11,0,0,1,.18-6A10.33,10.33,0,0,1,50.15.05c1.49-.09,3,0,4.5,0h277.4c.84,0,1.67,0,2.5,0,7.94.14,12.06,4.17,12.23,12,0,1.67,0,3.34,0,5q0,86.22,0,172.45v6.79c2.53.25,4.46.57,6.4.59,7.16.07,14.33,0,21.49,0a25.77,25.77,0,0,1,5,.37,7.34,7.34,0,0,1,6.25,7.32,73.54,73.54,0,0,1-1,9.91c-.5,3.63-1,7.27-1.81,10.84-1.28,5.79-5.06,8.85-10.91,9.1-1.5.07-3,0-4.5,0H18.83c-1.84,0-3.68.07-5.5-.05A11.13,11.13,0,0,1,3,225.16c-1-5.24-1.59-10.54-2.65-15.75-1.29-6.35,1.14-12.84,10.4-12.59,7.66.2,15.33.06,23,0C35.49,196.83,37.27,196.63,39.51,196.49ZM61.81,21.58c-1.25,4.52-1.24,152.73.07,157.3,1.94.09,4.05.27,6.16.27q125.18,0,250.35,0a27.21,27.21,0,0,0,3.5,0,21.63,21.63,0,0,0,3.08-.78c1-7,.68-153-.31-156.5C321.13,20.87,68.08,20.58,61.81,21.58ZM378.94,204.33c-7-.39-12.92-.85-18.88-1q-22-.62-43.94-1c-18.48-.35-37-.88-55.43-.88q-71.2,0-142.39.41c-19,.1-37.95.55-56.93.94-16.15.33-32.29.78-48.43,1.21-1.61,0-3.21.26-4.68.38-.74,4.19-.27,8.18,1.52,13.39a34.1,34.1,0,0,0,3.66.5c32.34,1.08,358.52.42,363.74-.87C377.71,213.44,378.28,209.25,378.94,204.33Z"/><path d="M120.37,84.62c13,15.58,26,31.12,38.72,46.4,9.43-1.55,9.86-1.51,18.2,1.8l44.27-53.45c-.8-2-1.48-3.54-2-5.1a16.43,16.43,0,0,1,6.2-18.6c5.47-3.92,13.58-3.67,19.17.6,5.25,4,7.4,11.95,5,18.54a6.36,6.36,0,0,1-.76,1.83c-1.92,2.39-1.09,4.54.23,6.88,6.28,11.18,12.46,22.42,18.68,33.63,2.34,4.21,4.72,8.39,7.24,12.88,1.87,0,3.67,0,5.47,0a16.31,16.31,0,0,1,15.62,17.35c-.45,9-9.22,16.25-17.8,15.19-9.63-1.2-16.49-10-14.51-19.14.68-3.16,2.57-6.06,4.34-10C260,117.5,250.79,101,241.68,84.77H226.74c-2.64,3.14-6,7.06-9.23,11-10.88,13-21.72,26.13-32.64,39.14-2.12,2.53-3.1,4.85-2.47,8.5a16.07,16.07,0,0,1-20.76,18.42,16.46,16.46,0,0,1-10.17-21c.52-1.4,1.21-2.74,2.07-4.69-12.87-16-26.1-31.93-39.31-47.48C101.92,89.7,95.85,86.7,93,78.44a16.12,16.12,0,0,1,25.46-18.06C125.05,66,125.8,73.59,120.37,84.62Zm159.39,52.67c-4.56.09-8.93,4.74-8.69,9.24s4.32,8.64,8.74,8.69a9.07,9.07,0,0,0,9.12-9.24A9.24,9.24,0,0,0,279.76,137.29Zm-112.92,0a9.09,9.09,0,0,0-9,8.77,9.19,9.19,0,0,0,8.64,9.15c4.66.14,8.82-3.93,9-8.79A9.19,9.19,0,0,0,166.84,137.3ZM235,78.11A9.2,9.2,0,0,0,243.66,69a9,9,0,0,0-8.92-8.79,8.83,8.83,0,0,0-8.66,8.49C226,73.87,230.12,78.19,235,78.11ZM99.54,72.77a8.8,8.8,0,0,0,8.64,9.09c4.67,0,8.71-4.3,8.67-9.2A8.77,8.77,0,0,0,108.32,64C103.22,63.86,99.56,67.53,99.54,72.77Z"/><path d="M176.75,40H79.8a30.52,30.52,0,0,1-5-.2,3.31,3.31,0,0,1-3-3.45A3.13,3.13,0,0,1,74.35,33a24,24,0,0,1,5.43-.5q40.23,0,80.45,0,56.22,0,112.44,0a39.53,39.53,0,0,1,6,.4,3.17,3.17,0,0,1,3,3.41,3.37,3.37,0,0,1-3.43,3.55c-1.49.12-3,.1-4.5.1Z"/><path d="M303.76,39.86c-2.33,0-4.67.13-7,0a3.15,3.15,0,0,1-3.19-3.21c-.09-1.94.89-3.53,2.72-3.61,5.13-.22,10.28-.2,15.42,0,1.87.08,2.82,1.74,2.73,3.61a3.14,3.14,0,0,1-3.2,3.21c-2.49.14-5,0-7.49,0Z"/></g></g></svg>