<svg xmlns="http://www.w3.org/2000/svg" viewBox="0 0 500 500"><defs><style>.cls-1{fill:#fffdff;}.cls-2{fill:#f06f76;}.cls-3{fill:#81a6d9;}.cls-4{fill:#9ab8e1;}.cls-5{fill:#cddbf0;}.cls-6{fill:#477a9b;}.cls-7{fill:#f7c4a5;}.cls-8{fill:#545172;}.cls-9{fill:#e58c7e;}.cls-10{fill:#935771;}.cls-11{fill:#898192;}.cls-12{fill:#403867;}.cls-13{fill:#6f4c61;}.cls-14,.cls-16,.cls-19{fill:none;stroke-linecap:round;stroke-miterlimit:10;}.cls-14{stroke:#935771;stroke-width:1.01px;}.cls-15{fill:#ffc672;}.cls-16{stroke:#3c3966;stroke-width:1.04px;}.cls-17{fill:#7ba859;}.cls-18{fill:#bf9556;}.cls-19{stroke:#81a6d9;}.cls-20{fill:#fda;}.cls-21{fill:#806339;}</style></defs><g id="BACKGROUND"><rect class="cls-1" width="500" height="500"/></g><g id="OBJECTS"><rect class="cls-2" x="105.49" y="244.95" width="52.37" height="108"/><rect class="cls-3" x="315.49" y="219.45" width="52.37" height="132.79"/><path class="cls-3" d="M350.5,313l-30.64-9.22L335,275.57a6.08,6.08,0,0,0,.65-3.17l.06,0V258.28l-6.33,5.52-15.05-15.05a6.1,6.1,0,0,0-7.21-1.06l-28.19,15.14-9.23-30.64a6.1,6.1,0,0,0-5.85-4.35H236.14a6.1,6.1,0,0,0-5.85,4.35l-9.23,30.64-28.19-15.14a6.1,6.1,0,0,0-7.21,1.06l-15.19,15.19-6.2-5.52v14.17l.07,0a6.11,6.11,0,0,0,.65,3l15.15,28.19L149.5,313a6.1,6.1,0,0,0-4.35,5.85v27.72a6.11,6.11,0,0,0,4.35,5.86l30.64,9.22L169.89,380.7l-5.6-2.59v15l.05,0a6,6,0,0,0,1.72,3.91l19.6,19.6a6.11,6.11,0,0,0,7.21,1.07l28.19-15.15,9.23,30.64a6.09,6.09,0,0,0,5.85,4.35h27.72a6.09,6.09,0,0,0,5.85-4.35l9.23-30.64,28.19,15.15a6.11,6.11,0,0,0,7.21-1.07l19.6-19.6a6.08,6.08,0,0,0,1.72-4.5l.07.08V378.46l-5.56,2.36-10.31-19.19,30.64-9.22a6.11,6.11,0,0,0,4.35-5.86V318.83A6.1,6.1,0,0,0,350.5,313Z"/><path class="cls-4" d="M350.5,298.76l-30.64-9.22L335,261.35a6.11,6.11,0,0,0-1.07-7.21l-19.6-19.61a6.11,6.11,0,0,0-7.21-1.06l-28.19,15.15L269.71,218a6.1,6.1,0,0,0-5.85-4.35H236.14a6.1,6.1,0,0,0-5.85,4.35l-9.23,30.65-28.19-15.15a6.11,6.11,0,0,0-7.21,1.06l-19.6,19.61a6.11,6.11,0,0,0-1.07,7.21l15.15,28.19-30.64,9.22a6.11,6.11,0,0,0-4.35,5.86v27.72a6.11,6.11,0,0,0,4.35,5.85l30.64,9.22L165,375.6a6.13,6.13,0,0,0,1.07,7.22l19.6,19.6a6.1,6.1,0,0,0,7.21,1.06l28.19-15.14L230.29,419a6.1,6.1,0,0,0,5.85,4.35h27.72a6.1,6.1,0,0,0,5.85-4.35l9.23-30.64,28.19,15.14a6.1,6.1,0,0,0,7.21-1.06l19.6-19.6A6.13,6.13,0,0,0,335,375.6l-15.15-28.19,30.64-9.22a6.11,6.11,0,0,0,4.35-5.85V304.62A6.11,6.11,0,0,0,350.5,298.76Z"/><circle class="cls-4" cx="250" cy="323.98" r="83"/><circle class="cls-5" cx="250" cy="318.48" r="83"/><circle class="cls-4" cx="250" cy="318.48" r="64.65"/><circle class="cls-6" cx="250" cy="325.58" r="41.45"/><circle class="cls-5" cx="250" cy="318.48" r="41.45"/><circle class="cls-4" cx="250" cy="318.48" r="19.44"/><path class="cls-6" d="M250,260.93A64.59,64.59,0,0,1,314.47,322c.07-1.18.18-2.35.18-3.55a64.65,64.65,0,1,0-129.3,0c0,1.2.11,2.37.18,3.55A64.59,64.59,0,0,1,250,260.93Z"/><path class="cls-6" d="M250,306.14A19.42,19.42,0,0,1,269.08,322a18.91,18.91,0,0,0,.36-3.55,19.44,19.44,0,0,0-38.88,0,18.91,18.91,0,0,0,.36,3.55A19.42,19.42,0,0,1,250,306.14Z"/><path class="cls-7" d="M268.09,245.26s4.67-5.17,6.1-5.29.43,16.3.43,16.3-5.22-.81-5.66-1.86S268.09,245.26,268.09,245.26Z"/><polygon class="cls-1" points="263.5 247.64 268.09 245.26 272.63 256.77 268.2 259.5 263.5 247.64"/><polygon class="cls-3" points="270.49 251.34 267.73 258.31 268.2 259.5 272.63 256.77 270.49 251.34"/><path class="cls-8" d="M274.43,198.79s-4-2.36-3.25-5.8,4.41-8,6.15-8.49,2,.89,2,.89,2.63-1.72,4.09-1,.44,2.6.44,2.6,6.89-.14,10.66,2.51,5.68,7.11,5.83,12.29a31.34,31.34,0,0,1-1.41,9.81l-6.74,2.54Z"/><path class="cls-9" d="M279.42,229.76s-5.11,7.69-6.13,10.11-6,37.08-6,37.08-2,.08-1.87,1.38a11,11,0,0,1,0,2.06l-11.85,8.31,6.25,15.51L273,295.05,269,314.77h3.55l-2.68,91.68h47.61l-5-26.08.93-55.64.84,0s9.06-33.77,9.43-38.81-8.31-47-10.55-49.85-15.32-10.57-15.32-10.57Z"/><path class="cls-10" d="M302.69,251.82s4.11,20.45,5.11,26.3-3.12,6.59-1.06,8l2.05,1.37s-3.42,1.74-3.05,2.68a25.08,25.08,0,0,0,1.62,2.86l-6.5,27.71.59.42,11.88,3.61-.68,40.64S300.17,353.06,299.72,348s-1.88-13-1.88-13l-3.8,3.1-7.78-6.53,1.12,18.66s-2.49-7.71-4.35-15.93-10.76-11.33-10.76-11.33l.24-8.15,6.41.31,3.23-6.48,7.72,11.34s5.6-1.5,6.85-1.62,4.88-11.7,6.23-17.67-1.83-10-.36-14.32,2,0,2.59-9.38S300.82,251.79,302.69,251.82Z"/><path class="cls-3" d="M296.84,225s-6.56,9.3-8.71,16.4S281.78,271,281.78,271s-4.63-17.78-3.92-28.85,1.56-12.35,1.56-12.35Z"/><path class="cls-1" d="M281.59,232.69l-3.32,4.12s.52-6.18,1.15-7.05c3.1-4.28,17.42-4.79,17.42-4.79l-7.55,13.24-3.59-5.52Z"/><path class="cls-7" d="M297.46,213.27l-.62,11.7-11.14,7.72h-4.11l-1.24-3.39s1.14-6.8-.3-12.12C278.74,212.36,297.46,213.27,297.46,213.27Z"/><path class="cls-11" d="M280.05,217.18a31.12,31.12,0,0,1,.49,10.64c10.43-2.77,16.82-12.64,16.82-12.64l.1-1.91c-3.44.31-11.75.62-16.39,1.83A1.8,1.8,0,0,0,280.05,217.18Z"/><path class="cls-6" d="M263.2,246.87s-13.53,8.87-16.71,9.9-3.32-1.68-4.94.65-2.05,2.09-4,.95-18.93-17.84-21.26-19.43a9.06,9.06,0,0,0-5.14-1.4L190.86,235s-5.42,5.69-7.85,7.56-7.28,5.6-6.44,12.42,8.87,22.87,8.87,22.87l2.86,25.64-3,24.52,4.35.62-3.11,77.8h51.78l-6.22-78.92,3-1.74L229,304.24l3.47-9.57-6.16-2-1.68-24.88s16.71,9.8,20.54,9.14,23.33-16.61,23.33-16.61Z"/><path class="cls-1" d="M190.86,235l3.58,1.53a7,7,0,0,1,3.56,3.39l17.59,35.87-4.48-38.27Z"/><path class="cls-7" d="M208.94,224.05l.19,3.25a38.46,38.46,0,0,0,2,10.24h0l-1,3.73-3.08.66L190.86,235s2.61-3.83,1-17S208.94,224.05,208.94,224.05Z"/><polygon class="cls-1" points="207 241.93 192.09 230.68 190.85 235.02 198.93 241.82 207 241.93"/><path class="cls-11" d="M192.08,219.93c0,.53.1,1,.13,1.54,3.38,3.58,12.14,12.45,18.1,13.38a38.54,38.54,0,0,1-1.18-7.55l-.19-3.25s-18.64-19.18-17.06-6C192,218.69,192,219.32,192.08,219.93Z"/><path class="cls-9" d="M213.06,205.41a16.77,16.77,0,0,0,1.1-7.62c-.5-3.87-2.39-6.86-4.28-7.57s-2.71-.24-2.71-.24-1.31-5-7-3.23-9.22,8.67-14,10.48-6.7,1.74-6.7,4,4.18,4.16,4.18,4.16.31,11.05,6,13.18S213.06,205.41,213.06,205.41Z"/><path class="cls-7" d="M206.25,196.68s4.81.32,5.76,3.94,2.24,12.06,1.89,16.47c-.28,3.51-1.5,8.2-5.2,10.4s-11.23-2.13-13.4-3.38a6.55,6.55,0,0,1-2.76-2.68s-2.7,1.28-3.75-2,1.15-4.78,2.68-4.46,1.52,3,1.52,3l.64-.28a2,2,0,0,0,1.14-2.07c-.49-3.4-1.56-11.69-.52-13.14,1.31-1.84,7,.1,9.72-1.37A4.51,4.51,0,0,0,206.25,196.68Z"/><polygon class="cls-3" points="203.79 251.74 207 241.93 210.09 241.27 212.56 249.86 215.59 275.81 203.79 251.74"/><polygon class="cls-2" points="204.58 249.32 207.43 252.71 207.81 259.94 215.59 275.81 213.32 256.43 211.67 251.96 212.3 248.97 210.09 241.27 207 241.93 204.58 249.32"/><path class="cls-12" d="M200.94,308.8c2.18.37,8.65,1.31,12.94.68s8.34,2.24,11.2,3.68a48.21,48.21,0,0,0,7.21,2.61l-2.4-8.45s-29.64-8.67-32.62-10.66-11.83-18.79-11.83-18.79l2.86,25.64C193,308.8,198.76,308.43,200.94,308.8Z"/><path class="cls-12" d="M244.59,277c-2.84-1.73-6.08-5.7-10.79-11.59-6-7.47-13.76-18.24-13.76-18.24l4.61,20.67S239.9,276.73,244.59,277Z"/><path class="cls-12" d="M226.33,292.67s-15.4-4-15.59-5.47-.75-2-1.68-1.63.05,0-.65-1.73-1.78.42-2.81-1.77-12.6-24.65-13.06-26.65,7.28,9,8.44,11.9,7.05,14.94,10.13,17.08,15.11,6.68,15.11,6.68Z"/><path class="cls-12" d="M189.67,328.65a105.57,105.57,0,0,0,13.26.31,67,67,0,0,0,9.77-.93l3.48-8.09s4.23,6.16,6.32,7.09,12.64-1.24,12.64-1.24l-3,1.74.19,2.49s-2.34,2.93-4.86,5.45a36,36,0,0,1-6.16,4.66l-4.67,30.72V335.56s-3.64-.19-9.15,4.39-10.17,6.81-13.44,10a38.63,38.63,0,0,0-5.48,6.82Z"/><path class="cls-13" d="M207.43,252.71l4.24-.75a6.28,6.28,0,0,0-2.25,3.46c-.59,2.33,1.44,10.74,1.44,10.74l-3.05-6.22Z"/><polygon class="cls-13" points="207 241.93 206.15 251.19 204.58 249.32 207 241.93"/><path class="cls-14" d="M206.41,194.71s-.69-5.75-5.9-3.07-8.12,7.72-17.66,8.19"/><path class="cls-14" d="M203.42,196.68s-1.58,1.5-7.8,2.68"/><path class="cls-14" d="M192.46,205.48s-4.2,2.79-7.19,2.42"/><path class="cls-14" d="M192.46,209.63s-2.89,2.37-5.56,2.26"/><path class="cls-14" d="M191.94,201.38a20.19,20.19,0,0,1-7.2,1"/><path class="cls-14" d="M208,192.45s4,.32,4.89,3.47"/><path class="cls-7" d="M274.43,198.79s-1.36,14.75.53,19.12,3.08,5.3,6,5A24.49,24.49,0,0,0,291,219.12c3.23-2.11,4.1-3.89,4.1-3.89a2.56,2.56,0,0,0,3.72-.16c2-1.88,2-4.58,0-6s-3.51,1.94-3.51,1.94l-2.43.81s1.51-11.16-.1-13.05-5.45-2.43-8.09-.54S276.65,200.07,274.43,198.79Z"/><path class="cls-6" d="M278,248.93a146,146,0,0,0,3.82,22s2.71-14.52,4.89-23.91l-1.47-5.84,3-4.73-2.47-3.79h-4.11l-2.49,3.09,1.44,5.8L278,248.93Z"/><path class="cls-1" d="M290.42,255.74s2.84-6.76,3.64-6.76,2.78,4.76,2.78,4.76,1.74-1.12,2.35-.8.23,2.8.23,2.8Z"/><path class="cls-7" d="M300.14,326.29s-1.93,4.6-2.92,6.53-3.37,4.48-3.18,5.23,3.3,0,3.3,0a34.26,34.26,0,0,0,.5,7.16c.68,3.85,1.4,4.26,2.05,4a1,1,0,0,0,.69-.81s.49.87,1.27.86a1.19,1.19,0,0,0,1-.83,1.54,1.54,0,0,0,1.37.5c.81-.15,2.27-2.44,2.69-3.84s.79-2.29.79-2.29-1.07,3.5-.79,4.2,2,.16,2.95-2.85a40.12,40.12,0,0,0,1.81-8.68,43.91,43.91,0,0,0,.14-5.68S307.39,324,300.14,326.29Z"/><path class="cls-1" d="M313.33,324.73s-.62-1.62-5.6-2.68-6.28-.93-6.28-.93l-1.31,5.17a29.12,29.12,0,0,1,6.6,1,13.48,13.48,0,0,1,5.1,2.49Z"/><path class="cls-11" d="M297.34,338.05s.16-3.45.5-6.53c-.22.5-.44.94-.62,1.3l-.19.33a8.22,8.22,0,0,1-.78,3.67,6,6,0,0,1-1.85,1.48A9,9,0,0,0,297.34,338.05Z"/><path class="cls-11" d="M308.36,345.21c-.66-.87.31-4.45.31-4.45s-.52,1.29-1.11,2.66c-.29,1-.83,3.1-.62,3.62s1.42.29,2.38-1.51A.8.8,0,0,1,308.36,345.21Z"/><path class="cls-11" d="M307.28,344.08a11.91,11.91,0,0,1-1.32,2.5,1.15,1.15,0,0,1-1.87-.22c-.46-.81,1.74-6.35,1.28-6.23s-2.15,5.57-2.2,6a1.51,1.51,0,0,1-1,1c-.46.12-1.09.09-1.15-.81s.93-7.47.53-7.47-1,6.1-1,6.1-.12,1.43-1.27,1.52a1.49,1.49,0,0,1-1.37-.94c.67,3.52,1.36,3.92,2,3.71a1,1,0,0,0,.69-.81s.49.87,1.27.86a1.19,1.19,0,0,0,1-.83,1.54,1.54,0,0,0,1.37.5c.81-.15,2.27-2.44,2.69-3.84C307.06,344.73,307.17,344.39,307.28,344.08Z"/><path class="cls-10" d="M257.54,298.5s9.94-4.29,9.9-5.71-3.71-2.66-2.84-4.78,4.73,1.43,5.61,0-3.3-5.1-2.74-6.35,2.61,1.31,3.48.75,2.8-19.17,2.8-19.17.66,24.17.66,26a25.34,25.34,0,0,1-1.4,5.77l-13.17,9.16Z"/><path class="cls-11" d="M257,304.21s-3.61,4.65-5.79,7.14-6,5.31-7.81,5.26-1.58-2.89-1.58-2.89-2.2,1.82-4,.84a2.16,2.16,0,0,1-.89-2.85,3.3,3.3,0,0,1-2.85.46c-1.44-.56-.74-3.68-.74-3.68s-.92,1.14-1.89,1.09-3.15-.63-1.8-3.52,6.51-5.87,9-7.3,11.23-2.36,11.23-2.36S258.1,299.94,257,304.21Z"/><path class="cls-7" d="M237.2,296.63s2.25-2.24,3.44-2.46,5.11.88,5.11.88l1.49,5.1s3.8,1.68,5.23,2.11,4.82,2.71,4.91,3.8-1.86,1.31-2.89.93a25,25,0,0,1-2.88-1.44s-3-.55-3.41,0,6.07,2.87,6.26,3.36a1.82,1.82,0,0,1-.57,2.08,3.39,3.39,0,0,1-2.26.75,3.09,3.09,0,0,1-1.38,1.23,3.57,3.57,0,0,1-2.15.36,3.7,3.7,0,0,1-2.91.91c-2.09-.07-12-6.45-12-6.45Z"/><path class="cls-11" d="M245.75,295.05s-1.1-.31-2.31-.56l-1.93,4.1,4.45-2.82Z"/><path class="cls-11" d="M240.09,304.93a3.69,3.69,0,0,0,4.21.53,7.66,7.66,0,0,0,3.59-3.41s3,.54,4-1-5.46-3.28-5.46-3.28Z"/><path class="cls-7" d="M251.13,292.67s-1.84-.92-2.89-.49-5.79,4.11-6.73,6.41-1.08,5.11-1.49,5.91,2.4,1.62,3.83.13a27.21,27.21,0,0,0,3-4.27s5.44,2.4,7.5-1.1S251.13,292.67,251.13,292.67Z"/><path class="cls-11" d="M253.89,311a2.5,2.5,0,0,0,.48-.61,3.5,3.5,0,0,1-1.78.56c-1.24,0-5.69-2.21-5.88-2s4.92,2.76,4.92,2.76A3.39,3.39,0,0,0,253.89,311Z"/><path class="cls-11" d="M250.25,313l.25-.15a5.54,5.54,0,0,1-1.49-.17c-1.77-.44-4.38-2.58-4.69-2.27s3.78,2.95,3.78,2.95A3.57,3.57,0,0,0,250.25,313Z"/><path class="cls-11" d="M247,314c-.57-.13-1.24-.31-2-.56-2.57-.86-9-5.1-11.4-6.75l-.4,1.11s9.93,6.38,12,6.45A5.09,5.09,0,0,0,247,314Z"/><path class="cls-7" d="M233.73,308.42a3.86,3.86,0,0,1,1.82.16c.77.33,1.72,1.63,1.44,2.33s-1.79.81-2.77.26S233.17,308.74,233.73,308.42Z"/><path class="cls-7" d="M237.72,311.24a1.91,1.91,0,0,1,2.1,0c1.26.68,1.56,1.57,1.17,2.16s-1.45.71-2.52-.15S237.39,311.66,237.72,311.24Z"/><path class="cls-7" d="M242.62,313.6a2.9,2.9,0,0,1,2.19.14c1.15.56.89,1.31,0,1.7S242,314.63,242.62,313.6Z"/><path class="cls-1" d="M232.35,295.05l4.85,1.58a79.22,79.22,0,0,1-2.84,9.1c-1.08,2.2-1.48,2.43-1.48,2.43l-4.82-1.35Z"/><path class="cls-1" d="M254.09,289.94l-3.24,1.74a62.87,62.87,0,0,0,2.74,8,14.78,14.78,0,0,0,3.42,4.5l2.3-1.32Z"/><path class="cls-3" d="M254.59,301.44a14.88,14.88,0,0,0,2.42,2.77l2.3-1.32-1.45-3.6h0Z"/><path class="cls-3" d="M229.34,303.3l-1.28,3.51,4.82,1.35s.4-.23,1.48-2.43c.1-.21.22-.48.33-.78Z"/><path class="cls-3" d="M309.67,328.47a10.3,10.3,0,0,1,2.17,1.36l1.49-5.1s-.31-.8-2.24-1.65Z"/><circle class="cls-15" cx="225.41" cy="303.12" r="1.26"/><circle class="cls-15" cx="221.83" cy="302.04" r="1.26"/><circle class="cls-15" cx="218.25" cy="300.97" r="1.26"/><polygon class="cls-12" points="281.59 232.69 279.46 237.24 279.1 235.78 281.59 232.69"/><path class="cls-12" d="M285.7,232.69l.88,4.29-2.43,4.23h-2.31a14.85,14.85,0,0,1,2.8,5c.69,2.55-.06,10.39-.06,10.39l2.09-9.53-1.47-5.84,3-4.73Z"/><line class="cls-16" x1="295.46" y1="201.32" x2="299.13" y2="201.32"/><line class="cls-16" x1="295.46" y1="204.48" x2="298.64" y2="204.48"/><circle class="cls-10" cx="282.37" cy="278.96" r="1.21"/><circle class="cls-10" cx="282.37" cy="291.15" r="1.21"/><rect class="cls-15" x="31.36" y="209.37" width="52.37" height="100"/><rect class="cls-17" x="396.13" y="183.45" width="52.37" height="132.79"/><path class="cls-7" d="M166.87,420.36s-4.77,8,2.23,14.26,20.5-10,20.5-10L174.67,416Z"/><path class="cls-11" d="M189.6,424.6,174.67,416l-7.8,4.37a13.32,13.32,0,0,0-1.52,4.87,8.88,8.88,0,0,0,3.46.79c3.58.1,5.91-1.19,9.66,0a17.93,17.93,0,0,1,6,3.86A57.48,57.48,0,0,0,189.6,424.6Z"/><path class="cls-7" d="M323,352.3A71.09,71.09,0,0,1,308.31,347a52.77,52.77,0,0,0-18-5.34c-4.5-.5-26.59-4.83-34.59-1.58S280,416.87,280,416.87l42.5,3.25s14.31-4,17.9-9.75S323,352.3,323,352.3Z"/><path class="cls-11" d="M296.09,380.55s7,4.7,11.38,4.07a25.21,25.21,0,0,0,7.13-2l-1.75,6.25s5,9.75,7.87,13.25a23.28,23.28,0,0,0,5.62,5.08s3-.83,4-5.7,2.34-16.78,2.34-16.78l7.68,25.65a13.65,13.65,0,0,1-5.21,4.5c-3.66,1.9-7.54,3.52-7.54,3.52Z"/><polygon class="cls-1" points="352.67 335.32 322.47 350.62 341.72 414.87 369.94 403.55 352.67 335.32"/><path class="cls-3" d="M363.81,379.34l-1.69,8.23a14.51,14.51,0,0,1-9.4,10.78l-14.43,5.07,3.43,11.45,28.22-11.32Z"/><path class="cls-7" d="M196.13,351.64S206.31,347.7,213,346s22.34-12.67,26.84-14.17,24,7.5,24,7.5l-1.67,26.5s.67,2,3.67,3,21.33,8.83,26.33,9.67,19.17,15.83,22.67,20.33S327.47,416.2,328,419.54s-4.66,7.16-6.33,8.5-5.67,0-5.67,0-5.25,9.58-11.25,10.33a21.28,21.28,0,0,1-9.75-.75s-2.75,6.38-9,8.63a17.78,17.78,0,0,1-11.75,0S269,452.5,262.6,454s-48.38-15.25-64.13-21.38S175.62,420,175.62,420Z"/><path class="cls-11" d="M191.23,408.44a88.53,88.53,0,0,1-5.1-23.51l-10.51,35s7.1,6.52,22.85,12.65S256.22,455.5,262.6,454a14.9,14.9,0,0,0,1.72-.54C246.69,441.31,194.83,417.81,191.23,408.44Z"/><path class="cls-11" d="M263.81,339.37s-1.47-.68-3.69-1.63c-6,1.49-19.1,4.89-22.52,7.21-4.5,3.05-22.23,23.2-22.23,23.2l48.29-26.47Z"/><polygon class="cls-6" points="0 247.96 178.47 339.37 144.47 421.87 0 378.7 0 247.96"/><path class="cls-1" d="M176.17,345l20.3,4.42s-4,28-10.15,45.25c-4.18,11.72-11.6,27.25-11.6,27.25l-28-5.41Z"/><path class="cls-9" d="M500,248,352,331.7s5.67,30,9.67,45,10.67,33.67,10.67,33.67L500,363.88Z"/><path class="cls-7" d="M267.49,339a58.29,58.29,0,0,0-18.89,3.38c-9.25,3.5-9.63,4.25-12.38,6.75s-9,9.75-14.12,13.75-8.25,6-8.25,7.5,5,9.2,12.83,8.91S245,371.75,245,371.75l14.75-5.13s18.2,9.06,30.1,11.34S267.49,339,267.49,339Z"/><path class="cls-11" d="M214.43,371.89s6.17,4.23,13.42,4.11,12.25-4.38,14.37-6.5a36.51,36.51,0,0,0,4.5-6.38v4s9.38-.37,16.5-4,11.63-10.87,11.63-10.87a34.76,34.76,0,0,1-1.5,8c-1.25,3.62-.5,7.5,3.5,10.5a108.66,108.66,0,0,0,11.4,6.88l-27.61-11.09L245,371.75S227.39,388.08,214.43,371.89Z"/><path class="cls-11" d="M304.72,438.37a8.59,8.59,0,0,0,3.58-1.44,32.15,32.15,0,0,1-12.21-2.18c-7.27-2.62-37.87-14.63-37.87-14.63L295,437.62A21.28,21.28,0,0,0,304.72,438.37Z"/><path class="cls-11" d="M272.1,448.42a28.9,28.9,0,0,0,2.12-2.17L249.64,437Z"/><path class="cls-11" d="M262.14,388.45s-6.26.75-9,.34-8.87-5.84-8.87-5.84,7.7,4.17,10.23,3.59S257,381,257,381,266.31,387.54,262.14,388.45Z"/><path class="cls-11" d="M235.89,406s11.67,6.42,14.33,7.09,4.67.33,4.67-1.75a5.26,5.26,0,0,0-1.8-3.59s.22,2.59-2.87,2.67S235.89,406,235.89,406Z"/><path class="cls-11" d="M286,446.25l.09,0a57.68,57.68,0,0,1-18.7-2.54,34.49,34.49,0,0,0,5.82,3.7c.66-.68,1-1.12,1-1.12A17.78,17.78,0,0,0,286,446.25Z"/><path class="cls-11" d="M244.22,426.79h-2.16l-10.59-6.12s8.25,7.28,9.92,7.78S244.22,426.79,244.22,426.79Z"/><path class="cls-11" d="M315.18,429.35a9.44,9.44,0,0,0-3.87-6.06c-3.59-2.75-40-23.82-40-23.82l23.58,4.07s4.33,4.33,6.5,6.08a38.86,38.86,0,0,0,5.92,3.58l4.85,8.42C314.1,425,316,428,316,428Z"/><path class="cls-7" d="M191.23,429.52a9.05,9.05,0,0,0,5.24,7.68c5.25,2.59,10.8,1.81,12.57-1.64s-1-9.31-4.9-11S192.91,422,191.23,429.52Z"/><path class="cls-11" d="M197.41,435.27a9.07,9.07,0,0,1-5.24-7.69,11,11,0,0,1,.32-1.1,9,9,0,0,0-1.26,3,9.05,9.05,0,0,0,5.24,7.68c5.25,2.59,10.8,1.81,12.57-1.64a5,5,0,0,0,.38-1.11C207.24,437.17,202.21,437.63,197.41,435.27Z"/><path class="cls-7" d="M223.64,431.79s-6.73-2.45-10.67.66-3.16,9,2.59,11.84,11.08,1.33,12.58-2.75A7.25,7.25,0,0,0,223.64,431.79Z"/><path class="cls-11" d="M216.37,442.29c-3.9-1.92-5.5-5.24-4.91-8.15-2,3.23-.74,7.77,4.1,10.15,5.75,2.83,11.08,1.33,12.58-2.75.11-.31.2-.62.28-.93C226.43,443.86,221.58,444.85,216.37,442.29Z"/><path class="cls-7" d="M227.56,445s-.84,4.91,6.91,8c5,2,9.5.91,10.92-2s-1.33-8.67-5-10.25S230.31,438.2,227.56,445Z"/><path class="cls-11" d="M235.14,451.12c-6.15-2.44-6.89-6-6.94-7.42a10.42,10.42,0,0,0-.64,1.34s-.84,4.91,6.91,8c5,2,9.5.91,10.92-2a3.84,3.84,0,0,0,.35-1.37C244.05,452.16,239.84,453,235.14,451.12Z"/><path class="cls-12" d="M163.8,375,145.6,397.8a17.49,17.49,0,0,1-19.23,5.69L0,359.14V378.7l144.47,43.17Z"/><path class="cls-3" d="M155.54,395h0l-8.84,21.45,28,5.41s2.2-4.59,4.87-10.66l-13.18-4.63A17.19,17.19,0,0,1,155.54,395Z"/><path class="cls-10" d="M365.25,389.11h0c3.48,11.25,7.06,21.26,7.06,21.26L500,363.88V340.55L394.69,385.77a51.39,51.39,0,0,1-29.44,3.34Z"/><circle class="cls-15" cx="122.81" cy="395.71" r="8.51"/><circle class="cls-18" cx="122.81" cy="395.71" r="5.13"/><circle class="cls-15" cx="99.21" cy="387.2" r="8.51"/><circle class="cls-18" cx="99.21" cy="387.2" r="5.13"/><circle class="cls-15" cx="75.61" cy="378.7" r="8.51"/><circle class="cls-18" cx="75.61" cy="378.7" r="5.13"/><path class="cls-5" d="M232.24,142.05a5.09,5.09,0,0,0,1.62-4.75c-.62-2.87-1.37-6.75-1.62-8.12s4.87-3.13,6.62-1,1.88,5.88,3,6.44,10.25-4.94,11.88-4.07,3.12,16.63,2.37,18.38-10.43,5.62-11.84,5.62-4.16-2.75-7.41-1.5S232.24,142.05,232.24,142.05Z"/><path class="cls-6" d="M232.86,139.76l5.52,13.75a2.16,2.16,0,0,1-1.17,2.79L231,158.88a2.15,2.15,0,0,1-2.81-1.13L222.33,144a2.15,2.15,0,0,1,1.18-2.85l6.55-2.61A2.16,2.16,0,0,1,232.86,139.76Z"/><polygon class="cls-5" points="133.14 166.1 116.99 174.88 106.72 209.65 142.68 220.28 156.64 173.04 133.14 166.1"/><rect class="cls-12" x="128.01" y="177.52" width="14.88" height="2.12" rx="1.06" transform="translate(56.17 -31.07) rotate(16.47)"/><rect class="cls-12" x="119.17" y="186.09" width="27.5" height="2.13" rx="1.06" transform="translate(58.5 -30) rotate(16.47)"/><rect class="cls-12" x="116.47" y="195.2" width="27.5" height="2.13" rx="1.06" transform="translate(60.97 -28.86) rotate(16.47)"/><rect class="cls-12" x="113.78" y="204.31" width="27.5" height="2.13" rx="1.06" transform="translate(63.44 -27.72) rotate(16.47)"/><polygon class="cls-3" points="129.46 178.57 133.14 166.1 116.99 174.88 129.46 178.57"/><path class="cls-12" d="M358.11,277.12h10.55a0,0,0,0,1,0,0v13.6a5.27,5.27,0,0,1-5.27,5.27h0a5.27,5.27,0,0,1-5.27-5.27v-13.6A0,0,0,0,1,358.11,277.12Z" transform="translate(63.35 -65.78) rotate(11.33)"/><path class="cls-5" d="M353.9,272.71h20.72a0,0,0,0,1,0,0v10.9a8,8,0,0,1-8,8h-4.78a8,8,0,0,1-8-8v-10.9A0,0,0,0,1,353.9,272.71Z" transform="matrix(0.98, 0.2, -0.2, 0.98, 62.5, -66.04)"/><circle class="cls-15" cx="367.86" cy="264.19" r="16.75"/><path class="cls-19" d="M355.83,279.38s6.55,6.56,17.1,3.42"/><path class="cls-19" d="M354.85,284.26s6.55,6.57,17.1,3.43"/><path class="cls-18" d="M372.29,266.68a3,3,0,0,0-3.48,2.39l-.6,3a23.53,23.53,0,0,1-3.7-.81l.59-2.94a3,3,0,0,0-2.29-3.55,2.84,2.84,0,0,0-3.53,2,4.91,4.91,0,0,0-.15.58,3.25,3.25,0,0,0,.61,2.67,7.34,7.34,0,0,0,3.16,2.15l-1.49,7.46c.43.18.88.34,1.33.48l1.45-7.26a24.15,24.15,0,0,0,3.74.62l-1.48,7.39q.71.06,1.41.06l1.48-7.39a7.38,7.38,0,0,0,3.76-.82,3.29,3.29,0,0,0,1.59-2.24q.06-.32.09-.6A2.85,2.85,0,0,0,372.29,266.68Zm-9.11,4.11a5.72,5.72,0,0,1-2.32-1.58,1.87,1.87,0,0,1-.35-1.56c0-.17.07-.32.11-.47a1.44,1.44,0,0,1,1.78-1.05h.08a1.59,1.59,0,0,1,1.25,1.91Zm9.19.74a5.62,5.62,0,0,1-2.75.62l.56-2.81a1.58,1.58,0,0,1,1.9-1.27h.08a1.45,1.45,0,0,1,1.23,1.66c0,.15,0,.31-.07.47A1.92,1.92,0,0,1,372.37,271.53Z"/><ellipse class="cls-20" cx="377.09" cy="258.48" rx="4.34" ry="5.75" transform="translate(-80.04 252.46) rotate(-33.67)"/><ellipse class="cls-20" cx="357.32" cy="271.96" rx="2.56" ry="3.4" transform="translate(-90.84 243.76) rotate(-33.67)"/><rect class="cls-20" x="371.57" y="239.17" width="1.4" height="5.96" rx="0.7" transform="translate(54.8 -68.39) rotate(11.33)"/><rect class="cls-20" x="357.78" y="240.78" width="1.4" height="5.96" rx="0.7" transform="translate(-69.03 171.91) rotate(-24.67)"/><rect class="cls-20" x="347.56" y="250.2" width="1.4" height="5.96" rx="0.7" transform="translate(-43.04 432.81) rotate(-60.67)"/><rect class="cls-20" x="344.83" y="263.82" width="1.4" height="5.96" rx="0.7" transform="translate(120.7 641.01) rotate(-96.67)"/><rect class="cls-20" x="350.63" y="276.45" width="1.4" height="5.96" rx="0.7" transform="translate(384.03 727.14) rotate(-132.67)"/><rect class="cls-20" x="376.54" y="281.64" width="1.4" height="5.96" rx="0.7" transform="translate(838.86 385.77) rotate(155.33)"/><rect class="cls-20" x="386.76" y="272.22" width="1.4" height="5.96" rx="0.7" transform="translate(817.16 72.18) rotate(119.33)"/><rect class="cls-20" x="389.49" y="258.6" width="1.4" height="5.96" rx="0.7" transform="translate(604.64 -156.37) rotate(83.33)"/><rect class="cls-20" x="383.69" y="245.97" width="1.4" height="5.96" rx="0.7" transform="translate(306.87 -202.4) rotate(47.33)"/><path class="cls-12" d="M73.18,162.92H83.73a0,0,0,0,1,0,0v13.6a5.27,5.27,0,0,1-5.27,5.27h0a5.27,5.27,0,0,1-5.27-5.27v-13.6A0,0,0,0,1,73.18,162.92Z" transform="translate(-67.8 52.06) rotate(-26.09)"/><path class="cls-5" d="M66.12,158.88H86.84a0,0,0,0,1,0,0v10.9a8,8,0,0,1-8,8H74.09a8,8,0,0,1-8-8v-10.9A0,0,0,0,1,66.12,158.88Z" transform="translate(-66.23 50.78) rotate(-26.09)"/><circle class="cls-15" cx="68.43" cy="151.87" r="16.75"/><path class="cls-19" d="M68.1,171.24s9.19,1.23,15.66-7.67"/><path class="cls-19" d="M70.29,175.72S79.48,177,86,168.05"/><path class="cls-18" d="M73.46,151.16a3,3,0,0,0-1.31,4l1.34,2.75a24.23,24.23,0,0,1-3.42,1.61l-1.32-2.7a3,3,0,0,0-4-1.42,2.83,2.83,0,0,0-1.59,3.74c.07.18.15.36.24.55a3.23,3.23,0,0,0,2.1,1.75,7.33,7.33,0,0,0,3.82-.22l3.34,6.84c.46-.12.91-.27,1.36-.43L70.79,161a25.92,25.92,0,0,0,3.34-1.77L77.44,166a13.36,13.36,0,0,0,1.16-.81l-3.31-6.76a7.53,7.53,0,0,0,2.49-2.94,3.34,3.34,0,0,0-.1-2.75c-.1-.18-.19-.36-.29-.53A2.85,2.85,0,0,0,73.46,151.16ZM68.72,160a5.57,5.57,0,0,1-2.8.15,1.81,1.81,0,0,1-1.23-1,4.28,4.28,0,0,1-.2-.44,1.44,1.44,0,0,1,.77-1.91l.08,0a1.57,1.57,0,0,1,2.15.75Zm7.75-5a5.65,5.65,0,0,1-1.81,2.16l-1.26-2.57a1.58,1.58,0,0,1,.73-2.16l.07,0a1.44,1.44,0,0,1,2,.57,4.16,4.16,0,0,1,.23.42A1.91,1.91,0,0,1,76.47,155Z"/><ellipse class="cls-20" cx="72.29" cy="141.72" rx="4.34" ry="5.75" transform="translate(-85.21 164.18) rotate(-71.09)"/><ellipse class="cls-20" cx="64.77" cy="164.45" rx="2.56" ry="3.4" transform="translate(-111.79 172.42) rotate(-71.09)"/><rect class="cls-20" x="57.84" y="128.7" width="1.4" height="5.96" rx="0.7" transform="translate(-51.94 39.16) rotate(-26.09)"/><rect class="cls-20" x="47.86" y="138.37" width="1.4" height="5.96" rx="0.7" transform="translate(-99.07 118.09) rotate(-62.09)"/><rect class="cls-20" x="45.47" y="152.05" width="1.4" height="5.96" rx="0.7" transform="translate(-100.83 222.56) rotate(-98.09)"/><rect class="cls-20" x="51.58" y="164.53" width="1.4" height="5.96" rx="0.7" transform="translate(-31.67 321.61) rotate(-134.09)"/><rect class="cls-20" x="63.86" y="171.04" width="1.4" height="5.96" rx="0.7" transform="translate(98.19 356.55) rotate(-170.09)"/><rect class="cls-20" x="87.59" y="159.41" width="1.4" height="5.96" rx="0.7" transform="translate(273.12 160.39) rotate(117.91)"/><rect class="cls-20" x="89.98" y="145.73" width="1.4" height="5.96" rx="0.7" transform="translate(225.15 38.01) rotate(81.91)"/><rect class="cls-20" x="83.87" y="133.25" width="1.4" height="5.96" rx="0.7" transform="translate(123.58 -19.3) rotate(45.91)"/><rect class="cls-20" x="71.6" y="126.75" width="1.4" height="5.96" rx="0.7" transform="translate(23.41 -10.51) rotate(9.91)"/><path class="cls-21" d="M138.6,275.16h-.09a19,19,0,0,0-37.85.08h-.07v1.42h0a19,19,0,0,0,25.15,18.06A19,19,0,0,0,138.58,277h0Z"/><circle class="cls-15" cx="119.6" cy="274.87" r="19"/><circle class="cls-18" cx="119.6" cy="274.87" r="15.32"/><path class="cls-21" d="M114.63,261.71a15.33,15.33,0,0,1,19.46,9.53,15.55,15.55,0,0,1,.8,4.25,15.31,15.31,0,1,0-30.58.09A15.31,15.31,0,0,1,114.63,261.71Z"/><path class="cls-21" d="M127.44,276.52c1,2.83-.64,5.06-3.21,6.38l1.2,3.5-3.56,1.22-1.22-3.57a13.05,13.05,0,0,1-6.24-.35l.57-4.37a11.59,11.59,0,0,0,6.53.38c.73-.25,1.12-.65.94-1.19-.67-1.95-8,2-9.83-3.27-.85-2.47.28-4.77,2.87-6.26l-1.19-3.45,3.56-1.23,1.16,3.4a13,13,0,0,1,5.51,0l-.5,4.39a14.91,14.91,0,0,0-5.78,0c-.56.2-.86.49-.71.94C118.19,274.92,125.57,271.07,127.44,276.52Z"/><path class="cls-15" d="M127.44,275.33c1,2.84-.64,5.07-3.21,6.38l1.2,3.5-3.56,1.22-1.22-3.56a13.18,13.18,0,0,1-6.24-.36l.57-4.37a11.59,11.59,0,0,0,6.53.38c.73-.25,1.12-.65.94-1.19-.67-1.95-8,2-9.83-3.27-.85-2.47.28-4.77,2.87-6.26l-1.19-3.45,3.56-1.22,1.16,3.39a13,13,0,0,1,5.51,0l-.5,4.39a14.7,14.7,0,0,0-5.78,0c-.56.19-.86.48-.71.94C118.19,273.73,125.57,269.88,127.44,275.33Z"/><path class="cls-21" d="M459.37,187.42l-.08,0a18.49,18.49,0,0,0,.7-4.62,19,19,0,0,0-36.24-8.41l-.06,0-.49,1.33h0a19,19,0,0,0,35.48,13.5h0Z"/><circle class="cls-15" cx="441.65" cy="180.57" r="19"/><circle class="cls-18" cx="441.65" cy="180.57" r="15.32"/><path class="cls-21" d="M441.54,166.51a15.29,15.29,0,0,1,14.24,19.94,15.31,15.31,0,1,0-28.73-10.51A15.31,15.31,0,0,1,441.54,166.51Z"/><path class="cls-21" d="M448.43,184.83c-.06,3-2.35,4.53-5.21,4.87l-.09,3.7-3.76-.09.08-3.76a13.18,13.18,0,0,1-5.72-2.49l2-3.9a11.65,11.65,0,0,0,6,2.61c.78,0,1.28-.22,1.29-.79.05-2.06-8.21-.89-8.08-6.47.06-2.61,1.92-4.38,4.85-4.88l.09-3.65,3.76.09-.08,3.58a13,13,0,0,1,5.18,1.89l-2,4a14.64,14.64,0,0,0-5.42-2c-.59,0-1,.16-1,.63C440.31,180.13,448.57,179.07,448.43,184.83Z"/><path class="cls-15" d="M448.85,183.72c-.07,3-2.36,4.53-5.22,4.87l-.09,3.7-3.76-.09.08-3.77a13,13,0,0,1-5.72-2.49l2-3.9a11.52,11.52,0,0,0,6,2.61c.77,0,1.27-.22,1.29-.78,0-2.07-8.22-.9-8.09-6.48.06-2.6,1.92-4.38,4.86-4.87l.08-3.66,3.76.09-.08,3.59a12.94,12.94,0,0,1,5.18,1.89l-2,3.94a14.61,14.61,0,0,0-5.42-2c-.59,0-1,.15-1,.63C440.72,179,449,178,448.85,183.72Z"/><path class="cls-3" d="M380.11,173.05l-8.35-2.51,4.13-7.69a1.62,1.62,0,0,0,.17-.86h0v-3.86l-1.72,1.5-4.11-4.1a1.65,1.65,0,0,0-2-.29l-7.69,4.13L358.09,151a1.66,1.66,0,0,0-1.6-1.19h-7.55a1.66,1.66,0,0,0-1.6,1.19l-2.51,8.35-7.69-4.13a1.67,1.67,0,0,0-2,.29L331,159.68l-1.69-1.5V162h0a1.69,1.69,0,0,0,.18.82l4.13,7.69-8.35,2.51a1.66,1.66,0,0,0-1.19,1.6v7.55a1.66,1.66,0,0,0,1.19,1.6l8.35,2.51-2.79,5.2-1.53-.7v4.09h0a1.71,1.71,0,0,0,.47,1.07l5.34,5.34a1.67,1.67,0,0,0,2,.29l7.69-4.13,2.51,8.35a1.66,1.66,0,0,0,1.6,1.19h7.55a1.66,1.66,0,0,0,1.6-1.19l2.51-8.35,7.69,4.13a1.65,1.65,0,0,0,2-.29L375.6,196a1.64,1.64,0,0,0,.46-1.23l0,0V190.9l-1.51.65-2.81-5.24,8.35-2.51a1.67,1.67,0,0,0,1.19-1.6v-7.55A1.67,1.67,0,0,0,380.11,173.05Z"/><path class="cls-4" d="M380.11,169.18l-8.35-2.52,4.13-7.68a1.68,1.68,0,0,0-.29-2l-5.35-5.34a1.65,1.65,0,0,0-2-.29l-7.69,4.13-2.51-8.36a1.67,1.67,0,0,0-1.6-1.18h-7.55a1.67,1.67,0,0,0-1.6,1.18l-2.51,8.36-7.69-4.13a1.67,1.67,0,0,0-2,.29L329.83,157a1.67,1.67,0,0,0-.29,2l4.13,7.68-8.35,2.52a1.66,1.66,0,0,0-1.19,1.59v7.56a1.66,1.66,0,0,0,1.19,1.59l8.35,2.52-4.13,7.68a1.67,1.67,0,0,0,.29,2l5.34,5.34a1.67,1.67,0,0,0,2,.29l7.69-4.13,2.51,8.36a1.67,1.67,0,0,0,1.6,1.18h7.55a1.67,1.67,0,0,0,1.6-1.18l2.51-8.36,7.69,4.13a1.65,1.65,0,0,0,2-.29l5.35-5.34a1.68,1.68,0,0,0,.29-2l-4.13-7.68,8.35-2.52a1.67,1.67,0,0,0,1.19-1.59v-7.56A1.67,1.67,0,0,0,380.11,169.18Z"/><circle class="cls-4" cx="352.71" cy="176.05" r="22.63"/><circle class="cls-5" cx="352.71" cy="174.55" r="22.63"/><circle class="cls-4" cx="352.71" cy="174.55" r="17.63"/><circle class="cls-6" cx="352.71" cy="176.49" r="11.3"/><circle class="cls-5" cx="352.71" cy="174.55" r="11.3"/><circle class="cls-4" cx="352.71" cy="174.55" r="5.3"/><path class="cls-6" d="M352.71,158.86a17.62,17.62,0,0,1,17.58,16.66c0-.32,0-.64,0-1a17.63,17.63,0,0,0-35.25,0c0,.33,0,.65.05,1A17.61,17.61,0,0,1,352.71,158.86Z"/><path class="cls-6" d="M352.71,171.19a5.3,5.3,0,0,1,5.21,4.33,6.25,6.25,0,0,0,.09-1,5.3,5.3,0,0,0-10.6,0,5.23,5.23,0,0,0,.1,1A5.3,5.3,0,0,1,352.71,171.19Z"/><polygon class="cls-1" points="285.7 232.69 297.03 221.49 297.73 225.48 289.3 238.21 285.7 232.69"/></g></svg>